<svg width="230" height="38" viewBox="0 0 230 38" fill="none" xmlns="http://www.w3.org/2000/svg">
<g clip-path="url(#clip0_3654_1910)">
<path d="M79.8441 15.4323C77.3471 15.4388 75.7513 13.7284 75.7446 11.1912C75.7382 8.7351 77.29 6.98168 79.8219 6.97505C81.9352 6.96951 83.3906 8.19373 83.744 10.2666L82.3154 10.2703C82.0566 8.9966 81.1143 8.22284 79.8252 8.22622C78.1873 8.23051 77.1682 9.38019 77.1729 11.1875C77.1778 13.0411 78.2029 14.1738 79.8408 14.1695C81.1526 14.166 82.0681 13.4106 82.3203 12.124L83.7489 12.1203C83.3829 14.2297 81.9695 15.4267 79.8441 15.4323ZM87.7703 15.4115C85.7723 15.4167 84.6077 14.0179 84.6027 12.118C84.5975 10.1137 85.9532 8.91687 87.7533 8.91216C89.7392 8.90695 90.9046 10.2942 90.9093 12.1015C90.9147 14.1752 89.6054 15.4067 87.7703 15.4115ZM87.7673 14.2414C88.8706 14.2385 89.5188 13.3332 89.5156 12.1052C89.5124 10.8886 88.8248 10.0795 87.7564 10.0823C86.688 10.0851 85.9932 10.8979 85.9964 12.1144C85.9999 13.4583 86.7565 14.2441 87.7673 14.2414ZM93.3614 15.2231L91.9904 15.2267L91.9744 9.08649L93.0776 9.0836L93.196 9.98696C93.578 9.34877 94.3549 8.89486 95.2724 8.89245C96.5849 8.88902 97.4464 9.76729 97.45 11.1459L97.4606 15.2124L96.0904 15.216L96.08 11.219C96.0782 10.5355 95.6243 10.0848 94.8577 10.0868C93.9629 10.0892 93.3609 10.7048 93.3517 11.5042L93.3614 15.2231ZM101.224 15.3762C99.5403 15.3807 98.5388 14.5955 98.4542 13.2518L99.7781 13.2483C99.8269 13.9086 100.396 14.2546 101.152 14.2527C101.849 14.2508 102.219 13.9834 102.218 13.5084C102.217 13.0334 101.822 12.9418 101.287 12.7694L100.473 12.5051C99.45 12.1718 98.5664 11.8265 98.5635 10.6912C98.5606 9.60219 99.3951 8.88165 100.87 8.87779C102.299 8.87405 103.276 9.62456 103.442 11.0144L102.142 11.0178C102.07 10.3229 101.57 9.99974 100.862 10.0016C100.258 10.0032 99.9098 10.259 99.9109 10.6761C99.9121 11.1511 100.447 11.2771 100.889 11.4265L101.633 11.6679C102.853 12.0702 103.586 12.439 103.588 13.5396C103.591 14.6749 102.734 15.3723 101.224 15.3762ZM106.787 15.3617C105.324 15.3655 104.474 14.4525 104.47 13.1202L104.459 9.05378L105.83 9.05019L105.84 13.0587C105.842 13.7538 106.331 14.158 107.063 14.1561C108.003 14.1536 108.559 13.5382 108.569 12.7503L108.559 9.04304L109.93 9.03945L109.946 15.1797L108.842 15.1825L108.735 14.2907C108.377 14.9521 107.646 15.3594 106.787 15.3617ZM112.733 15.1723L111.363 15.1759L111.34 6.48698L112.71 6.48339L112.733 15.1723ZM117.683 15.1594L116.894 15.1614C115.558 15.1649 114.836 14.5064 114.833 13.29L114.825 10.1851L113.744 10.188L113.741 9.02946L114.822 9.02663L114.816 6.9297L116.187 6.92611L116.192 9.02304L117.783 9.01887L117.786 10.1774L116.195 10.1815L116.203 13.1937C116.204 13.715 116.472 14.004 116.983 14.0026L117.68 14.0008L117.683 15.1594ZM119.47 8.19186C118.971 8.19317 118.586 7.8003 118.585 7.30214C118.583 6.80398 118.966 6.42066 119.465 6.41935C119.976 6.41801 120.349 6.79935 120.35 7.29751C120.351 7.79568 119.981 8.19052 119.47 8.19186ZM120.173 15.1529L118.802 15.1564L118.786 9.01624L120.157 9.01265L120.173 15.1529ZM122.94 15.1456L121.57 15.1492L121.554 9.00899L122.657 9.0061L122.776 9.90946C123.158 9.27127 123.934 8.81736 124.852 8.81495C126.165 8.81151 127.026 9.68978 127.03 11.0684L127.04 15.1349L125.67 15.1385L125.66 11.1415C125.658 10.458 125.203 10.0073 124.437 10.0093C123.542 10.0117 122.941 10.6273 122.93 11.4267L122.94 15.1456ZM131.17 17.6264C129.451 17.631 128.264 16.7999 128.26 15.4792L129.631 15.4756C129.632 16.0549 130.249 16.5166 131.167 16.5142C132.259 16.5114 132.826 15.8611 132.823 14.9343L132.821 14.0654C132.428 14.6573 131.744 15.0299 130.861 15.0322C129.212 15.0365 128.024 13.7652 128.019 11.9348C128.014 10.0927 129.195 8.80357 130.833 8.79928C131.797 8.79676 132.576 9.24659 132.962 9.92906L133.075 8.9788L134.166 8.97594L134.182 14.9308C134.186 16.5527 133.039 17.6215 131.17 17.6264ZM131.125 13.8845C132.123 13.8819 132.818 13.0691 132.815 11.9105C132.812 10.752 132.113 9.95451 131.115 9.95712C130.116 9.95974 129.433 10.7609 129.436 11.931C129.439 13.0895 130.126 13.8871 131.125 13.8845ZM140.976 15.2721C139.129 15.2769 137.872 14.3187 137.869 12.8937C137.865 11.6309 138.816 10.9333 139.767 10.4326C139.266 9.86625 138.951 9.33412 138.95 8.68535C138.947 7.60793 139.839 6.8178 141.058 6.8146C142.289 6.81138 143.209 7.59677 143.223 8.68573C143.226 9.65891 142.508 10.2053 141.672 10.6477L143.396 12.3926C143.592 11.8707 143.695 11.2565 143.704 10.5498L144.971 10.5464C144.974 11.647 144.755 12.586 144.351 13.3401L145.48 14.4841L144.53 15.3323L143.563 14.3269C142.903 14.9311 142.021 15.2694 140.976 15.2721ZM140.892 9.88514C141.472 9.59399 141.901 9.2801 141.899 8.74714C141.898 8.28377 141.561 7.94866 141.084 7.94991C140.608 7.95116 140.26 8.28806 140.262 8.75143C140.263 9.13371 140.496 9.4691 140.892 9.88514ZM141.042 14.067C141.728 14.0652 142.284 13.8553 142.702 13.4487L140.536 11.23C139.84 11.6025 139.272 12.0327 139.273 12.7626C139.275 13.5504 139.951 14.0699 141.042 14.067ZM149.856 15.0751L148.416 15.0789L151.717 6.96045L153.11 6.9568L156.464 15.0578L155.024 15.0615L154.195 13.0594L150.676 13.0686L149.856 15.0751ZM152.43 8.75434L151.171 11.8393L153.692 11.8327L152.43 8.75434ZM158.735 15.0518L157.365 15.0554L157.349 8.9152L158.452 8.91231L158.571 9.81567C158.952 9.17748 159.729 8.72357 160.646 8.72117C161.959 8.71773 162.821 9.596 162.825 10.9746L162.835 15.0411L161.464 15.0447L161.454 11.0477C161.452 10.3642 160.998 9.91354 160.232 9.91555C159.338 9.91789 158.735 10.5335 158.726 11.3329L158.735 15.0518ZM166.18 15.1598C164.763 15.1635 163.833 14.4824 163.841 13.3354C163.849 11.8987 165.276 11.5938 166.473 11.4516C167.401 11.345 168.087 11.3084 168.097 10.8218C168.084 10.2194 167.618 9.82669 166.828 9.82875C166.015 9.83089 165.436 10.2727 165.356 10.9101L163.974 10.9137C164.098 9.6158 165.257 8.70908 166.848 8.70492C168.509 8.70056 169.429 9.60183 169.432 10.911L169.439 13.6914C169.44 13.8652 169.533 13.9577 169.743 13.9571L170.079 13.9562L170.082 15.0221L169.432 15.0238C168.805 15.0254 168.421 14.7715 168.315 14.3084C168.291 14.2506 168.268 14.1695 168.256 14.1C167.898 14.7613 167.225 15.157 166.18 15.1598ZM166.456 14.0815C167.397 14.0791 168.104 13.5443 168.102 12.7218L168.099 11.8645C167.868 12.2242 167.276 12.3068 166.626 12.3896C165.86 12.4844 165.221 12.5903 165.223 13.239C165.224 13.772 165.654 14.0836 166.456 14.0815ZM172.38 15.0161L171.01 15.0197L170.987 6.33069L172.357 6.3271L172.38 15.0161ZM174.804 17.3268L173.689 17.3297L173.686 16.1711L174.801 16.1682C175.312 16.1669 175.591 15.9808 175.706 15.6561L175.947 15.0067L175.692 15.0074L173.237 8.87357L174.712 8.86971L176.49 13.5224L178.208 8.86055L179.636 8.8568L176.972 16.0583C176.661 16.8816 176.012 17.3236 174.804 17.3268ZM184.033 14.9855L183.243 14.9876C181.908 14.9911 181.185 14.3326 181.182 13.1161L181.174 10.0113L180.094 10.0141L180.091 8.85561L181.171 8.85278L181.166 6.75585L182.537 6.75226L182.542 8.84919L184.133 8.84502L184.136 10.0035L182.545 10.0077L182.553 13.0199C182.554 13.5412 182.822 13.8301 183.333 13.8288L184.03 13.827L184.033 14.9855ZM185.819 8.01801C185.32 8.01932 184.936 7.62646 184.934 7.12829C184.933 6.63013 185.315 6.24681 185.815 6.2455C186.326 6.24416 186.698 6.6255 186.7 7.12367C186.701 7.62183 186.33 8.01668 185.819 8.01801ZM186.523 14.979L185.152 14.9826L185.136 8.84239L186.507 8.8388L186.523 14.979ZM190.778 15.1416C188.768 15.1469 187.591 13.7134 187.586 11.8598C187.581 9.84389 188.937 8.64704 190.726 8.64235C192.41 8.63794 193.551 9.66608 193.671 11.1951L192.323 11.1986C192.194 10.3532 191.588 9.81025 190.717 9.81253C189.672 9.81527 188.977 10.6049 188.98 11.8561C188.984 13.2 189.752 13.9742 190.774 13.9715C191.61 13.9693 192.19 13.4349 192.327 12.5541L193.674 12.5505C193.515 14.1381 192.415 15.1373 190.778 15.1416ZM197.199 15.1248C195.514 15.1292 194.514 14.344 194.429 13.0003L195.753 12.9969C195.801 13.6571 196.371 14.0032 197.126 14.0012C197.823 13.9994 198.194 13.732 198.192 13.257C198.191 12.7819 197.796 12.6903 197.262 12.5179L196.448 12.2536C195.425 11.9203 194.541 11.5751 194.538 10.4397C194.536 9.35073 195.37 8.63018 196.845 8.62632C198.273 8.62258 199.251 9.37309 199.417 10.7629L198.116 10.7663C198.044 10.0714 197.545 9.74827 196.836 9.75013C196.232 9.75171 195.885 10.0075 195.886 10.4246C195.887 10.8996 196.421 11.0256 196.863 11.175L197.607 11.4164C198.828 11.8187 199.561 12.1875 199.563 13.2881C199.566 14.4234 198.708 15.1208 197.199 15.1248ZM206.952 15.0992C204.455 15.1058 202.859 13.3953 202.853 10.8582C202.846 8.40206 204.397 6.64864 206.929 6.64201C209.043 6.63647 210.498 7.86069 210.852 9.93352L209.424 9.93726C209.165 8.66355 208.222 7.8898 206.933 7.89318C205.296 7.89747 204.276 9.04715 204.281 10.8544C204.286 12.708 205.311 13.8407 206.948 13.8364C208.261 13.833 209.176 13.0776 209.429 11.791L210.857 11.7872C210.491 13.8967 209.077 15.0937 206.952 15.0992ZM213.437 14.9085L212.067 14.9121L212.044 6.22312L213.415 6.21953L213.437 14.9085ZM217.064 15.0727C215.6 15.0766 214.75 14.1635 214.747 12.8313L214.736 8.76484L216.106 8.76125L216.117 12.7698C216.119 13.4649 216.607 13.8691 217.339 13.8671C218.28 13.8647 218.836 13.2492 218.845 12.4613L218.835 8.7541L220.206 8.7505L220.222 14.8907L219.119 14.8936L219.012 14.0018C218.654 14.6631 217.923 15.0705 217.064 15.0727ZM225.043 15.0518C224.067 15.0544 223.253 14.5699 222.867 13.7947L222.743 14.8841L221.64 14.887L221.617 6.19803L222.987 6.19444L222.996 9.54256C223.436 8.93901 224.166 8.55473 225.038 8.55245C226.663 8.54819 227.817 9.86592 227.822 11.7659C227.827 13.7006 226.68 15.0475 225.043 15.0518ZM224.738 13.8941C225.737 13.8915 226.419 13.0208 226.416 11.7696C226.413 10.5532 225.726 9.70923 224.727 9.71185C223.717 9.71449 222.998 10.5505 223.002 11.7438C223.005 13.0066 223.728 13.8968 224.738 13.8941ZM77.5599 30.3926L76.1662 30.3962L76.145 22.2865L77.5387 22.2828L77.5599 30.3926ZM80.634 30.3845L79.2402 30.3882L79.219 22.2784L80.6127 22.2748L80.634 30.3845ZM85.9138 30.3707L84.5209 30.3743L84.5029 23.5158L81.7845 23.523L81.7812 22.2717L88.5989 22.2539L88.6021 23.5051L85.8959 23.5122L85.9138 30.3707ZM95.8363 30.5184C93.56 30.5244 91.9534 28.8603 91.9466 26.2768C91.9402 23.8207 93.4916 22.0673 96.0121 22.0607C98.1254 22.0552 99.5808 23.3025 99.9342 25.3522L98.5056 25.3559C98.2467 24.0822 97.3044 23.3085 96.0153 23.3118C94.3888 23.3161 93.3704 24.4541 93.3752 26.273C93.38 28.1151 94.4166 29.2593 95.9725 29.2552C97.2389 29.2519 98.0609 28.4273 98.0579 27.2687L95.6072 27.2751L95.6041 26.105L98.3801 26.0978C99.425 26.095 99.9959 26.6148 99.9985 27.5996L100.006 30.3337L98.7742 30.337L98.7677 27.8577L98.7449 27.8578C98.5862 29.4802 97.5204 30.514 95.8363 30.5184ZM103.537 30.4982C102.075 30.5021 101.224 29.589 101.22 28.2568L101.21 24.1903L102.581 24.1867L102.591 28.1953C102.593 28.8904 103.082 29.2946 103.813 29.2926C104.754 29.2902 105.31 28.6747 105.319 27.8869L105.31 24.1796L106.68 24.176L106.696 30.3162L105.593 30.3191L105.486 29.4273C105.128 30.0886 104.397 30.496 103.537 30.4982ZM110.808 30.3054L109.368 30.3092L107.528 24.1738L108.933 24.1701L110.188 28.6156L111.396 24.1637L112.534 24.1607L113.777 28.5598L114.984 24.1542L116.39 24.1506L114.583 30.2955L113.165 30.2993L111.97 26.1085L110.808 30.3054ZM119.208 30.4109C117.791 30.4146 116.86 29.7335 116.869 28.5865C116.877 27.1499 118.304 26.8449 119.5 26.7028C120.429 26.5961 121.114 26.5595 121.125 26.0729C121.111 25.4705 120.646 25.0778 119.856 25.0799C119.043 25.082 118.463 25.5238 118.384 26.1612L117.001 26.1648C117.126 24.8669 118.285 23.9602 119.876 23.956C121.537 23.9517 122.457 24.8529 122.46 26.1621L122.468 28.9426C122.468 29.1163 122.562 29.2088 122.77 29.2083L123.107 29.2074L123.11 30.2732L122.46 30.2749C121.833 30.2766 121.448 30.0227 121.342 29.5596C121.319 29.5017 121.296 29.4207 121.284 29.3512C120.926 30.0124 120.253 30.4081 119.208 30.4109ZM119.484 29.3327C120.424 29.3302 121.132 28.7955 121.13 27.9729L121.127 27.1156C120.896 27.4753 120.304 27.558 119.653 27.6408C118.888 27.7355 118.249 27.8414 118.25 28.4902C118.252 29.0231 118.682 29.3348 119.484 29.3327ZM125.408 30.2672L124.038 30.2708L124.015 21.5818L125.385 21.5782L125.393 24.7873C125.81 24.2765 126.518 23.9386 127.32 23.9365C128.631 23.9331 129.494 24.8114 129.497 26.19L129.508 30.2564L128.137 30.26L128.126 26.2631C128.125 25.5796 127.671 25.1289 126.939 25.1308C126.01 25.1333 125.407 25.7489 125.398 26.5483L125.408 30.2672ZM132.852 30.3751C131.435 30.3788 130.504 29.6977 130.513 28.5508C130.521 27.1141 131.949 26.8092 133.144 26.667C134.073 26.5603 134.758 26.5238 134.768 26.0371C134.755 25.4348 134.29 25.0421 133.5 25.0441C132.687 25.0463 132.108 25.4881 132.028 26.1255L130.646 26.1291C130.771 24.8312 131.929 23.9245 133.521 23.9203C135.181 23.9159 136.101 24.8172 136.105 26.1264L136.112 28.9068C136.112 29.0806 136.205 29.173 136.414 29.1725L136.751 29.1716L136.754 30.2375L136.103 30.2392C135.476 30.2408 135.093 29.9869 134.987 29.5238C134.963 29.4659 134.94 29.3849 134.928 29.3154C134.57 29.9767 133.897 30.3724 132.852 30.3751ZM133.128 29.2969C134.069 29.2945 134.776 28.7597 134.773 27.9371L134.771 27.0798C134.54 27.4396 133.948 27.5222 133.298 27.605C132.531 27.6997 131.893 27.8057 131.895 28.4544C131.896 28.9874 132.327 29.299 133.128 29.2969ZM141.019 30.2263L140.229 30.2284C138.894 30.2318 138.172 29.5733 138.169 28.3569L138.16 25.252L137.081 25.2549L137.078 24.0964L138.157 24.0935L138.152 21.9966L139.522 21.993L139.528 24.0899L141.119 24.0858L141.122 25.2443L139.531 25.2484L139.538 28.2606C139.54 28.7819 139.808 29.0709 140.319 29.0695L141.016 29.0677L141.019 30.2263ZM142.806 23.2588C142.306 23.2601 141.922 22.8672 141.921 22.3691C141.919 21.8709 142.301 21.4875 142.801 21.4862C143.312 21.4849 143.685 21.8663 143.686 22.3644C143.687 22.8626 143.317 23.2574 142.806 23.2588ZM143.509 30.2198L142.138 30.2233L142.122 24.0831L143.493 24.0796L143.509 30.2198Z" fill="white"/>
<path d="M19.665 1.55748C17.6191 1.63793 15.6295 2.03304 13.7875 2.72331C10.4117 3.99041 7.50545 6.21513 5.39989 9.1463C4.12025 10.9277 3.17013 12.9606 2.625 15.0838C2.31679 16.2822 2.14084 17.4543 2.06461 18.811C2.04881 19.095 2.04552 20.0654 2.05903 20.3946C2.15877 22.8136 2.70078 25.0668 3.70865 27.2543C3.83097 27.5197 4.16837 28.1802 4.315 28.4417C5.08041 29.8077 5.95822 30.9972 7.04314 32.141C7.26267 32.3724 7.805 32.9004 8.02835 33.1001C9.34982 34.2846 10.7397 35.2234 12.2974 35.9818C15.3525 37.4718 18.7586 38.0809 22.1923 37.7514C25.7027 37.4158 29.0637 36.0622 31.8289 33.8715C32.1794 33.5933 32.1907 33.5848 32.3289 33.4465C32.3364 33.4397 32.3719 33.3987 32.3949 33.379C32.5123 33.2786 38.5523 27.2872 43.0852 22.7757C45.8326 20.0412 47.3716 18.516 47.3775 18.5218C47.3834 18.5276 47.3697 18.5142 47.3619 18.5258C47.3513 18.5432 48.0377 19.4751 54.3675 27.9746C60.1032 35.6765 61.3871 37.3955 61.4552 37.4627C61.5423 37.5481 61.6297 37.6066 61.7449 37.6535C61.8313 37.6889 62.1058 37.7459 62.2512 37.7581C62.3295 37.7646 63.8613 37.7635 67.1527 37.752C71.6067 37.7374 71.9445 37.7356 72.0046 37.72C72.2549 37.6577 72.4421 37.5494 72.6157 37.368C73.0263 36.9376 73.1451 36.2614 72.9119 35.6748C72.8505 35.52 72.7633 35.3806 72.6395 35.2375C72.5906 35.1808 50.2919 2.31767 50.1981 2.16389C50.1462 2.07834 50.0253 1.95351 49.9366 1.89309C49.7894 1.79336 49.6141 1.72161 49.4106 1.67882C49.326 1.66171 49.2792 1.65799 49.0973 1.65847C48.8084 1.65826 48.7334 1.6729 48.3981 1.79315C48.2756 1.83776 48.1862 1.88516 48.1144 1.94215C48.0824 1.96726 44.1353 6.15285 39.3412 11.2427C34.5481 16.3335 29.7075 21.4726 28.5859 22.6635C27.4643 23.8544 26.4717 24.9122 26.3795 25.0135C26.074 25.3503 25.9847 25.4313 25.5516 25.7569C24.9009 26.2467 24.5066 26.4962 23.9644 26.7584C23.0461 27.2046 22.1273 27.4506 21.0563 27.5381C20.8511 27.555 20.1534 27.5568 19.9423 27.5411C18.7433 27.4527 17.6567 27.1514 16.6971 26.6417C16.0131 26.2787 15.4301 25.8528 14.8809 25.3142C14.2518 24.6977 13.7626 24.0242 13.3723 23.2386C12.9174 22.3224 12.662 21.369 12.5763 20.266C12.5593 20.0551 12.5577 19.4265 12.5727 19.2214C12.6159 18.6476 12.6964 18.1651 12.8341 17.6612C13.292 15.9878 14.3077 14.5064 15.7216 13.4504C16.8014 12.6438 18.1087 12.1166 19.4538 11.9456C19.8341 11.8974 19.9518 11.8904 20.4607 11.889C20.9696 11.8877 21.0844 11.8941 21.463 11.9404C22.4869 12.0638 23.4928 12.3942 24.3981 12.904C26.2484 13.9446 27.6054 15.6913 28.1429 17.7212C28.1665 17.8116 28.196 17.9271 28.2068 17.9771C28.2255 18.057 28.2343 18.0762 28.2831 18.1434C28.4326 18.3481 28.6207 18.4863 28.8379 18.5492C28.9518 18.5826 29.1434 18.5908 29.2757 18.5673C29.4469 18.538 29.6393 18.4643 29.7695 18.3792C29.8015 18.359 29.8811 18.2923 29.9472 18.2315C30.1384 18.0539 35.3249 12.7272 35.3151 12.7175C35.3063 12.7089 35.3635 12.6345 35.3859 12.6249C35.3966 12.6211 35.6032 12.4096 36.0341 11.9628C36.1758 11.8161 36.2543 11.712 36.3143 11.5885C36.4227 11.3659 36.4523 11.1386 36.4039 10.8913C36.3931 10.8326 36.3755 10.7941 36.3002 10.6654C35.703 9.63489 34.957 8.60388 34.1636 7.71354C33.6757 7.16508 33.0865 6.58036 32.5385 6.10043C29.9552 3.83812 26.8086 2.35032 23.4251 1.79312C22.6075 1.65759 21.8269 1.58166 20.9736 1.55309C20.6701 1.5433 19.9705 1.54513 19.665 1.55748ZM49.1952 1.91333C49.206 1.9287 49.1934 1.93451 49.1642 1.92785C49.1438 1.92212 49.1408 1.91924 49.1524 1.91151C49.1709 1.89991 49.1874 1.90083 49.1952 1.91333ZM48.6247 3.24238C48.6325 3.25488 48.6199 3.25491 48.6003 3.24244C48.5877 3.23478 48.5877 3.23286 48.6023 3.23282C48.6111 3.23279 48.6217 3.23662 48.6247 3.24238ZM49.5053 3.25933C49.4975 3.26416 49.4839 3.26805 49.4761 3.26807C49.4664 3.26809 49.4682 3.26521 49.4809 3.25939C49.5072 3.24778 49.5227 3.24774 49.5053 3.25933ZM21.0565 3.47828C23.9981 3.59957 26.7353 4.44247 29.2019 5.98692C30.8353 7.00982 32.3216 8.36338 33.4961 9.89869C33.7568 10.2407 34.2207 10.9009 34.2207 10.9317C34.2208 10.9413 29.6175 15.6831 29.6018 15.6899C29.598 15.6908 29.5716 15.6419 29.5432 15.5793C29.4689 15.4178 29.2821 15.0525 29.1892 14.8862C28.9175 14.4017 28.5922 13.9231 28.2378 13.487C26.6869 11.5771 24.4904 10.3025 22.0658 9.90647C21.2403 9.77097 20.3666 9.7396 19.5115 9.81211C18.921 9.86275 18.2617 9.97809 17.6948 10.1297C16.1752 10.5361 14.7732 11.3013 13.6094 12.3585C13.3968 12.5525 13.0271 12.9261 12.8496 13.1287C11.4799 14.6851 10.6607 16.5713 10.4482 18.6541C10.3856 19.2647 10.3797 19.981 10.4328 20.57C10.6081 22.5037 11.3309 24.3049 12.5453 25.8295C13.0001 26.4001 13.5718 26.9715 14.145 27.4263C16.1691 29.0345 18.7037 29.7932 21.3049 29.5717C22.6959 29.4525 24.0657 29.0369 25.2899 28.3607C25.9349 28.0048 26.5556 27.5661 27.1166 27.0688C27.4486 26.7753 27.9483 26.2532 28.2266 25.9097C28.3042 25.8142 28.8582 25.2197 28.8631 25.2274C29.566 26.1296 32.7926 30.331 32.7898 30.3388C32.7868 30.3454 32.7354 30.4043 32.6753 30.4709C30.9698 32.3613 28.8779 33.8176 26.5238 34.7537C24.9463 35.3807 23.2709 35.7596 21.5646 35.8767C21.0335 35.9128 20.3135 35.9243 19.8133 35.9053C16.7113 35.7864 13.8767 34.9062 11.369 33.2839C10.6429 32.8141 10.0082 32.3267 9.31385 31.7066C9.09249 31.5088 8.55502 30.9798 8.33837 30.7465C7.07974 29.3904 6.08821 27.8787 5.35897 26.2055C4.67769 24.6419 4.25692 22.9863 4.09077 21.2124C4.0397 20.6609 4.02095 20.1892 4.02608 19.5471C4.03059 19.0397 4.03511 18.9088 4.06518 18.5024C4.24733 15.9816 5.02708 13.5381 6.34363 11.3628C7.93143 8.73727 10.2492 6.59976 13.0069 5.2149C15.0756 4.1765 17.3226 3.59203 19.6603 3.4829C19.9181 3.47067 20.8045 3.46835 21.0565 3.47828ZM51.1271 6.9326C52.2974 8.65857 53.2555 10.0741 53.2575 10.0799C53.2585 10.0846 51.9939 11.3481 50.448 12.8858L47.6357 15.6812L45.4661 12.767C44.273 11.1643 43.2956 9.84797 43.2936 9.84223C43.2897 9.82779 48.9841 3.7796 48.993 3.78823C48.9959 3.79208 49.957 5.20666 51.1271 6.9326ZM44.087 14.1039C45.2539 15.6711 46.2244 16.9729 46.242 16.9979L46.2751 17.0441L40.3032 22.9861C37.0182 26.2535 34.3195 28.9359 34.3049 28.9466L34.2796 28.9649L32.2529 26.3352L30.2261 23.7066L30.2678 23.6593C30.3784 23.5339 41.9527 11.2513 41.9585 11.2532C41.9624 11.2541 42.9203 12.5368 44.087 14.1039ZM62.4737 23.6616C66.9649 30.2829 70.6391 35.7086 70.6391 35.7192C70.6401 35.7385 70.6337 35.7385 66.6415 35.7509L62.6428 35.7633L55.8128 26.5912C52.0568 21.5469 48.938 17.3596 48.8824 17.2856C48.7974 17.1722 48.7578 17.1394 48.7451 17.15C48.7345 17.1586 48.7497 17.1724 48.741 17.1637C48.7322 17.1551 49.3736 16.5122 51.5096 14.3877C53.0391 12.8665 54.2948 11.6223 54.2993 11.6223C54.3053 11.6232 57.9838 17.0403 62.4737 23.6616Z" fill="white"/>
<path d="M34.2538 18.68C33.9279 18.7376 33.6715 18.9116 33.5321 19.17C33.4547 19.3117 33.4248 19.436 33.4253 19.6112C33.4259 19.8412 33.5071 20.0365 33.7259 20.3354C33.759 20.3814 33.7874 20.4237 33.7874 20.4276C33.7874 20.4314 33.7514 20.4575 33.7078 20.4846C33.2677 20.7524 33.0342 21.088 33.0147 21.4799C32.9861 22.0682 33.4185 22.5725 34.0609 22.6989C34.4182 22.7692 34.7955 22.7297 35.1357 22.5863C35.2096 22.5563 35.3428 22.4857 35.4039 22.446L35.4331 22.4267L35.5785 22.6025L35.7229 22.7782L36.2075 22.8136C36.4742 22.8332 36.6971 22.8469 36.7038 22.845C36.7097 22.843 36.5457 22.6375 36.3378 22.3887C36.1309 22.1399 35.9611 21.9334 35.961 21.9295C35.961 21.9266 35.9736 21.9054 35.9891 21.8832C36.1481 21.6517 36.2863 21.3144 36.3479 21.0119C36.3728 20.8877 36.4062 20.6527 36.4004 20.6461C36.3975 20.6412 35.7873 20.5985 35.7844 20.6014C35.7825 20.6034 35.7748 20.6515 35.7681 20.7093C35.7433 20.9096 35.6971 21.084 35.6246 21.2536C35.5743 21.3721 35.5414 21.4291 35.5316 21.4184C35.4818 21.3637 34.8483 20.5971 34.8493 20.5923C34.8493 20.5875 34.894 20.5556 34.9484 20.5198C35.0843 20.4319 35.195 20.3411 35.3067 20.2301C35.5046 20.0303 35.583 19.8578 35.592 19.5949C35.6003 19.3859 35.5678 19.2648 35.4623 19.11C35.3197 18.8986 35.0839 18.7568 34.7655 18.6883C34.6633 18.6663 34.3587 18.6615 34.2538 18.68ZM34.5948 19.2326C34.7126 19.2506 34.8139 19.3177 34.8627 19.4091C34.8862 19.4523 34.8892 19.4687 34.8894 19.5544C34.8897 19.642 34.8868 19.6565 34.8597 19.7133C34.8432 19.7481 34.8132 19.7943 34.7928 19.8175C34.7473 19.8696 34.6229 19.9662 34.5112 20.0358L34.4238 20.0909L34.3965 20.0592C34.3808 20.0419 34.3292 19.9765 34.2813 19.9141C34.1407 19.7306 34.1055 19.644 34.1256 19.5313C34.1525 19.3821 34.2572 19.2749 34.4119 19.237C34.4731 19.2223 34.5227 19.2203 34.5948 19.2326ZM34.6298 21.4488C34.8581 21.7254 35.0456 21.955 35.0476 21.9608C35.0515 21.9733 34.8911 22.0565 34.8065 22.0866C34.6811 22.1302 34.5897 22.143 34.4399 22.1376C34.2813 22.1322 34.1985 22.1132 34.0836 22.0547C33.877 21.9485 33.7657 21.7898 33.7545 21.5839C33.7442 21.4068 33.7907 21.293 33.9246 21.1599C34.0041 21.0817 34.1799 20.9483 34.2042 20.9473C34.21 20.9472 34.4023 21.1731 34.6298 21.4488Z" fill="white"/>
</g>
<defs>
<clipPath id="clip0_3654_1910">
<rect width="229" height="37.0636" fill="white" transform="translate(0 0.600098) rotate(-0.150123)"/>
</clipPath>
</defs>
</svg>
