<svg width="429" height="15" viewBox="0 0 429 15" fill="none" xmlns="http://www.w3.org/2000/svg">
<path d="M5.09653 11.8744C4.3592 11.8763 3.68219 11.7474 3.06551 11.4877C2.44881 11.2187 1.91116 10.8468 1.45258 10.372C1.00331 9.88779 0.651822 9.31938 0.398112 8.66671C0.144401 8.01404 0.016518 7.2957 0.0144638 6.51171C0.0124096 5.72771 0.136526 5.00871 0.386813 4.35472C0.637101 3.70073 0.985608 3.13048 1.43233 2.64398C1.88839 2.15745 2.42408 1.78271 3.03939 1.51976C3.65468 1.24748 4.33099 1.11038 5.06832 1.10845C5.77765 1.10659 6.41265 1.23092 6.97331 1.48146C7.5433 1.73196 8.02015 2.05738 8.40387 2.45771C8.7969 2.84868 9.07798 3.26328 9.24713 3.70151L8.19835 4.16625C7.93542 3.56027 7.53282 3.07599 6.99054 2.71341C6.45756 2.34148 5.81774 2.15649 5.07108 2.15844C4.30574 2.16045 3.62489 2.34423 3.02851 2.7098C2.43214 3.07536 1.9668 3.58525 1.63252 4.23946C1.2982 4.88434 1.13219 5.64077 1.13446 6.50877C1.13671 7.36744 1.30669 8.12299 1.6444 8.77544C1.98211 9.42789 2.45011 9.93534 3.04839 10.2978C3.64665 10.6509 4.32845 10.8264 5.09378 10.8244C5.84045 10.8225 6.4793 10.6388 7.01034 10.2734C7.55072 9.90797 7.95078 9.42159 8.21052 8.81424L9.26173 9.27349C9.09486 9.70326 8.81595 10.1193 8.425 10.5217C8.04336 10.9147 7.56821 11.2379 6.99954 11.4914C6.4402 11.7449 5.80586 11.8726 5.09653 11.8744ZM14.4973 11.8498C13.788 11.8516 13.1435 11.6853 12.564 11.3508C11.9844 11.007 11.5212 10.5416 11.1743 9.95448C10.8367 9.35803 10.667 8.6818 10.665 7.9258C10.663 7.17914 10.8293 6.51137 11.1637 5.92249C11.4982 5.33361 11.9497 4.87043 12.5181 4.53294C13.0959 4.18609 13.7487 4.01171 14.4767 4.0098C15.2047 4.0079 15.8538 4.1742 16.4241 4.5087C17.0036 4.84319 17.4575 5.304 17.7857 5.89114C18.1232 6.47826 18.293 7.14982 18.295 7.90581C18.297 8.67114 18.1261 9.35293 17.7823 9.95116C17.4385 10.5401 16.9777 11.0033 16.4 11.3408C15.8315 11.6783 15.1973 11.8479 14.4973 11.8498ZM14.4945 10.7998C14.9985 10.7985 15.4509 10.6713 15.8515 10.4182C16.2615 10.1651 16.5826 9.81897 16.8148 9.3797C17.0563 8.9404 17.1764 8.45008 17.175 7.90875C17.1735 7.36742 17.0509 6.8824 16.8072 6.45371C16.5727 6.02499 16.2498 5.68516 15.8385 5.43424C15.4365 5.18329 14.9835 5.05848 14.4795 5.0598C13.9755 5.06112 13.5185 5.18832 13.1085 5.44139C12.7078 5.69444 12.3867 6.03595 12.1452 6.46592C11.9036 6.89589 11.7836 7.38154 11.785 7.92287C11.7864 8.4642 11.909 8.95388 12.1528 9.39191C12.3966 9.82994 12.7196 10.1744 13.1215 10.4254C13.5329 10.6763 13.9905 10.8011 14.4945 10.7998ZM20.164 14.4669L20.137 4.16297L21.187 4.16022L21.1914 5.84022L21.0226 5.54666C21.32 5.06988 21.7157 4.69084 22.2096 4.40954C22.7129 4.12822 23.2865 3.98672 23.9305 3.98503C24.6399 3.98318 25.2703 4.15419 25.8219 4.49808C26.3828 4.83261 26.8226 5.29346 27.1415 5.88063C27.4697 6.46777 27.6348 7.13934 27.6368 7.89534C27.6387 8.642 27.4772 9.31443 27.1521 9.91261C26.8363 10.5014 26.3988 10.9693 25.8397 11.3161C25.29 11.6535 24.6604 11.8231 23.9511 11.825C23.3071 11.8267 22.7234 11.6836 22.1999 11.3956C21.6858 11.0983 21.2974 10.6793 21.0346 10.1386L21.2022 9.9842L21.214 14.4642L20.164 14.4669ZM23.8923 10.7752C24.3963 10.7738 24.844 10.6467 25.2353 10.3936C25.636 10.1406 25.9478 9.7991 26.1706 9.36918C26.4028 8.92991 26.5182 8.4396 26.5168 7.89827C26.5154 7.34761 26.3974 6.85791 26.1629 6.42919C25.9378 6.00045 25.6243 5.6606 25.2223 5.40965C24.8296 5.15868 24.3813 5.03386 23.8773 5.03518C23.3733 5.0365 22.9163 5.1637 22.5063 5.41677C22.1056 5.66982 21.7845 6.016 21.543 6.4553C21.3108 6.88524 21.1954 7.37088 21.1968 7.91221C21.1982 8.45354 21.3162 8.94323 21.5507 9.38129C21.7945 9.80998 22.1173 10.1498 22.5193 10.4008C22.9307 10.6517 23.3883 10.7765 23.8923 10.7752ZM29.5199 14.7224C29.3705 14.7228 29.2165 14.7092 29.0578 14.6816C28.9084 14.6634 28.7589 14.6264 28.6095 14.5708L28.6069 13.5908C28.7002 13.5999 28.817 13.6136 28.957 13.6319C29.1064 13.6595 29.2558 13.6731 29.4051 13.6727C29.8624 13.6715 30.2122 13.5726 30.4543 13.376C30.6965 13.1887 30.9336 12.824 31.1655 12.2821L31.6385 11.1609L31.613 12.0849L28.4141 4.14129L29.5481 4.13832L32.1693 10.6975L31.8753 10.6982L34.4481 4.12548L35.6101 4.12243L32.2023 12.5874C32.0539 12.9518 31.8635 13.2976 31.631 13.6249C31.4078 13.9521 31.1239 14.2142 30.779 14.4111C30.4343 14.6174 30.0145 14.7211 29.5199 14.7224ZM36.8636 11.6232L36.844 4.1192L37.894 4.11645L37.8972 5.34844L37.7567 5.16681C37.9331 4.81168 38.1984 4.53099 38.5525 4.32472C38.916 4.11844 39.3544 4.01462 39.8677 4.01328L40.3437 4.01203L40.3464 5.06203L39.6884 5.06375C39.1471 5.06517 38.7136 5.2343 38.3878 5.57116C38.062 5.90801 37.8999 6.38444 37.9015 7.00044L37.9136 11.6204L36.8636 11.6232ZM41.5941 11.6108L41.5744 4.10681L42.6244 4.10405L42.6441 11.608L41.5941 11.6108ZM41.5708 2.72081L41.5667 1.18081L42.6167 1.17806L42.6208 2.71806L41.5708 2.72081ZM48.3573 14.6731C47.844 14.6744 47.3678 14.5963 46.9287 14.4388C46.499 14.2813 46.1251 14.0629 45.807 13.7837C45.4983 13.5139 45.2595 13.1972 45.0905 12.8336L46.0551 12.3131C46.2054 12.6674 46.4722 12.9747 46.8556 13.235C47.2389 13.4953 47.7293 13.6247 48.3266 13.6231C48.7839 13.6219 49.2037 13.5322 49.5859 13.3538C49.9681 13.1755 50.2754 12.9134 50.5078 12.5674C50.7403 12.2215 50.8558 11.7965 50.8545 11.2925L50.8501 9.62652L51.0185 9.78008C50.7586 10.3221 50.3724 10.7431 49.8598 11.0431C49.3473 11.3338 48.7876 11.4799 48.181 11.4815C47.481 11.4834 46.8505 11.317 46.2897 10.9825C45.7288 10.6479 45.2843 10.1964 44.9561 9.62796C44.6373 9.05013 44.4769 8.41121 44.4751 7.71122C44.4732 7.00189 44.6302 6.36214 44.9461 5.79198C45.2712 5.22179 45.7087 4.76797 46.2585 4.43053C46.8176 4.09307 47.4518 3.9234 48.1612 3.92155C48.7678 3.91996 49.3189 4.05851 49.8143 4.33722C50.319 4.61589 50.7167 4.99285 51.0072 5.46809L50.84 5.76253L50.8356 4.08254L51.8856 4.07979L51.9045 11.2898C51.9062 11.9338 51.7537 12.5082 51.447 13.013C51.1497 13.5271 50.7307 13.9295 50.1902 14.2203C49.6589 14.5203 49.048 14.6713 48.3573 14.6731ZM48.2342 10.4314C48.7196 10.4301 49.1579 10.3076 49.5493 10.0639C49.9406 9.8109 50.2524 9.47875 50.4847 9.06748C50.7262 8.64684 50.8464 8.18919 50.8451 7.69453C50.8438 7.19986 50.7212 6.74751 50.4775 6.33749C50.2431 5.9181 49.9295 5.58759 49.5369 5.34595C49.1442 5.09497 48.7053 4.97012 48.2199 4.9714C47.7253 4.97269 47.2776 5.09987 46.8769 5.35292C46.4762 5.59663 46.1597 5.92413 45.9275 6.33541C45.7046 6.74666 45.5938 7.20428 45.5951 7.70828C45.5964 8.20295 45.7096 8.65999 45.9347 9.0794C46.1691 9.48945 46.4826 9.81996 46.8753 10.0709C47.2772 10.3126 47.7302 10.4327 48.2342 10.4314ZM54.0628 11.5781L54.035 0.980146L55.085 0.977395L55.0969 5.52738L54.8588 5.472C55.0442 4.98618 55.3465 4.60272 55.7658 4.32162C56.1944 4.0405 56.6887 3.8992 57.2487 3.89774C57.7807 3.89634 58.257 4.01643 58.6776 4.25799C59.1076 4.49953 59.4445 4.83465 59.6883 5.26335C59.9414 5.68269 60.0686 6.15835 60.07 6.69035L60.0828 11.5623L59.0328 11.5651L59.0211 7.0991C59.0199 6.64177 58.9349 6.25466 58.766 5.93777C58.5972 5.62087 58.3632 5.37882 58.0641 5.2116C57.7743 5.03503 57.4428 4.94723 57.0694 4.94821C56.6961 4.94919 56.3603 5.03873 56.0621 5.21685C55.7639 5.38563 55.5265 5.63359 55.3501 5.96072C55.1829 6.27849 55.0999 6.66138 55.1011 7.10937L55.1128 11.5754L54.0628 11.5781ZM64.9584 11.6336C64.2864 11.6353 63.7678 11.4407 63.4028 11.0496C63.0378 10.6586 62.8543 10.0991 62.8524 9.37107L62.8412 5.10109L61.4552 5.10472L61.4525 4.05472L61.8025 4.0538C62.1198 4.05297 62.3715 3.94965 62.5577 3.74382C62.7438 3.52867 62.8364 3.26243 62.8356 2.94509L62.8339 2.3151L63.8839 2.31234L63.8885 4.04834L65.5405 4.04401L65.5432 5.09401L63.8912 5.09834L63.9024 9.36832C63.9031 9.62032 63.941 9.84422 64.0162 10.04C64.0913 10.2265 64.2177 10.3755 64.3953 10.487C64.5823 10.5985 64.8298 10.6539 65.1378 10.6531C65.2125 10.6529 65.3011 10.648 65.4037 10.6384C65.5064 10.6288 65.595 10.6192 65.6697 10.6097L65.6721 11.5477C65.5602 11.576 65.4343 11.595 65.2943 11.6047C65.1543 11.6237 65.0424 11.6333 64.9584 11.6336ZM75.0892 11.691C74.3425 11.693 73.6422 11.5595 72.9881 11.2905C72.3341 11.0122 71.759 10.6264 71.2631 10.133C70.7671 9.63967 70.3783 9.06669 70.0966 8.41409C69.8242 7.76147 69.687 7.06182 69.6851 6.31516C69.6831 5.57783 69.8167 4.88681 70.0856 4.2421C70.3639 3.58804 70.7498 3.01302 71.2431 2.51706C71.7365 2.0211 72.3048 1.63228 72.9481 1.35059C73.6007 1.06888 74.305 0.927035 75.061 0.925055C75.8076 0.923098 76.5033 1.06128 77.1481 1.33959C77.8021 1.61787 78.3771 2.0037 78.8731 2.49707C79.3691 2.99044 79.7532 3.56344 80.0256 4.21606C80.3073 4.85932 80.4491 5.54962 80.451 6.28695C80.453 7.04295 80.3149 7.74798 80.0366 8.40204C79.7583 9.04677 79.3724 9.61712 78.8791 10.1131C78.3857 10.609 77.8127 10.9979 77.1601 11.2796C76.5168 11.5519 75.8265 11.6891 75.0892 11.691ZM75.0866 10.711C75.7026 10.7094 76.2763 10.5959 76.8077 10.3705C77.3391 10.1451 77.805 9.83123 78.2053 9.42885C78.6055 9.02646 78.917 8.55898 79.1396 8.02639C79.3622 7.48447 79.4727 6.90552 79.471 6.28952C79.4695 5.68285 79.356 5.11382 79.1306 4.5824C78.9052 4.05099 78.5913 3.58515 78.1889 3.18487C77.7865 2.78459 77.319 2.47314 76.7865 2.25054C76.2538 2.0186 75.6795 1.90344 75.0635 1.90505C74.4475 1.90667 73.8692 2.02018 73.3284 2.2456C72.797 2.47099 72.3312 2.78488 71.9309 3.18726C71.5306 3.58965 71.2192 4.05713 70.9966 4.58972C70.774 5.1223 70.6635 5.69659 70.6651 6.31259C70.6667 6.92859 70.7802 7.50696 71.0056 8.0477C71.231 8.57912 71.5449 9.04496 71.9473 9.44524C72.3497 9.84552 72.8172 10.157 73.3497 10.3796C73.8917 10.6022 74.4706 10.7126 75.0866 10.711ZM75.1668 9.24081C74.6254 9.24222 74.1398 9.1175 73.7098 8.86662C73.2891 8.60639 72.9522 8.25727 72.699 7.81927C72.4552 7.3719 72.3325 6.86822 72.3311 6.30823C72.3296 5.73889 72.4496 5.23458 72.6911 4.79528C72.942 4.35595 73.277 4.00974 73.6964 3.75664C74.1251 3.50352 74.6101 3.37624 75.1514 3.37483C75.5527 3.37377 75.9122 3.44283 76.2299 3.582C76.5569 3.71181 76.8327 3.88842 77.0573 4.11183C77.2819 4.33525 77.4412 4.5775 77.5352 4.83859L76.6683 5.26086C76.5556 4.99049 76.3684 4.75764 76.1065 4.56233C75.854 4.36699 75.5364 4.26982 75.1537 4.27082C74.6124 4.27224 74.1696 4.46007 73.8252 4.83431C73.4809 5.20854 73.3095 5.69899 73.3111 6.30566C73.3127 6.91232 73.4866 7.40654 73.833 7.7883C74.1793 8.16072 74.6231 8.34623 75.1644 8.34481C75.5284 8.34386 75.8408 8.2497 76.1017 8.06235C76.3625 7.875 76.5532 7.6365 76.6738 7.34685L77.5429 7.76458C77.4503 8.02615 77.2922 8.26923 77.0688 8.49382C76.8454 8.71841 76.5705 8.90113 76.2442 9.04198C75.9273 9.17348 75.5681 9.23975 75.1668 9.24081ZM84.5311 11.4983L84.5292 10.7983L87.4328 7.58466C88.0005 6.95784 88.4611 6.43863 88.8147 6.02704C89.1777 5.61542 89.4473 5.24138 89.6238 4.90491C89.8002 4.56845 89.888 4.20422 89.8869 3.81222C89.8853 3.18689 89.702 2.7067 89.3372 2.37165C88.9723 2.03661 88.4865 1.86988 87.8798 1.87147C87.2545 1.87311 86.7276 2.05182 86.2992 2.40761C85.8802 2.76338 85.5968 3.25879 85.4491 3.89385L84.4265 3.67253C84.5464 3.10288 84.7644 2.6123 85.0807 2.20081C85.3969 1.78931 85.7928 1.47094 86.2682 1.24569C86.7436 1.01111 87.2753 0.893051 87.8633 0.891511C88.4886 0.889872 89.0349 1.01444 89.5023 1.26522C89.9696 1.51599 90.3345 1.86037 90.597 2.29835C90.8688 2.73631 91.0054 3.23995 91.0069 3.80928C91.008 4.20128 90.9249 4.5795 90.7579 4.94394C90.6002 5.30835 90.3585 5.70099 90.033 6.12184C89.7074 6.5427 89.2887 7.0338 88.7768 7.59514L86.1385 10.5141L91.3045 10.5005L91.307 11.4805L84.5311 11.4983ZM97.252 11.6329C96.4306 11.6351 95.7067 11.413 95.0802 10.9666C94.463 10.5109 93.9807 9.88218 93.6333 9.08042C93.2858 8.26933 93.1107 7.32712 93.1079 6.25379C93.1051 5.18046 93.2753 4.24201 93.6185 3.43844C93.9617 2.62554 94.4407 1.99428 95.0555 1.54467C95.6704 1.09506 96.3884 0.869174 97.2098 0.867022C98.0311 0.86487 98.7504 1.08699 99.3675 1.53337C99.9847 1.97975 100.467 2.60849 100.814 3.41959C101.162 4.22134 101.337 5.15889 101.34 6.23222C101.343 7.30555 101.172 8.24866 100.829 9.06157C100.495 9.87444 100.021 10.5057 99.4062 10.9553C98.7914 11.4049 98.0733 11.6308 97.252 11.6329ZM97.2492 10.583C97.8466 10.5814 98.3687 10.398 98.8158 10.0328C99.2628 9.66767 99.6115 9.16276 99.8618 8.5181C100.112 7.86411 100.236 7.10311 100.234 6.23512C100.232 5.36712 100.104 4.61145 99.8499 3.96811C99.5962 3.31544 99.2449 2.81236 98.7959 2.45887C98.347 2.09605 97.8192 1.91543 97.2125 1.91702C96.6152 1.91858 96.093 2.10195 95.646 2.46712C95.1989 2.82296 94.8502 3.32788 94.5999 3.98187C94.3496 4.62653 94.2256 5.38286 94.2279 6.25085C94.2301 7.10952 94.3581 7.86518 94.6118 8.51785C94.8655 9.17053 95.2169 9.67827 95.6658 10.0411C96.1241 10.4039 96.6519 10.5845 97.2492 10.583ZM104.901 11.4449L104.877 1.99494L102.917 2.00007L102.914 1.02008L105.994 1.01201L106.021 11.442L104.901 11.4449ZM111.626 11.5953C110.973 11.597 110.394 11.4538 109.889 11.1658C109.385 10.8685 108.987 10.4635 108.696 9.95096C108.405 9.42905 108.259 8.8321 108.257 8.1601C108.256 7.78677 108.297 7.41799 108.381 7.05377C108.473 6.68953 108.607 6.32984 108.784 5.97471C108.969 5.61956 109.192 5.26431 109.453 4.90896L112.383 0.995266L113.727 0.991745L110.113 5.74723L109.903 5.87378C110.043 5.64008 110.206 5.46232 110.392 5.3405C110.578 5.20934 110.783 5.11547 111.007 5.05888C111.24 5.00227 111.488 4.97363 111.749 4.97294C112.356 4.97135 112.902 5.11459 113.388 5.40265C113.874 5.68137 114.258 6.0677 114.539 6.56164C114.83 7.05554 114.976 7.62916 114.978 8.28249C114.979 8.90782 114.832 9.47288 114.534 9.97766C114.246 10.4731 113.851 10.8661 113.347 11.1568C112.844 11.4474 112.27 11.5936 111.626 11.5953ZM111.624 10.6153C112.053 10.6142 112.436 10.5152 112.771 10.3183C113.107 10.1121 113.372 9.83137 113.567 9.47619C113.762 9.12101 113.859 8.72409 113.858 8.28543C113.857 7.83743 113.758 7.44102 113.561 7.0962C113.373 6.75136 113.111 6.48138 112.775 6.28626C112.438 6.08181 112.05 5.98015 111.612 5.9813C111.182 5.98243 110.795 6.08611 110.451 6.29235C110.115 6.48923 109.85 6.76059 109.655 7.10644C109.469 7.45226 109.377 7.84917 109.378 8.29717C109.379 8.73583 109.478 9.13224 109.675 9.48639C109.872 9.84054 110.139 10.1198 110.475 10.3243C110.812 10.5194 111.195 10.6164 111.624 10.6153ZM116.864 8.43155L116.861 7.38156L123.161 7.36505L123.164 8.41504L116.864 8.43155ZM125.082 11.392L125.08 10.692L127.983 7.47841C128.551 6.85159 129.012 6.33238 129.365 5.92079C129.728 5.50917 129.998 5.13513 130.174 4.79866C130.351 4.4622 130.439 4.09797 130.438 3.70597C130.436 3.08064 130.253 2.60045 129.888 2.26541C129.523 1.93036 129.037 1.76363 128.43 1.76522C127.805 1.76686 127.278 1.94557 126.85 2.30136C126.431 2.65713 126.147 3.15254 126 3.7876L124.977 3.56628C125.097 2.99663 125.315 2.50605 125.631 2.09456C125.948 1.68306 126.343 1.36469 126.819 1.13944C127.294 0.904863 127.826 0.786803 128.414 0.785262C129.039 0.783624 129.586 0.908193 130.053 1.15897C130.52 1.40975 130.885 1.75412 131.148 2.1921C131.419 2.63006 131.556 3.1337 131.558 3.70304C131.559 4.09503 131.476 4.47325 131.309 4.83769C131.151 5.20211 130.909 5.59474 130.584 6.0156C130.258 6.43645 129.839 6.92755 129.327 7.48889L126.689 10.4078L131.855 10.3943L131.858 11.3743L125.082 11.392ZM137.803 11.5267C136.981 11.5289 136.257 11.3067 135.631 10.8604C135.014 10.4047 134.531 9.77593 134.184 8.97417C133.836 8.16308 133.661 7.22087 133.659 6.14754C133.656 5.07421 133.826 4.13576 134.169 3.33219C134.512 2.51929 134.991 1.88803 135.606 1.43842C136.221 0.988807 136.939 0.762925 137.76 0.760773C138.582 0.758621 139.301 0.980737 139.918 1.42712C140.535 1.87351 141.018 2.50224 141.365 3.31334C141.713 4.1151 141.888 5.05264 141.89 6.12597C141.893 7.1993 141.723 8.14242 141.38 8.95532C141.046 9.7682 140.572 10.3994 139.957 10.8491C139.342 11.2987 138.624 11.5245 137.803 11.5267ZM137.8 10.4767C138.397 10.4751 138.919 10.2918 139.366 9.9266C139.813 9.56142 140.162 9.05651 140.412 8.41185C140.663 7.75786 140.787 6.99686 140.784 6.12887C140.782 5.26087 140.654 4.5052 140.401 3.86187C140.147 3.2092 139.796 2.70611 139.347 2.35262C138.898 1.9898 138.37 1.80918 137.763 1.81077C137.166 1.81233 136.644 1.9957 136.197 2.36088C135.75 2.71672 135.401 3.22163 135.151 3.87562C134.9 4.52028 134.776 5.27661 134.779 6.1446C134.781 7.00327 134.909 7.75894 135.162 8.41161C135.416 9.06428 135.767 9.57203 136.216 9.93485C136.675 10.2977 137.203 10.4783 137.8 10.4767ZM143.73 11.3432L143.728 10.6432L146.632 7.42955C147.2 6.80273 147.66 6.28352 148.014 5.87193C148.377 5.46031 148.646 5.08627 148.823 4.7498C148.999 4.41334 149.087 4.04911 149.086 3.65711C149.084 3.03178 148.901 2.55159 148.536 2.21654C148.171 1.8815 147.686 1.71477 147.079 1.71636C146.454 1.718 145.927 1.89671 145.498 2.2525C145.079 2.60827 144.796 3.10368 144.648 3.73874L143.626 3.51742C143.745 2.94777 143.963 2.45719 144.28 2.0457C144.596 1.6342 144.992 1.31583 145.467 1.09058C145.943 0.856001 146.474 0.737941 147.062 0.736401C147.688 0.734762 148.234 0.859331 148.701 1.11011C149.169 1.36088 149.534 1.70526 149.796 2.14324C150.068 2.5812 150.204 3.08484 150.206 3.65417C150.207 4.04617 150.124 4.42439 149.957 4.78883C149.799 5.15324 149.558 5.54588 149.232 5.96673C148.906 6.38759 148.488 6.87869 147.976 7.44003L145.337 10.359L150.503 10.3454L150.506 11.3254L143.73 11.3432ZM155.429 11.4805C154.888 11.4819 154.388 11.3899 153.93 11.2044C153.472 11.019 153.07 10.754 152.724 10.4096C152.387 10.0651 152.13 9.65515 151.951 9.17962L152.846 8.75727C153.062 9.29804 153.399 9.7265 153.857 10.0426C154.315 10.3494 154.838 10.5021 155.426 10.5005C155.893 10.4993 156.308 10.4095 156.672 10.2313C157.035 10.0436 157.319 9.77689 157.524 9.43102C157.728 9.08515 157.83 8.66488 157.828 8.17022C157.827 7.67555 157.719 7.25584 157.503 6.91107C157.297 6.56627 157.011 6.30569 156.647 6.12931C156.283 5.95293 155.867 5.86535 155.4 5.86657C155.279 5.86689 155.144 5.87191 154.994 5.88164C154.854 5.89134 154.738 5.90564 154.644 5.92455L154.419 5.43514L157.224 1.85778L152.422 1.87036L152.419 0.890365L158.481 0.874481L158.484 1.85448L155.86 5.17936L155.72 4.99773C156.345 5.01476 156.901 5.16264 157.387 5.44136C157.873 5.71076 158.252 6.07843 158.524 6.54439C158.805 7.01032 158.947 7.55129 158.948 8.16728C158.95 8.78328 158.802 9.34367 158.505 9.84845C158.207 10.3439 157.793 10.7417 157.262 11.0417C156.731 11.3324 156.12 11.4787 155.429 11.4805ZM168.215 11.447C167.478 11.4489 166.801 11.3201 166.184 11.0603C165.567 10.7913 165.03 10.4194 164.571 9.94456C164.122 9.4604 163.77 8.89198 163.517 8.23931C163.263 7.58664 163.135 6.86831 163.133 6.08431C163.131 5.30031 163.255 4.58132 163.505 3.92733C163.756 3.27334 164.104 2.70309 164.551 2.21658C165.007 1.73005 165.543 1.35531 166.158 1.09237C166.773 0.820089 167.45 0.682983 168.187 0.681051C168.896 0.679193 169.531 0.803529 170.092 1.05406C170.662 1.30457 171.139 1.62999 171.522 2.03032C171.915 2.42129 172.197 2.83589 172.366 3.27411L171.317 3.73886C171.054 3.13288 170.651 2.6486 170.109 2.28602C169.576 1.91408 168.936 1.72909 168.19 1.73105C167.424 1.73305 166.743 1.91684 166.147 2.2824C165.551 2.64797 165.085 3.15785 164.751 3.81206C164.417 4.45694 164.251 5.21338 164.253 6.08138C164.255 6.94004 164.425 7.6956 164.763 8.34805C165.101 9.0005 165.569 9.50794 166.167 9.87038C166.765 10.2235 167.447 10.399 168.212 10.397C168.959 10.3951 169.598 10.2114 170.129 9.84599C170.669 9.48058 171.069 8.99419 171.329 8.38684L172.38 8.84609C172.213 9.27586 171.935 9.69193 171.544 10.0943C171.162 10.4873 170.687 10.8105 170.118 11.064C169.559 11.3175 168.924 11.4452 168.215 11.447ZM177.616 11.4224C176.907 11.4242 176.262 11.2579 175.683 10.9234C175.103 10.5796 174.64 10.1142 174.293 9.52708C173.955 8.93063 173.786 8.25441 173.784 7.49841C173.782 6.75175 173.948 6.08398 174.282 5.4951C174.617 4.90622 175.068 4.44303 175.637 4.10554C176.214 3.75869 176.867 3.58432 177.595 3.58241C178.323 3.5805 178.972 3.7468 179.543 4.08131C180.122 4.41579 180.576 4.8766 180.904 5.46375C181.242 6.05086 181.412 6.72242 181.414 7.47842C181.416 8.24375 181.245 8.92553 180.901 9.52377C180.557 10.1127 180.096 10.5759 179.519 10.9134C178.95 11.2509 178.316 11.4205 177.616 11.4224ZM177.613 10.3724C178.117 10.3711 178.569 10.2439 178.97 9.99083C179.38 9.73775 179.701 9.39158 179.933 8.9523C180.175 8.513 180.295 8.02268 180.294 7.48135C180.292 6.94002 180.17 6.45501 179.926 6.02631C179.691 5.59759 179.368 5.25777 178.957 5.00685C178.555 4.7559 178.102 4.63109 177.598 4.63241C177.094 4.63373 176.637 4.76092 176.227 5.014C175.826 5.26705 175.505 5.60856 175.264 6.03853C175.022 6.46849 174.902 6.95414 174.904 7.49548C174.905 8.03681 175.028 8.52649 175.271 8.96452C175.515 9.40255 175.838 9.74704 176.24 9.99798C176.651 10.2489 177.109 10.3737 177.613 10.3724ZM183.275 11.2396L183.256 3.73558L184.306 3.73283L184.309 5.18882L184.071 5.13345C184.257 4.64763 184.559 4.26417 184.978 3.98307C185.407 3.70194 185.901 3.56065 186.461 3.55918C186.993 3.55779 187.469 3.67787 187.89 3.91944C188.32 4.16098 188.657 4.4961 188.901 4.92479C189.154 5.34413 189.281 5.8198 189.282 6.3518L189.295 11.2238L188.245 11.2265L188.234 6.76055C188.232 6.30322 188.147 5.9161 187.978 5.59921C187.819 5.28229 187.59 5.04023 187.291 4.87301C187.001 4.69644 186.665 4.60865 186.282 4.60965C185.899 4.61066 185.559 4.70021 185.261 4.87833C184.962 5.04711 184.73 5.29506 184.563 5.62216C184.395 5.93993 184.312 6.32282 184.314 6.77082L184.325 11.2368L183.275 11.2396ZM193.905 11.3797C193.186 11.3816 192.556 11.2012 192.014 10.8387C191.471 10.4761 191.078 9.98244 190.834 9.35774L191.715 8.93543C191.93 9.3922 192.23 9.75542 192.613 10.0251C193.006 10.2947 193.436 10.4289 193.903 10.4277C194.351 10.4265 194.728 10.3182 195.036 10.1027C195.343 9.87793 195.496 9.58819 195.495 9.23353C195.495 8.9722 195.42 8.76706 195.27 8.61812C195.12 8.45984 194.947 8.33896 194.751 8.25548C194.555 8.17199 194.382 8.11178 194.232 8.07483L193.154 7.76966C192.462 7.57547 191.962 7.30145 191.653 6.94759C191.344 6.59373 191.189 6.18347 191.188 5.7168C191.187 5.27814 191.298 4.89518 191.521 4.56793C191.744 4.24067 192.047 3.98788 192.429 3.80954C192.811 3.63121 193.236 3.54143 193.702 3.54021C194.337 3.53854 194.912 3.70504 195.426 4.03969C195.949 4.36499 196.319 4.82135 196.535 5.40879L195.64 5.83114C195.453 5.41163 195.181 5.08567 194.826 4.85327C194.48 4.61151 194.092 4.49119 193.663 4.49231C193.243 4.49341 192.907 4.60163 192.656 4.81695C192.404 5.03228 192.279 5.30328 192.28 5.62994C192.281 5.88194 192.346 6.08244 192.478 6.23143C192.609 6.38042 192.758 6.49202 192.926 6.56625C193.104 6.64045 193.258 6.69605 193.389 6.73304L194.636 7.09377C195.243 7.26952 195.715 7.54361 196.052 7.91607C196.398 8.28849 196.572 8.72671 196.573 9.2307C196.574 9.64137 196.459 10.0103 196.226 10.3376C196.003 10.6649 195.691 10.9224 195.29 11.1101C194.889 11.2885 194.428 11.3783 193.905 11.3797ZM201.084 11.3609C200.561 11.3623 200.085 11.2422 199.655 11.0006C199.225 10.7498 198.884 10.4053 198.63 9.96732C198.387 9.51995 198.264 9.00694 198.262 8.42828L198.25 3.69629L199.3 3.69354L199.312 8.29953C199.313 8.70086 199.393 9.05531 199.553 9.3629C199.722 9.66112 199.951 9.89386 200.241 10.0611C200.54 10.2283 200.881 10.3114 201.263 10.3104C201.646 10.3094 201.986 10.2245 202.285 10.0557C202.583 9.87763 202.816 9.62968 202.983 9.31191C203.15 8.98481 203.233 8.59725 203.232 8.14925L203.22 3.68327L204.27 3.68052L204.29 11.1845L203.24 11.1872L203.236 9.73125L203.474 9.78663C203.298 10.2724 202.996 10.6559 202.567 10.937C202.138 11.2181 201.644 11.3594 201.084 11.3609ZM206.449 11.1788L206.421 0.580872L207.471 0.57812L207.499 11.1761L206.449 11.1788ZM212.518 11.2469C211.846 11.2487 211.328 11.0541 210.963 10.663C210.598 10.272 210.414 9.71244 210.412 8.98444L210.401 4.71446L209.015 4.71809L209.013 3.66809L209.363 3.66718C209.68 3.66634 209.932 3.56302 210.118 3.3572C210.304 3.14204 210.396 2.8758 210.396 2.55847L210.394 1.92847L211.444 1.92572L211.449 3.66171L213.101 3.65738L213.103 4.70738L211.451 4.71171L211.462 8.98169C211.463 9.23369 211.501 9.45759 211.576 9.6534C211.651 9.83987 211.778 9.98887 211.955 10.1004C212.142 10.2119 212.39 10.2673 212.698 10.2665C212.772 10.2663 212.861 10.2614 212.964 10.2518C213.066 10.2422 213.155 10.2326 213.23 10.2231L213.232 11.1611C213.12 11.1894 212.994 11.2084 212.854 11.2181C212.714 11.2371 212.602 11.2467 212.518 11.2469ZM215.076 11.1562L215.056 3.65226L216.106 3.64951L216.126 11.1535L215.076 11.1562ZM215.053 2.26626L215.049 0.726267L216.099 0.723516L216.103 2.26351L215.053 2.26626ZM218.275 11.1478L218.255 3.64387L219.305 3.64112L219.309 5.09712L219.071 5.04174C219.257 4.55592 219.559 4.17246 219.978 3.89136C220.407 3.61024 220.901 3.46894 221.461 3.46748C221.993 3.46608 222.469 3.58617 222.89 3.82773C223.32 4.06927 223.657 4.40439 223.901 4.83309C224.154 5.25243 224.281 5.72809 224.282 6.26009L224.295 11.1321L223.245 11.1348L223.233 6.66884C223.232 6.21151 223.147 5.8244 222.978 5.50751C222.819 5.19059 222.59 4.94852 222.29 4.78131C222.001 4.60473 221.664 4.51695 221.282 4.51795C220.899 4.51895 220.559 4.60851 220.26 4.78663C219.962 4.95541 219.73 5.20335 219.562 5.53046C219.395 5.84823 219.312 6.23111 219.313 6.67911L219.325 11.1451L218.275 11.1478ZM229.865 14.1975C229.351 14.1988 228.875 14.1208 228.436 13.9632C228.006 13.8057 227.632 13.5873 227.314 13.3082C227.005 13.0383 226.767 12.7216 226.598 12.358L227.562 11.8375C227.713 12.1918 227.979 12.4991 228.363 12.7594C228.746 13.0198 229.236 13.1491 229.834 13.1476C230.291 13.1464 230.711 13.0566 231.093 12.8783C231.475 12.6999 231.783 12.4378 232.015 12.0919C232.247 11.7459 232.363 11.3209 232.362 10.8169L232.357 9.15095L232.526 9.3045C232.266 9.84652 231.88 10.2675 231.367 10.5675C230.854 10.8582 230.295 11.0044 229.688 11.0059C228.988 11.0078 228.358 10.8414 227.797 10.5069C227.236 10.1724 226.791 9.72086 226.463 9.15239C226.144 8.57455 225.984 7.93564 225.982 7.23564C225.98 6.52631 226.137 5.88656 226.453 5.3164C226.778 4.74621 227.216 4.2924 227.766 3.95496C228.325 3.61749 228.959 3.44783 229.668 3.44597C230.275 3.44438 230.826 3.58294 231.321 3.86164C231.826 4.14032 232.224 4.51728 232.514 4.99252L232.347 5.28696L232.343 3.60696L233.393 3.60421L233.412 10.8142C233.413 11.4582 233.261 12.0326 232.954 12.5374C232.657 13.0515 232.238 13.4539 231.697 13.7447C231.166 14.0447 230.555 14.1957 229.865 14.1975ZM229.741 9.9558C230.227 9.95453 230.665 9.83205 231.056 9.58835C231.448 9.33533 231.76 9.00318 231.992 8.5919C232.233 8.17127 232.354 7.71362 232.352 7.21895C232.351 6.72429 232.228 6.27194 231.985 5.86191C231.75 5.44252 231.437 5.11201 231.044 4.87037C230.651 4.6194 230.212 4.49455 229.727 4.49582C229.232 4.49712 228.785 4.62429 228.384 4.87734C227.983 5.12106 227.667 5.44855 227.435 5.85983C227.212 6.27108 227.101 6.72871 227.102 7.23271C227.104 7.72737 227.217 8.18441 227.442 8.60382C227.676 9.01388 227.99 9.34439 228.382 9.59536C228.784 9.83698 229.237 9.95712 229.741 9.9558ZM240.567 11.2574C240.007 11.2589 239.508 11.1529 239.068 10.9394C238.629 10.7259 238.283 10.4234 238.03 10.0321C237.777 9.64075 237.65 9.18374 237.648 8.66108C237.647 8.21308 237.73 7.8162 237.897 7.47042C238.064 7.12465 238.269 6.82545 238.511 6.57281C238.762 6.31082 239.014 6.09083 239.265 5.91283C239.526 5.73482 239.745 5.58958 239.922 5.47711L240.649 5.02721C240.91 4.86785 241.166 4.68985 241.418 4.49319C241.678 4.28717 241.892 4.05328 242.06 3.7915C242.236 3.52037 242.324 3.22148 242.323 2.89481C242.322 2.50281 242.191 2.17649 241.929 1.91584C241.667 1.65519 241.34 1.52538 240.948 1.52641C240.546 1.52746 240.215 1.659 239.955 1.92101C239.704 2.18301 239.578 2.51467 239.579 2.916C239.58 3.17733 239.641 3.43384 239.763 3.68552C239.895 3.93718 240.054 4.17943 240.241 4.41227C240.438 4.63576 240.639 4.85456 240.845 5.06869L246.601 11.0736L245.103 11.0776L239.965 5.799C239.74 5.56625 239.511 5.31019 239.277 5.0308C239.052 4.74205 238.86 4.42989 238.701 4.09431C238.541 3.74939 238.461 3.3716 238.46 2.96093C238.458 2.4756 238.569 2.05064 238.792 1.68606C239.015 1.31214 239.313 1.02203 239.686 0.815714C240.068 0.600046 240.488 0.491612 240.945 0.490414C241.393 0.48924 241.804 0.590831 242.178 0.795185C242.552 0.999539 242.851 1.28342 243.076 1.64683C243.301 2.01025 243.414 2.42528 243.415 2.89195C243.417 3.38661 243.301 3.82092 243.069 4.19486C242.846 4.55945 242.571 4.87284 242.245 5.13502C241.919 5.39721 241.617 5.61734 241.337 5.79541L240.638 6.23124C240.387 6.39056 240.121 6.58259 239.842 6.80733C239.562 7.02273 239.325 7.28002 239.13 7.57919C238.934 7.86904 238.837 8.2193 238.838 8.62996C238.84 9.13396 239.004 9.52553 239.331 9.80467C239.659 10.0838 240.079 10.2227 240.593 10.2214C240.929 10.2205 241.227 10.1637 241.488 10.051C241.749 9.93834 241.982 9.79306 242.187 9.61519C242.392 9.42799 242.578 9.22217 242.745 8.99773C242.913 8.76395 243.071 8.53487 243.22 8.31048L244.823 5.91227L246.097 5.90893L244.229 8.76984C244.08 9.00356 243.899 9.26537 243.685 9.55527C243.471 9.83583 243.22 10.1072 242.931 10.3692C242.642 10.622 242.302 10.8329 241.911 11.0019C241.528 11.1709 241.081 11.2561 240.567 11.2574ZM249.685 11.0656L253.466 0.625608L254.67 0.622454L258.505 11.0424L257.329 11.0455L256.426 8.49988L251.764 8.51209L250.861 11.0625L249.685 11.0656ZM252.126 7.46114L256.032 7.45091L253.902 1.46447L254.238 1.46359L252.126 7.46114ZM259.742 11.0392L259.722 3.53523L260.772 3.53248L260.776 4.98847L260.538 4.93309C260.723 4.44727 261.025 4.06381 261.445 3.78271C261.873 3.50159 262.368 3.36029 262.928 3.35883C263.46 3.35743 263.936 3.47752 264.357 3.71908C264.787 3.96062 265.123 4.29574 265.367 4.72444C265.62 5.14378 265.748 5.61945 265.749 6.15144L265.762 11.0234L264.712 11.0262L264.7 6.56019C264.699 6.10286 264.614 5.71575 264.445 5.39886C264.285 5.08194 264.056 4.83987 263.757 4.67266C263.467 4.49608 263.131 4.4083 262.748 4.4093C262.366 4.4103 262.025 4.49986 261.727 4.67798C261.429 4.84676 261.196 5.0947 261.029 5.42181C260.862 5.73958 260.779 6.12247 260.78 6.57046L260.792 11.0364L259.742 11.0392ZM269.938 11.1805C269.462 11.1817 269.037 11.0942 268.663 10.9178C268.289 10.7321 267.994 10.4809 267.779 10.1641C267.563 9.84737 267.455 9.48365 267.454 9.07299C267.453 8.68099 267.536 8.3261 267.703 8.00833C267.87 7.68122 268.131 7.40521 268.485 7.18028C268.839 6.95535 269.291 6.7955 269.842 6.70072L272.781 6.20302L272.783 7.15502L270.096 7.61006C269.555 7.70481 269.164 7.8785 268.922 8.13114C268.689 8.38375 268.573 8.68272 268.574 9.02805C268.575 9.36405 268.706 9.64837 268.968 9.88102C269.239 10.1136 269.585 10.2294 270.005 10.2283C270.518 10.227 270.966 10.1185 271.348 9.90279C271.73 9.67778 272.028 9.37834 272.242 9.00444C272.456 8.63055 272.562 8.21493 272.561 7.7576L272.556 5.85361C272.554 5.40561 272.39 5.04204 272.063 4.7629C271.735 4.48375 271.31 4.34487 270.788 4.34624C270.33 4.34743 269.929 4.46515 269.585 4.69939C269.24 4.92429 268.984 5.21896 268.817 5.5834L267.864 5.0679C268.003 4.7502 268.221 4.46029 268.519 4.19818C268.827 3.93604 269.176 3.72979 269.568 3.57943C269.959 3.41974 270.365 3.33934 270.785 3.33824C271.336 3.3368 271.821 3.44286 272.242 3.65642C272.672 3.86996 273.004 4.16776 273.238 4.54982C273.482 4.92251 273.604 5.35619 273.606 5.85086L273.619 11.0028L272.569 11.0056L272.565 9.5076L272.72 9.66119C272.59 9.94153 272.385 10.1987 272.106 10.4328C271.836 10.6575 271.514 10.8404 271.141 10.9813C270.777 11.113 270.376 11.1793 269.938 11.1805ZM275.779 10.9972L275.751 0.399217L276.801 0.396466L276.829 10.9944L275.779 10.9972ZM279.14 14.0684C278.991 14.0688 278.837 14.0552 278.678 14.0276C278.529 14.0093 278.379 13.9724 278.23 13.9168L278.227 12.9368C278.32 12.9459 278.437 12.9596 278.577 12.9779C278.727 13.0055 278.876 13.0191 279.025 13.0187C279.483 13.0175 279.832 12.9186 280.075 12.7219C280.317 12.5346 280.554 12.17 280.786 11.6281L281.259 10.5068L281.233 11.4309L278.034 3.48725L279.168 3.48427L281.79 10.0434L281.496 10.0442L284.068 3.47144L285.23 3.46839L281.823 11.9333C281.674 12.2977 281.484 12.6436 281.251 12.9708C281.028 13.2981 280.744 13.5602 280.399 13.7571C280.054 13.9633 279.635 14.0671 279.14 14.0684ZM289.354 11.0456C288.682 11.0474 288.164 10.8527 287.799 10.4617C287.434 10.0706 287.25 9.51112 287.248 8.78312L287.237 4.51314L285.851 4.51677L285.848 3.46677L286.198 3.46585C286.516 3.46502 286.767 3.3617 286.953 3.15588C287.139 2.94072 287.232 2.67448 287.231 2.35714L287.23 1.72715L288.28 1.7244L288.284 3.46039L289.936 3.45606L289.939 4.50606L288.287 4.51039L288.298 8.78037C288.299 9.03237 288.337 9.25627 288.412 9.45208C288.487 9.63855 288.613 9.78755 288.791 9.89908C288.978 10.0106 289.225 10.0659 289.533 10.0651C289.608 10.0649 289.697 10.06 289.799 10.0504C289.902 10.0408 289.991 10.0313 290.065 10.0217L290.068 10.9597C289.956 10.988 289.83 11.007 289.69 11.0167C289.55 11.0358 289.438 11.0454 289.354 11.0456ZM291.912 10.9549L291.892 3.45094L292.942 3.44819L292.962 10.9522L291.912 10.9549ZM291.888 2.06494L291.884 0.524946L292.934 0.522195L292.938 2.06219L291.888 2.06494ZM298.541 11.1055C297.804 11.1075 297.155 10.9365 296.594 10.5926C296.033 10.2488 295.593 9.78326 295.274 9.19609C294.955 8.59959 294.795 7.92801 294.793 7.18135C294.791 6.43468 294.948 5.76694 295.264 5.17811C295.579 4.58928 296.017 4.12613 296.576 3.78866C297.135 3.44186 297.783 3.2675 298.521 3.26557C298.987 3.26434 299.426 3.3472 299.837 3.51412C300.248 3.68104 300.613 3.90875 300.931 4.19725C301.249 4.47642 301.488 4.80246 301.648 5.17538L300.697 5.66787C300.509 5.26703 300.224 4.94111 299.84 4.69011C299.457 4.43912 299.018 4.31427 298.523 4.31556C298.029 4.31686 297.581 4.44403 297.18 4.69708C296.789 4.94078 296.477 5.28226 296.245 5.72154C296.022 6.15146 295.912 6.64175 295.913 7.19241C295.914 7.73375 296.028 8.22345 296.253 8.66153C296.487 9.09025 296.801 9.4301 297.193 9.68107C297.595 9.93201 298.044 10.0568 298.538 10.0555C299.033 10.0542 299.467 9.92711 299.839 9.67413C300.221 9.42113 300.51 9.08438 300.705 8.66386L301.658 9.17937C301.5 9.54378 301.263 9.87107 300.947 10.1612C300.63 10.4514 300.267 10.681 299.857 10.8501C299.446 11.0192 299.008 11.1043 298.541 11.1055ZM306.11 11.0857C305.391 11.0876 304.761 10.9072 304.218 10.5447C303.676 10.1821 303.283 9.68845 303.038 9.06375L303.919 8.64144C304.135 9.09821 304.435 9.46143 304.818 9.73109C305.211 10.0007 305.641 10.1349 306.107 10.1337C306.555 10.1325 306.933 10.0242 307.24 9.80874C307.548 9.58394 307.701 9.2942 307.7 8.93954C307.699 8.6782 307.624 8.47307 307.474 8.32412C307.325 8.16585 307.152 8.04497 306.956 7.96148C306.759 7.878 306.586 7.81778 306.437 7.78084L305.358 7.47567C304.667 7.28148 304.167 7.00745 303.858 6.65359C303.549 6.29974 303.394 5.88947 303.393 5.42281C303.392 4.98414 303.503 4.60119 303.726 4.27393C303.949 3.94668 304.252 3.69389 304.634 3.51555C305.016 3.33722 305.441 3.24744 305.907 3.24621C306.542 3.24455 307.116 3.41105 307.63 3.7457C308.154 4.071 308.524 4.52736 308.74 5.1148L307.845 5.53714C307.657 5.11763 307.386 4.79168 307.031 4.55927C306.685 4.31751 306.297 4.1972 305.868 4.19832C305.448 4.19942 305.112 4.30763 304.861 4.52296C304.609 4.73829 304.484 5.00928 304.485 5.33595C304.485 5.58795 304.551 5.78844 304.682 5.93743C304.813 6.08642 304.963 6.19803 305.131 6.27226C305.309 6.34646 305.463 6.40206 305.594 6.43905L306.84 6.79978C307.448 6.97552 307.92 7.24962 308.257 7.62207C308.603 7.9945 308.777 8.43271 308.778 8.93671C308.779 9.34738 308.663 9.71635 308.431 10.0436C308.208 10.3709 307.896 10.6284 307.495 10.8161C307.094 10.9945 306.632 11.0843 306.11 11.0857ZM317.922 11.0548C317.184 11.0567 316.507 10.9278 315.891 10.6681C315.274 10.399 314.736 10.0271 314.278 9.5523C313.828 9.06815 313.477 8.49973 313.223 7.84706C312.969 7.19439 312.842 6.47606 312.84 5.69206C312.837 4.90806 312.962 4.18907 313.212 3.53508C313.462 2.88108 313.811 2.31084 314.257 1.82433C314.713 1.3378 315.249 0.963062 315.864 0.700115C316.48 0.427836 317.156 0.29073 317.893 0.288798C318.603 0.28694 319.238 0.411276 319.798 0.661808C320.368 0.912316 320.845 1.23773 321.229 1.63806C321.622 2.02903 321.903 2.44363 322.072 2.88186L321.023 3.34661C320.761 2.74063 320.358 2.25635 319.816 1.89377C319.283 1.52183 318.643 1.33684 317.896 1.33879C317.131 1.3408 316.45 1.52458 315.854 1.89015C315.257 2.25571 314.792 2.7656 314.458 3.41981C314.123 4.06469 313.957 4.82113 313.96 5.68912C313.962 6.54779 314.132 7.30335 314.469 7.9558C314.807 8.60825 315.275 9.11569 315.873 9.47812C316.472 9.83122 317.154 10.0068 317.919 10.0048C318.666 10.0028 319.304 9.81913 319.835 9.45374C320.376 9.08832 320.776 8.60194 321.036 7.99459L322.087 8.45384C321.92 8.88361 321.641 9.29968 321.25 9.70204C320.868 10.095 320.393 10.4183 319.825 10.6718C319.265 10.9252 318.631 11.0529 317.922 11.0548ZM323.945 10.871L323.917 0.273016L324.967 0.270265L324.995 10.8682L323.945 10.871ZM329.804 11.0236C329.282 11.025 328.805 10.9049 328.375 10.6634C327.945 10.4125 327.604 10.0681 327.351 9.63005C327.107 9.18269 326.984 8.66967 326.983 8.09101L326.97 3.35903L328.02 3.35628L328.032 7.96226C328.033 8.36359 328.114 8.71805 328.273 9.02563C328.442 9.32386 328.671 9.55659 328.961 9.72383C329.26 9.89105 329.601 9.97416 329.984 9.97315C330.366 9.97215 330.707 9.88726 331.005 9.71848C331.303 9.54036 331.536 9.29242 331.703 8.97465C331.87 8.64754 331.953 8.25999 331.952 7.81199L331.94 3.346L332.99 3.34325L333.01 10.8472L331.96 10.85L331.956 9.39398L332.194 9.44936C332.018 9.93516 331.716 10.3186 331.287 10.5997C330.859 10.8809 330.364 11.0222 329.804 11.0236ZM338.964 10.9996C338.32 11.0013 337.736 10.8582 337.213 10.5702C336.698 10.2729 336.31 9.85391 336.047 9.31326L336.215 9.15882L336.219 10.8388L335.169 10.8416L335.141 0.243606L336.191 0.240855L336.204 5.01484L336.035 4.72128C336.333 4.2445 336.728 3.86546 337.222 3.58417C337.725 3.30285 338.299 3.16134 338.943 3.15965C339.652 3.1578 340.283 3.32881 340.834 3.6727C341.395 4.00723 341.835 4.46808 342.154 5.05525C342.482 5.64239 342.647 6.31396 342.649 7.06996C342.651 7.81662 342.49 8.48905 342.165 9.08723C341.849 9.67606 341.411 10.1439 340.852 10.4907C340.303 10.8281 339.673 10.9978 338.964 10.9996ZM338.905 9.94978C339.409 9.94846 339.857 9.82128 340.248 9.56826C340.649 9.31521 340.96 8.97372 341.183 8.5438C341.415 8.10453 341.531 7.61422 341.529 7.07289C341.528 6.52223 341.41 6.03253 341.176 5.60381C340.95 5.17507 340.637 4.83522 340.235 4.58428C339.842 4.3333 339.394 4.20848 338.89 4.2098C338.386 4.21112 337.929 4.33832 337.519 4.59139C337.118 4.84444 336.797 5.19062 336.556 5.62992C336.323 6.05986 336.208 6.5455 336.209 7.08683C336.211 7.62816 336.329 8.11786 336.563 8.55591C336.807 8.98461 337.13 9.32443 337.532 9.57537C337.943 9.8263 338.401 9.9511 338.905 9.94978ZM344.554 12.637L344.553 12.147C344.832 12.0716 345.037 11.9264 345.167 11.7114C345.298 11.4964 345.362 11.1975 345.361 10.8149L344.829 10.8163L344.825 9.27626L345.945 9.27333L345.948 10.4493C345.95 11.056 345.834 11.5416 345.602 11.9062C345.37 12.2802 345.02 12.5238 344.554 12.637ZM350.813 10.8006L350.786 0.370615L351.906 0.36768L351.933 10.7976L350.813 10.8006ZM354.395 10.7912L354.368 0.361229L355.488 0.358295L355.515 10.7883L354.395 10.7912ZM359.783 10.7771L359.759 1.39711L356.875 1.40467L356.872 0.354668L363.732 0.336694L363.735 1.38669L360.879 1.39417L360.903 10.7741L359.783 10.7771ZM372.281 10.9123C371.543 10.9143 370.866 10.7854 370.25 10.5257C369.633 10.2566 369.095 9.88467 368.637 9.40987C368.188 8.92572 367.836 8.3573 367.582 7.70463C367.329 7.05196 367.201 6.33363 367.199 5.54963C367.197 4.76563 367.321 4.04664 367.571 3.39265C367.821 2.73866 368.17 2.16841 368.617 1.6819C369.073 1.19537 369.608 0.820633 370.224 0.557686C370.839 0.285407 371.515 0.148301 372.253 0.146369C372.962 0.144511 373.597 0.268847 374.158 0.519379C374.728 0.769887 375.204 1.09531 375.588 1.49563C375.981 1.88661 376.262 2.3012 376.431 2.73943L375.425 3.23207C375.162 2.59809 374.759 2.09981 374.217 1.73723C373.674 1.37465 373.021 1.19436 372.255 1.19637C371.49 1.19837 370.809 1.38216 370.213 1.74772C369.616 2.11328 369.151 2.62317 368.817 3.27738C368.482 3.92226 368.316 4.6787 368.319 5.5467C368.321 6.40536 368.491 7.16092 368.829 7.81337C369.166 8.46582 369.634 8.97326 370.233 9.33569C370.831 9.68879 371.513 9.86434 372.278 9.86234C372.959 9.86055 373.57 9.70962 374.111 9.40953C374.661 9.10942 375.094 8.70229 375.41 8.18812C375.726 7.66463 375.883 7.06688 375.881 6.39488L375.879 5.82089L376.385 6.32356L372.269 6.33435L372.266 5.35435L376.998 5.34195L377.001 6.20995C377.002 6.89128 376.883 7.5216 376.641 8.1009C376.4 8.67086 376.066 9.16641 375.637 9.58753C375.209 10.0087 374.706 10.3366 374.128 10.5715C373.559 10.797 372.943 10.9106 372.281 10.9123ZM381.525 10.8881C381.002 10.8895 380.526 10.7694 380.096 10.5279C379.666 10.277 379.324 9.93254 379.071 9.49454C378.827 9.04717 378.705 8.53416 378.703 7.95549L378.691 3.22351L379.741 3.22076L379.753 7.82674C379.754 8.22808 379.834 8.58253 379.994 8.89012C380.162 9.18834 380.392 9.42108 380.681 9.58832C380.981 9.75553 381.321 9.83864 381.704 9.83764C382.087 9.83664 382.427 9.75174 382.725 9.58296C383.024 9.40485 383.256 9.1569 383.423 8.83913C383.591 8.51202 383.674 8.12447 383.672 7.67647L383.661 3.21049L384.711 3.20774L384.73 10.7117L383.68 10.7145L383.677 9.25847L383.915 9.31384C383.739 9.79964 383.436 10.1831 383.008 10.4642C382.579 10.7453 382.085 10.8866 381.525 10.8881ZM388.542 10.7017L385.946 3.2045L387.136 3.20138L389.281 9.76178L388.861 9.76289L390.846 3.19166L391.896 3.18891L393.915 9.74964L393.495 9.75074L395.62 3.17915L396.796 3.17607L394.24 10.6868L393.19 10.6895L391.227 4.26867L391.521 4.2679L389.592 10.699L388.542 10.7017ZM399.943 10.8399C399.467 10.8411 399.042 10.7535 398.668 10.5772C398.294 10.3915 398 10.1403 397.784 9.82351C397.569 9.50674 397.461 9.14302 397.459 8.73235C397.458 8.34035 397.541 7.98547 397.709 7.6677C397.876 7.34059 398.136 7.06457 398.49 6.83965C398.845 6.61472 399.297 6.45486 399.847 6.36009L402.786 5.86239L402.788 6.81438L400.102 7.26943C399.561 7.36418 399.169 7.53787 398.927 7.7905C398.694 8.04312 398.578 8.34209 398.579 8.68742C398.58 9.02342 398.712 9.30774 398.974 9.54039C399.245 9.77301 399.59 9.88877 400.01 9.88767C400.524 9.88633 400.972 9.77782 401.354 9.56215C401.736 9.33715 402.034 9.0377 402.247 8.66381C402.461 8.28991 402.567 7.8743 402.566 7.41697L402.561 5.51298C402.56 5.06498 402.396 4.70141 402.068 4.42226C401.741 4.14312 401.316 4.00423 400.793 4.0056C400.336 4.0068 399.935 4.12452 399.59 4.35876C399.245 4.58366 398.989 4.87833 398.822 5.24277L397.869 4.72727C398.008 4.40957 398.227 4.11966 398.525 3.85755C398.832 3.59541 399.181 3.38916 399.573 3.2388C399.965 3.0791 400.37 2.99871 400.79 2.99761C401.341 2.99616 401.827 3.10222 402.247 3.31579C402.677 3.52933 403.009 3.82713 403.244 4.20918C403.487 4.58188 403.61 5.01556 403.611 5.51022L403.625 10.6622L402.575 10.665L402.571 9.16696L402.725 9.32056C402.595 9.6009 402.39 9.8581 402.111 10.0922C401.841 10.3169 401.519 10.4997 401.146 10.6407C400.783 10.7723 400.382 10.8387 399.943 10.8399ZM405.784 10.6565L405.756 0.0585841L406.806 0.055833L406.818 4.60582L406.58 4.55044C406.766 4.06462 407.068 3.68116 407.487 3.40006C407.916 3.11894 408.41 2.97764 408.97 2.97617C409.502 2.97478 409.978 3.09487 410.399 3.33643C410.829 3.57797 411.166 3.91309 411.41 4.34179C411.663 4.76112 411.79 5.23679 411.791 5.76879L411.804 10.6408L410.754 10.6435L410.743 6.17754C410.741 5.72021 410.656 5.3331 410.487 5.01621C410.319 4.69931 410.085 4.45726 409.786 4.29004C409.496 4.11347 409.164 4.02567 408.791 4.02665C408.418 4.02763 408.082 4.11717 407.784 4.29529C407.485 4.46407 407.248 4.71203 407.072 5.03916C406.904 5.35693 406.821 5.73981 406.823 6.18781L406.834 10.6538L405.784 10.6565ZM415.98 10.7978C415.504 10.7991 415.079 10.7115 414.705 10.5352C414.332 10.3495 414.037 10.0983 413.821 9.78149C413.606 9.46472 413.498 9.101 413.496 8.69033C413.495 8.29834 413.579 7.94345 413.746 7.62568C413.913 7.29857 414.173 7.02255 414.528 6.79763C414.882 6.5727 415.334 6.41285 415.884 6.31807L418.823 5.82037L418.825 6.77236L416.139 7.22741C415.598 7.32216 415.206 7.49585 414.964 7.74849C414.731 8.0011 414.615 8.30007 414.616 8.6454C414.617 8.9814 414.749 9.26572 415.011 9.49837C415.282 9.73099 415.628 9.84675 416.048 9.84565C416.561 9.84431 417.009 9.7358 417.391 9.52013C417.773 9.29513 418.071 8.99568 418.284 8.62179C418.498 8.24789 418.604 7.83228 418.603 7.37495L418.598 5.47096C418.597 5.02296 418.433 4.65939 418.105 4.38024C417.778 4.1011 417.353 3.96221 416.83 3.96358C416.373 3.96478 415.972 4.0825 415.627 4.31674C415.282 4.54164 415.026 4.83631 414.859 5.20075L413.906 4.68525C414.045 4.36755 414.264 4.07764 414.562 3.81553C414.869 3.55339 415.218 3.34714 415.61 3.19678C416.002 3.03708 416.407 2.95669 416.827 2.95559C417.378 2.95414 417.864 3.0602 418.284 3.27377C418.714 3.48731 419.046 3.78511 419.281 4.16716C419.524 4.53986 419.647 4.97354 419.648 5.4682L419.662 10.6202L418.612 10.6229L418.608 9.12494L418.762 9.27854C418.632 9.55888 418.427 9.81608 418.148 10.0502C417.878 10.2749 417.556 10.4577 417.184 10.5987C416.82 10.7303 416.419 10.7967 415.98 10.7978ZM424.555 10.6914C423.883 10.6931 423.364 10.4985 422.999 10.1074C422.634 9.7164 422.451 9.15687 422.449 8.42888L422.438 4.15889L421.052 4.16252L421.049 3.11253L421.399 3.11161C421.716 3.11078 421.968 3.00745 422.154 2.80163C422.34 2.58647 422.433 2.32023 422.432 2.0029L422.43 1.3729L423.48 1.37015L423.485 3.10614L425.137 3.10182L425.14 4.15181L423.488 4.15614L423.499 8.42613C423.499 8.67812 423.537 8.90203 423.613 9.09783C423.688 9.2843 423.814 9.4333 423.992 9.54484C424.179 9.65635 424.426 9.7117 424.734 9.71089C424.809 9.7107 424.898 9.7058 425 9.6962C425.103 9.68659 425.191 9.67703 425.266 9.6675L425.269 10.6055C425.157 10.6338 425.031 10.6528 424.891 10.6625C424.751 10.6815 424.639 10.6911 424.555 10.6914ZM427.112 10.6007L427.093 3.09669L428.143 3.09394L428.162 10.5979L427.112 10.6007ZM427.089 1.7107L427.085 0.1707L428.135 0.167949L428.139 1.70794L427.089 1.7107Z" fill="white" fill-opacity="0.8"/>
</svg>
