<svg width="369" height="59" viewBox="0 0 369 59" fill="none" xmlns="http://www.w3.org/2000/svg">
<path d="M0.489429 11.5619L0.462101 1.13193L6.90208 1.11506L6.90483 2.16506L1.58485 2.179L1.59435 5.80498L6.49433 5.79215L6.49708 6.84214L1.5971 6.85498L1.60943 11.559L0.489429 11.5619ZM11.7112 11.7005C11.0018 11.7024 10.3574 11.536 9.77784 11.2016C9.19827 10.8577 8.73505 10.3923 8.38818 9.8052C8.05062 9.20875 7.88084 8.53252 7.87886 7.77652C7.87691 7.02986 8.04316 6.36209 8.37762 5.77321C8.71207 5.18433 9.16353 4.72115 9.73198 4.38366C10.3097 4.03681 10.9626 3.86243 11.6906 3.86052C12.4186 3.85862 13.0677 4.02492 13.6379 4.35942C14.2175 4.69391 14.6714 5.15472 14.9996 5.74186C15.3371 6.32898 15.5069 7.00054 15.5088 7.75653C15.5108 8.52186 15.34 9.20365 14.9962 9.80188C14.6524 10.3908 14.1916 10.854 13.6138 11.1915C13.0454 11.529 12.4112 11.6987 11.7112 11.7005ZM11.7084 10.6505C12.2124 10.6492 12.6647 10.522 13.0654 10.2689C13.4754 10.0159 13.7965 9.66969 14.0287 9.23042C14.2702 8.79111 14.3903 8.3008 14.3888 7.75947C14.3874 7.21814 14.2648 6.73312 14.021 6.30443C13.7866 5.87571 13.4637 5.53588 13.0524 5.28496C12.6504 5.03401 12.1974 4.9092 11.6934 4.91052C11.1894 4.91184 10.7324 5.03904 10.3224 5.29211C9.92169 5.54516 9.60058 5.88667 9.35904 6.31664C9.1175 6.74661 8.99744 7.23226 8.99886 7.77359C9.00028 8.31492 9.1229 8.8046 9.36671 9.24263C9.61053 9.68066 9.93343 10.0251 10.3354 10.2761C10.7467 10.527 11.2044 10.6518 11.7084 10.6505ZM20.031 11.6787C19.5083 11.6801 19.032 11.56 18.602 11.3184C18.172 11.0676 17.8304 10.7231 17.5773 10.2851C17.3335 9.83776 17.2108 9.32475 17.2093 8.74608L17.1969 4.0141L18.2469 4.01135L18.2589 8.61733C18.26 9.01866 18.3402 9.37312 18.4997 9.6807C18.6685 9.97893 18.8978 10.2117 19.1875 10.3789C19.4867 10.5461 19.8275 10.6292 20.2102 10.6282C20.5929 10.6272 20.9333 10.5423 21.2315 10.3735C21.5297 10.1954 21.7624 9.94749 21.9296 9.62972C22.0967 9.30261 22.1797 8.91506 22.1786 8.46706L22.1668 4.00107L23.2168 3.99832L23.2365 11.5023L22.1865 11.505L22.1827 10.0491L22.4208 10.1044C22.2448 10.5902 21.9425 10.9737 21.5139 11.2548C21.0853 11.5359 20.591 11.6772 20.031 11.6787ZM25.3959 11.4966L25.3762 3.99267L26.4262 3.98991L26.43 5.44591L26.1919 5.39053C26.3773 4.90471 26.6796 4.52125 27.0989 4.24015C27.5275 3.95903 28.0218 3.81773 28.5818 3.81627C29.1138 3.81487 29.5901 3.93496 30.0107 4.17652C30.4407 4.41806 30.7776 4.75318 31.0214 5.18188C31.2745 5.60122 31.4017 6.07689 31.4031 6.60888L31.4159 11.4809L30.3659 11.4836L30.3542 7.01763C30.353 6.5603 30.268 6.17319 30.0991 5.8563C29.9396 5.53938 29.7103 5.29731 29.4112 5.1301C29.1214 4.95352 28.7852 4.86574 28.4025 4.86674C28.0199 4.86774 27.6794 4.9573 27.3812 5.13542C27.083 5.3042 26.8503 5.55214 26.6832 5.87925C26.516 6.19702 26.433 6.57991 26.4342 7.0279L26.4459 11.4939L25.3959 11.4966ZM36.8097 11.6347C36.1097 11.6366 35.4792 11.4702 34.9184 11.1357C34.3575 10.7918 33.9129 10.3263 33.5847 9.73918C33.2658 9.14268 33.1054 8.4711 33.1034 7.72443C33.1014 6.96844 33.2583 6.29602 33.5741 5.70719C33.8993 5.11834 34.3367 4.65519 34.8865 4.31775C35.4456 3.97095 36.0798 3.79662 36.7891 3.79476C37.4331 3.79307 38.0075 3.93157 38.5122 4.21025C39.017 4.48893 39.4146 4.86589 39.7052 5.34113L39.538 5.63557L39.5255 0.861582L40.5755 0.858831L40.6032 11.4568L39.5532 11.4595L39.5488 9.77955L39.7172 9.93311C39.4573 10.4751 39.0664 10.8962 38.5445 11.1962C38.032 11.4869 37.4537 11.633 36.8097 11.6347ZM36.8629 10.5846C37.3669 10.5833 37.8193 10.4561 38.2199 10.203C38.6299 9.94996 38.951 9.60845 39.1833 9.17851C39.4248 8.73921 39.5448 8.24889 39.5434 7.70756C39.542 7.16623 39.4194 6.68121 39.1756 6.25252C38.9411 5.81446 38.6182 5.46998 38.2069 5.21905C37.8049 4.9681 37.3519 4.84329 36.8479 4.84461C36.3532 4.84591 35.9056 4.97308 35.5049 5.22613C35.1042 5.47918 34.7878 5.82068 34.5556 6.25062C34.3327 6.68054 34.222 7.17083 34.2234 7.7215C34.2248 8.26283 34.3381 8.75253 34.5633 9.19061C34.7977 9.61933 35.1113 9.95918 35.5039 10.2102C35.9059 10.4611 36.3589 10.5859 36.8629 10.5846ZM46.1755 11.6102C45.4755 11.612 44.8404 11.4457 44.2702 11.1112C43.7093 10.7673 43.2648 10.2972 42.9365 9.70068C42.6083 9.1042 42.4432 8.42796 42.4412 7.67197C42.4392 6.91597 42.5961 6.24822 42.912 5.66873C43.2278 5.0799 43.6559 4.61677 44.1963 4.27936C44.7461 3.94191 45.3617 3.7723 46.043 3.77052C46.5843 3.7691 47.0653 3.8705 47.4858 4.07474C47.9156 4.26961 48.2804 4.53932 48.5799 4.88387C48.8795 5.21909 49.1091 5.60115 49.2689 6.03007C49.4287 6.44965 49.5092 6.88344 49.5103 7.33144C49.5106 7.42478 49.5062 7.53212 49.4972 7.65348C49.4881 7.7655 49.4744 7.88221 49.4561 8.00359L43.1141 8.0202L43.1116 7.04021L48.8515 7.02517L48.3486 7.44649C48.4313 6.93294 48.3694 6.47576 48.163 6.07497C47.966 5.66482 47.6805 5.34356 47.3065 5.11121C46.9325 4.86952 46.5122 4.74929 46.0456 4.75051C45.5789 4.75173 45.1452 4.8742 44.7445 5.11792C44.3532 5.36161 44.0461 5.70309 43.8232 6.14234C43.6003 6.57226 43.513 7.08582 43.5612 7.68303C43.5161 8.28048 43.6108 8.80291 43.8453 9.25029C44.0892 9.68832 44.4167 10.0281 44.828 10.2697C45.2487 10.5113 45.697 10.6314 46.173 10.6302C46.7236 10.6288 47.1853 10.4969 47.5579 10.2346C47.9306 9.97226 48.2331 9.6448 48.4654 9.25219L49.3626 9.72584C49.2142 10.0622 48.9863 10.3755 48.6791 10.6656C48.3718 10.9464 48.0037 11.1761 47.5749 11.3545C47.1553 11.5236 46.6889 11.6089 46.1755 11.6102ZM54.7608 11.5877C54.0608 11.5895 53.4304 11.4232 52.8695 11.0887C52.3086 10.7448 51.864 10.2793 51.5358 9.69214C51.2169 9.09564 51.0565 8.42406 51.0545 7.6774C51.0526 6.9214 51.2095 6.24899 51.5252 5.66016C51.8504 5.0713 52.2878 4.60816 52.8376 4.27071C53.3967 3.92391 54.0309 3.74959 54.7402 3.74773C55.3842 3.74604 55.9586 3.88454 56.4633 4.16321C56.9681 4.44189 57.3657 4.81885 57.6563 5.29409L57.4891 5.58853L57.4766 0.814548L58.5266 0.811796L58.5543 11.4098L57.5043 11.4125L57.4999 9.73252L57.6683 9.88608C57.4084 10.4281 57.0175 10.8491 56.4956 11.1492C55.9831 11.4398 55.4048 11.586 54.7608 11.5877ZM54.814 10.5376C55.318 10.5362 55.7704 10.4091 56.171 10.156C56.581 9.90293 56.9022 9.56142 57.1344 9.13147C57.3759 8.69217 57.4959 8.20186 57.4945 7.66052C57.4931 7.11919 57.3705 6.63418 57.1267 6.20548C56.8922 5.76743 56.5693 5.42294 56.158 5.17202C55.756 4.92107 55.303 4.79626 54.799 4.79758C54.3043 4.79887 53.8567 4.92605 53.456 5.1791C53.0553 5.43215 52.7389 5.77364 52.5067 6.20359C52.2838 6.63351 52.1731 7.1238 52.1745 7.67446C52.1759 8.21579 52.2892 8.7055 52.5144 9.14358C52.7488 9.5723 53.0624 9.91214 53.4551 10.1631C53.857 10.4141 54.31 10.5389 54.814 10.5376ZM63.0891 11.3979L63.0695 3.8939L64.1195 3.89115L64.1391 11.3951L63.0891 11.3979ZM63.0658 2.50791L63.0618 0.967914L64.1118 0.965162L64.1158 2.50516L63.0658 2.50791ZM66.2883 11.3895L66.2687 3.88552L67.3187 3.88277L67.3225 5.33877L67.0843 5.28339C67.2697 4.79757 67.5721 4.41411 67.9913 4.13301C68.4199 3.85188 68.9142 3.71059 69.4742 3.70912C70.0062 3.70773 70.4825 3.82781 70.9032 4.06938C71.3331 4.31092 71.67 4.64604 71.9138 5.07473C72.1669 5.49407 72.2941 5.96974 72.2955 6.50174L72.3083 11.3737L71.2583 11.3765L71.2466 6.91049C71.2454 6.45316 71.1604 6.06605 70.9916 5.74915C70.8321 5.43224 70.6028 5.19017 70.3037 5.02295C70.0139 4.84638 69.6776 4.75859 69.295 4.7596C68.9123 4.7606 68.5719 4.85016 68.2737 5.02827C67.9754 5.19705 67.7428 5.445 67.5756 5.7721C67.4084 6.08988 67.3254 6.47276 67.3266 6.92076L67.3383 11.3867L66.2883 11.3895ZM76.4266 11.3629L76.4248 10.6629L79.3283 7.44932C79.896 6.82249 80.3567 6.30328 80.7103 5.89169C81.0732 5.48007 81.3429 5.10603 81.5193 4.76957C81.6958 4.4331 81.7835 4.06887 81.7825 3.67687C81.7808 3.05154 81.5976 2.57135 81.2327 2.23631C80.8678 1.90126 80.382 1.73454 79.7754 1.73612C79.15 1.73776 78.6232 1.91648 78.1948 2.27227C77.7757 2.62803 77.4923 3.12344 77.3447 3.7585L76.3221 3.53718C76.4419 2.96753 76.66 2.47696 76.9762 2.06546C77.2925 1.65396 77.6883 1.33559 78.1637 1.11035C78.6391 0.875766 79.1708 0.757706 79.7588 0.756165C80.3841 0.754526 80.9305 0.879095 81.3978 1.12987C81.8651 1.38065 82.23 1.72503 82.4925 2.16301C82.7643 2.60096 82.901 3.10461 82.9025 3.67394C82.9035 4.06594 82.8205 4.44416 82.6534 4.80859C82.4957 5.17301 82.2541 5.56564 81.9285 5.9865C81.603 6.40735 81.1842 6.89845 80.6724 7.45979L78.034 10.3787L83.2 10.3652L83.2026 11.3452L76.4266 11.3629ZM89.1475 11.4976C88.3262 11.4998 87.6023 11.2777 86.9758 10.8313C86.3586 10.3756 85.8763 9.74683 85.5288 8.94507C85.1814 8.13398 85.0062 7.19177 85.0034 6.11844C85.0006 5.04511 85.1708 4.10666 85.514 3.30309C85.8572 2.49019 86.3363 1.85893 86.9511 1.40932C87.5659 0.95971 88.284 0.733828 89.1053 0.731676C89.9266 0.729524 90.6459 0.95164 91.2631 1.39802C91.8802 1.84441 92.3625 2.47315 92.71 3.28424C93.0574 4.086 93.2326 5.02354 93.2354 6.09687C93.2382 7.1702 93.068 8.11332 92.7248 8.92622C92.3909 9.7391 91.9166 10.3703 91.3017 10.82C90.6869 11.2696 89.9688 11.4955 89.1475 11.4976ZM89.1448 10.4476C89.7421 10.446 90.2643 10.2627 90.7113 9.8975C91.1584 9.53233 91.5071 9.02741 91.7574 8.38275C92.0077 7.72876 92.1317 6.96777 92.1294 6.09977C92.1271 5.23177 91.9991 4.47611 91.7454 3.83277C91.4917 3.1801 91.1404 2.67702 90.6915 2.32353C90.2425 1.9607 89.7147 1.78008 89.1081 1.78167C88.5107 1.78324 87.9885 1.96661 87.5415 2.33178C87.0944 2.68762 86.7457 3.19253 86.4955 3.84652C86.2451 4.49118 86.1211 5.24751 86.1234 6.11551C86.1257 6.97417 86.2536 7.72984 86.5073 8.38251C86.7611 9.03518 87.1124 9.54293 87.5613 9.90575C88.0196 10.2686 88.5474 10.4492 89.1448 10.4476ZM96.797 11.3096L96.7722 1.85959L94.8122 1.86473L94.8096 0.88473L97.8896 0.87666L97.917 11.3066L96.797 11.3096ZM105.408 11.287L105.402 8.823L100.096 8.83691L100.093 7.92691L105.381 0.857031L106.361 0.854464L106.379 7.91044L107.653 7.9071L107.656 8.8171L106.382 8.82044L106.388 11.2844L105.408 11.287ZM100.948 8.33067L100.821 7.925L105.399 7.91301L105.383 1.82303L105.734 1.92011L100.948 8.33067ZM109.401 13.0965L109.4 12.6065C109.68 12.5311 109.885 12.3859 110.015 12.1709C110.145 11.9559 110.21 11.6571 110.209 11.2744L109.677 11.2758L109.673 9.73582L110.793 9.73288L110.796 10.9089C110.797 11.5155 110.682 12.0012 110.449 12.3658C110.217 12.7397 109.868 12.9833 109.401 13.0965ZM118.937 11.4195C118.2 11.4215 117.551 11.2505 116.99 10.9066C116.429 10.5628 115.989 10.0973 115.67 9.5101C115.351 8.9136 115.191 8.24202 115.189 7.49536C115.187 6.74869 115.344 6.08095 115.66 5.49212C115.976 4.90329 116.413 4.44014 116.972 4.10267C117.531 3.75587 118.179 3.58151 118.917 3.57958C119.383 3.57835 119.822 3.6612 120.233 3.82813C120.645 3.99505 121.009 4.22276 121.327 4.51126C121.645 4.79043 121.884 5.11647 122.044 5.48939L121.093 5.98188C120.905 5.58104 120.62 5.25512 120.237 5.00412C119.853 4.75313 119.414 4.62828 118.92 4.62957C118.425 4.63087 117.977 4.75804 117.577 5.01109C117.185 5.25478 116.873 5.59627 116.641 6.03555C116.418 6.46546 116.308 6.95576 116.309 7.50642C116.31 8.04775 116.424 8.53746 116.649 8.97554C116.883 9.40426 117.197 9.7441 117.59 9.99507C117.992 10.246 118.44 10.3708 118.935 10.3696C119.429 10.3683 119.863 10.2411 120.236 9.98814C120.618 9.73514 120.906 9.39838 121.101 8.97787L122.054 9.49338C121.897 9.85779 121.659 10.1851 121.343 10.4752C121.026 10.7654 120.663 10.995 120.253 11.1641C119.842 11.3332 119.404 11.4183 118.937 11.4195ZM127.416 11.3973C126.707 11.3992 126.062 11.2329 125.483 10.8984C124.903 10.5546 124.44 10.0891 124.093 9.50203C123.755 8.90558 123.586 8.22936 123.584 7.47336C123.582 6.7267 123.748 6.05893 124.082 5.47005C124.417 4.88117 124.868 4.41798 125.437 4.08049C126.014 3.73365 126.667 3.55927 127.395 3.55736C128.123 3.55545 128.772 3.72175 129.343 4.05626C129.922 4.39074 130.376 4.85156 130.704 5.4387C131.042 6.02581 131.212 6.69737 131.214 7.45337C131.216 8.2187 131.045 8.90048 130.701 9.49872C130.357 10.0876 129.896 10.5508 129.319 10.8883C128.75 11.2258 128.116 11.3955 127.416 11.3973ZM127.413 10.3473C127.917 10.346 128.369 10.2188 128.77 9.96578C129.18 9.71271 129.501 9.36653 129.733 8.92725C129.975 8.48795 130.095 7.99764 130.094 7.4563C130.092 6.91497 129.969 6.42996 129.726 6.00126C129.491 5.57254 129.168 5.23272 128.757 4.9818C128.355 4.73085 127.902 4.60604 127.398 4.60736C126.894 4.60868 126.437 4.73588 126.027 4.98895C125.626 5.242 125.305 5.58351 125.064 6.01348C124.822 6.44345 124.702 6.9291 124.704 7.47043C124.705 8.01176 124.828 8.50144 125.071 8.93947C125.315 9.3775 125.638 9.72199 126.04 9.97293C126.451 10.2239 126.909 10.3487 127.413 10.3473ZM133.075 11.2145L133.056 3.71053L134.106 3.70778L134.109 5.13577L133.941 4.92622C134.145 4.48701 134.447 4.14555 134.848 3.90183C135.258 3.65809 135.706 3.53559 136.191 3.53431C136.77 3.5328 137.293 3.69476 137.76 4.0202C138.228 4.34565 138.56 4.76944 138.758 5.2916L138.464 5.30637C138.649 4.72721 138.97 4.2877 139.426 3.98784C139.892 3.67862 140.405 3.52327 140.965 3.52181C141.469 3.52048 141.931 3.64061 142.352 3.88217C142.782 4.12371 143.124 4.45882 143.377 4.88749C143.639 5.30681 143.771 5.78246 143.772 6.31446L143.785 11.1864L142.735 11.1892L142.723 6.72321C142.722 6.26588 142.637 5.87877 142.468 5.56187C142.309 5.24496 142.089 5.00287 141.809 4.8356C141.528 4.659 141.206 4.57118 140.842 4.57213C140.487 4.57306 140.165 4.66257 139.877 4.84066C139.588 5.00942 139.36 5.25735 139.192 5.58446C139.025 5.90223 138.942 6.28512 138.943 6.73311L138.955 11.1991L137.905 11.2018L137.893 6.73586C137.892 6.27853 137.807 5.89142 137.638 5.57453C137.479 5.25761 137.259 5.01552 136.979 4.84826C136.698 4.67166 136.376 4.58383 136.012 4.58479C135.648 4.58574 135.321 4.67526 135.033 4.85335C134.753 5.02209 134.53 5.27001 134.362 5.59711C134.195 5.91488 134.112 6.29777 134.113 6.74577L134.125 11.2118L133.075 11.2145ZM145.79 11.1812L145.77 3.67722L146.82 3.67446L146.824 5.10246L146.656 4.8929C146.86 4.4537 147.162 4.11224 147.563 3.86852C147.973 3.62478 148.421 3.50227 148.906 3.501C149.485 3.49948 150.008 3.66145 150.475 3.98689C150.943 4.31233 151.275 4.73613 151.473 5.25828L151.179 5.27305C151.364 4.6939 151.685 4.25439 152.141 3.95452C152.607 3.6453 153.12 3.48996 153.68 3.48849C154.184 3.48717 154.646 3.60729 155.067 3.84886C155.497 4.0904 155.838 4.42551 156.091 4.85418C156.354 5.27349 156.486 5.74915 156.487 6.28114L156.5 11.1531L155.45 11.1559L155.438 6.68989C155.437 6.23256 155.352 5.84545 155.183 5.52856C155.024 5.21164 154.804 4.96955 154.523 4.80229C154.243 4.62569 153.921 4.53786 153.557 4.53882C153.202 4.53975 152.88 4.62926 152.591 4.80735C152.302 4.97611 152.074 5.22404 151.907 5.55114C151.74 5.86891 151.657 6.2518 151.658 6.6998L151.67 11.1658L150.62 11.1685L150.608 6.70255C150.607 6.24522 150.522 5.85811 150.353 5.54121C150.194 5.2243 149.974 4.98221 149.693 4.81494C149.413 4.63834 149.091 4.55052 148.727 4.55147C148.363 4.55243 148.036 4.64195 147.747 4.82004C147.468 4.98877 147.244 5.23669 147.077 5.5638C146.91 5.88157 146.827 6.26446 146.828 6.71245L146.84 11.1784L145.79 11.1812ZM158.505 11.1479L158.485 3.6439L159.535 3.64115L159.555 11.1451L158.505 11.1479ZM158.482 2.25791L158.477 0.717911L159.527 0.715159L159.532 2.25515L158.482 2.25791ZM164.574 11.216C163.902 11.2177 163.384 11.0231 163.019 10.632C162.654 10.241 162.47 9.68148 162.468 8.95348L162.457 4.6835L161.071 4.68713L161.068 3.63713L161.418 3.63622C161.736 3.63538 161.987 3.53206 162.174 3.32624C162.36 3.11108 162.452 2.84484 162.451 2.52751L162.45 1.89751L163.5 1.89476L163.504 3.63075L165.156 3.62642L165.159 4.67642L163.507 4.68075L163.518 8.95073C163.519 9.20273 163.557 9.42663 163.632 9.62244C163.707 9.80891 163.834 9.95791 164.011 10.0694C164.198 10.181 164.446 10.2363 164.754 10.2355C164.828 10.2353 164.917 10.2304 165.02 10.2208C165.122 10.2112 165.211 10.2016 165.286 10.1921L165.288 11.1301C165.176 11.1584 165.05 11.1774 164.91 11.1871C164.77 11.2061 164.658 11.2158 164.574 11.216ZM170.002 11.2018C169.33 11.2035 168.811 11.0089 168.446 10.6178C168.081 10.2268 167.898 9.66726 167.896 8.93926L167.885 4.66928L166.499 4.67291L166.496 3.62291L166.846 3.62199C167.163 3.62116 167.415 3.51784 167.601 3.31201C167.787 3.09686 167.88 2.83062 167.879 2.51328L167.878 1.88329L168.928 1.88053L168.932 3.61653L170.584 3.6122L170.587 4.6622L168.935 4.66652L168.946 8.93651C168.947 9.18851 168.985 9.41241 169.06 9.60821C169.135 9.79469 169.261 9.94369 169.439 10.0552C169.626 10.1667 169.873 10.2221 170.181 10.2213C170.256 10.2211 170.345 10.2162 170.447 10.2066C170.55 10.197 170.639 10.1874 170.713 10.1779L170.716 11.1159C170.604 11.1442 170.478 11.1632 170.338 11.1729C170.198 11.1919 170.086 11.2015 170.002 11.2018ZM175.702 11.2708C175.002 11.2726 174.367 11.1063 173.797 10.7718C173.236 10.4279 172.792 9.95777 172.463 9.3613C172.135 8.76482 171.97 8.08858 171.968 7.33259C171.966 6.57659 172.123 5.90884 172.439 5.32935C172.755 4.74052 173.183 4.27739 173.723 3.93998C174.273 3.60253 174.889 3.43292 175.57 3.43114C176.111 3.42972 176.592 3.53112 177.013 3.73536C177.443 3.93023 177.807 4.19994 178.107 4.54449C178.406 4.87971 178.636 5.26178 178.796 5.69069C178.956 6.11027 179.036 6.54406 179.037 6.99206C179.037 7.0854 179.033 7.19274 179.024 7.3141C179.015 7.42612 179.001 7.54283 178.983 7.66421L172.641 7.68082L172.638 6.70083L178.378 6.68579L177.876 7.10711C177.958 6.59356 177.896 6.13638 177.69 5.73559C177.493 5.32544 177.207 5.00418 176.833 4.77183C176.459 4.53014 176.039 4.40991 175.572 4.41113C175.106 4.41236 174.672 4.53483 174.271 4.77854C173.88 5.02224 173.573 5.36371 173.35 5.80296C173.127 6.23288 173.04 6.74644 173.088 7.34365C173.043 7.94111 173.138 8.46353 173.372 8.91091C173.616 9.34894 173.944 9.68875 174.355 9.93034C174.776 10.1719 175.224 10.2921 175.7 10.2908C176.251 10.2894 176.712 10.1575 177.085 9.89519C177.457 9.63288 177.76 9.30542 177.992 8.91281L178.89 9.38646C178.741 9.72285 178.513 10.0361 178.206 10.3263C177.899 10.6071 177.531 10.8367 177.102 11.0151C176.682 11.1842 176.216 11.2695 175.702 11.2708ZM184.288 11.2483C183.588 11.2502 182.957 11.0838 182.396 10.7493C181.835 10.4054 181.391 9.93991 181.063 9.35276C180.744 8.75626 180.583 8.08468 180.581 7.33802C180.579 6.58202 180.736 5.90961 181.052 5.32078C181.377 4.73192 181.815 4.26878 182.365 3.93133C182.924 3.58454 183.558 3.41021 184.267 3.40835C184.911 3.40666 185.486 3.54516 185.99 3.82383C186.495 4.10251 186.893 4.47947 187.183 4.95471L187.016 5.24915L187.003 0.475168L188.053 0.472417L188.081 11.0704L187.031 11.0731L187.027 9.39314L187.195 9.5467C186.935 10.0887 186.544 10.5097 186.023 10.8098C185.51 11.1005 184.932 11.2466 184.288 11.2483ZM184.341 10.1982C184.845 10.1969 185.297 10.0697 185.698 9.81662C186.108 9.56355 186.429 9.22204 186.661 8.79209C186.903 8.35279 187.023 7.86248 187.021 7.32114C187.02 6.77981 186.897 6.2948 186.654 5.8661C186.419 5.42805 186.096 5.08356 185.685 4.83264C185.283 4.58169 184.83 4.45688 184.326 4.4582C183.831 4.45949 183.384 4.58667 182.983 4.83972C182.582 5.09277 182.266 5.43427 182.034 5.86421C181.811 6.29413 181.7 6.78442 181.701 7.33508C181.703 7.87642 181.816 8.36612 182.041 8.8042C182.276 9.23292 182.589 9.57277 182.982 9.82374C183.384 10.0747 183.837 10.1995 184.341 10.1982ZM195.486 11.135C194.814 11.1367 194.296 10.9421 193.931 10.5511C193.566 10.16 193.382 9.60049 193.38 8.87249L193.369 4.6025L191.983 4.60614L191.98 3.55614L192.33 3.55522C192.648 3.55439 192.899 3.45106 193.086 3.24524C193.272 3.03009 193.364 2.76384 193.363 2.44651L193.362 1.81651L194.412 1.81376L194.416 3.54976L196.068 3.54543L196.071 4.59542L194.419 4.59975L194.43 8.86974C194.431 9.12174 194.469 9.34564 194.544 9.54144C194.619 9.72791 194.746 9.87692 194.923 9.98845C195.11 10.1 195.358 10.1553 195.666 10.1545C195.74 10.1543 195.829 10.1494 195.932 10.1398C196.034 10.1302 196.123 10.1206 196.198 10.1111L196.2 11.0491C196.088 11.0774 195.962 11.0964 195.822 11.1061C195.682 11.1251 195.57 11.1348 195.486 11.135ZM201.285 11.2038C200.575 11.2056 199.931 11.0393 199.351 10.7049C198.772 10.361 198.309 9.89558 197.962 9.30849C197.624 8.71204 197.454 8.03581 197.452 7.27981C197.45 6.53315 197.617 5.86538 197.951 5.2765C198.286 4.68762 198.737 4.22444 199.306 3.88695C199.883 3.5401 200.536 3.36572 201.264 3.36381C201.992 3.36191 202.641 3.52821 203.211 3.86271C203.791 4.1972 204.245 4.65801 204.573 5.24515C204.911 5.83227 205.08 6.50382 205.082 7.25982C205.084 8.02515 204.914 8.70694 204.57 9.30517C204.226 9.89408 203.765 10.3573 203.187 10.6948C202.619 11.0323 201.985 11.202 201.285 11.2038ZM201.282 10.1538C201.786 10.1525 202.238 10.0253 202.639 9.77223C203.049 9.51916 203.37 9.17298 203.602 8.73371C203.844 8.2944 203.964 7.80409 203.962 7.26276C203.961 6.72143 203.838 6.23641 203.595 5.80772C203.36 5.37899 203.037 5.03917 202.626 4.78825C202.224 4.5373 201.771 4.41249 201.267 4.41381C200.763 4.41513 200.306 4.54233 199.896 4.7954C199.495 5.04845 199.174 5.38996 198.933 5.81993C198.691 6.2499 198.571 6.73555 198.572 7.27688C198.574 7.81821 198.696 8.30789 198.94 8.74592C199.184 9.18395 199.507 9.52844 199.909 9.77939C200.32 10.0303 200.778 10.1551 201.282 10.1538ZM212.711 11.1738C212.011 11.1757 211.381 11.0093 210.82 10.6748C210.259 10.3309 209.815 9.86543 209.486 9.27829C209.168 8.68179 209.007 8.01021 209.005 7.26354C209.003 6.50755 209.16 5.83513 209.476 5.2463C209.801 4.65745 210.238 4.1943 210.788 3.85686C211.347 3.51006 211.982 3.33573 212.691 3.33387C213.335 3.33219 213.909 3.47068 214.414 3.74936C214.919 4.02804 215.316 4.405 215.607 4.88024L215.44 5.17468L215.427 0.400694L216.477 0.397943L216.505 10.9959L215.455 10.9987L215.451 9.31866L215.619 9.47222C215.359 10.0142 214.968 10.4353 214.446 10.7353C213.934 11.026 213.355 11.1722 212.711 11.1738ZM212.765 10.1237C213.269 10.1224 213.721 9.9952 214.122 9.74215C214.532 9.48907 214.853 9.14756 215.085 8.71762C215.327 8.27832 215.447 7.788 215.445 7.24667C215.444 6.70534 215.321 6.22033 215.077 5.79163C214.843 5.35358 214.52 5.00909 214.109 4.75816C213.707 4.50722 213.254 4.3824 212.75 4.38372C212.255 4.38502 211.807 4.51219 211.407 4.76524C211.006 5.01829 210.69 5.35979 210.457 5.78973C210.234 6.21965 210.124 6.70994 210.125 7.26061C210.127 7.80194 210.24 8.29165 210.465 8.72972C210.699 9.15844 211.013 9.49829 211.406 9.74926C211.808 10.0002 212.261 10.125 212.765 10.1237ZM222.077 11.1493C221.377 11.1511 220.742 10.9848 220.172 10.6503C219.611 10.3064 219.166 9.83626 218.838 9.23979C218.51 8.64331 218.345 7.96708 218.343 7.21108C218.341 6.45508 218.498 5.78733 218.814 5.20784C219.129 4.61901 219.558 4.15588 220.098 3.81847C220.648 3.48103 221.263 3.31141 221.945 3.30963C222.486 3.30821 222.967 3.40962 223.388 3.61385C223.817 3.80872 224.182 4.07843 224.482 4.42298C224.781 4.7582 225.011 5.14027 225.171 5.56918C225.33 5.98877 225.411 6.42256 225.412 6.87055C225.412 6.96389 225.408 7.07123 225.399 7.19259C225.39 7.30461 225.376 7.42132 225.358 7.5427L219.016 7.55932L219.013 6.57932L224.753 6.56428L224.25 6.9856C224.333 6.47205 224.271 6.01487 224.065 5.61408C223.868 5.20393 223.582 4.88268 223.208 4.65032C222.834 4.40863 222.414 4.2884 221.947 4.28962C221.481 4.29085 221.047 4.41332 220.646 4.65703C220.255 4.90073 219.948 5.2422 219.725 5.68145C219.502 6.11137 219.415 6.62493 219.463 7.22214C219.418 7.8196 219.513 8.34202 219.747 8.7894C219.991 9.22743 220.318 9.56724 220.73 9.80883C221.15 10.0504 221.599 10.1706 222.075 10.1693C222.625 10.1679 223.087 10.036 223.46 9.77368C223.832 9.51137 224.135 9.18391 224.367 8.7913L225.264 9.26495C225.116 9.60134 224.888 9.9146 224.581 10.2047C224.274 10.4855 223.905 10.7152 223.477 10.8936C223.057 11.0627 222.591 11.148 222.077 11.1493ZM229.139 10.9628L226.194 3.46649L227.37 3.46341L229.851 10.0369L229.473 10.0379L231.934 3.45146L233.124 3.44834L230.189 10.9601L229.139 10.9628ZM237.649 11.1085C236.949 11.1103 236.314 10.944 235.744 10.6095C235.183 10.2656 234.739 9.79546 234.41 9.19899C234.082 8.60251 233.917 7.92627 233.915 7.17028C233.913 6.41428 234.07 5.74653 234.386 5.16704C234.702 4.57821 235.13 4.11508 235.67 3.77767C236.22 3.44022 236.836 3.27061 237.517 3.26883C238.058 3.26741 238.539 3.36881 238.96 3.57305C239.39 3.76792 239.754 4.03763 240.054 4.38218C240.353 4.7174 240.583 5.09946 240.743 5.52838C240.903 5.94796 240.983 6.38175 240.984 6.82975C240.985 6.92309 240.98 7.03043 240.971 7.15179C240.962 7.26381 240.948 7.38052 240.93 7.5019L234.588 7.51851L234.586 6.53852L240.325 6.52348L239.823 6.9448C239.905 6.43125 239.843 5.97407 239.637 5.57328C239.44 5.16313 239.154 4.84187 238.78 4.60952C238.406 4.36783 237.986 4.2476 237.52 4.24882C237.053 4.25005 236.619 4.37252 236.218 4.61623C235.827 4.85993 235.52 5.2014 235.297 5.64065C235.074 6.07057 234.987 6.58413 235.035 7.18134C234.99 7.7788 235.085 8.30122 235.319 8.7486C235.563 9.18663 235.891 9.52644 236.302 9.76803C236.723 10.0096 237.171 10.1298 237.647 10.1285C238.198 10.1271 238.659 9.99519 239.032 9.73288C239.405 9.47057 239.707 9.14311 239.939 8.7505L240.837 9.22415C240.688 9.56054 240.46 9.8738 240.153 10.1639C239.846 10.4447 239.478 10.6744 239.049 10.8528C238.629 11.0219 238.163 11.1072 237.649 11.1085ZM242.846 10.9269L242.819 0.328925L243.869 0.326173L243.896 10.9241L242.846 10.9269ZM249.56 11.0773C248.851 11.0792 248.206 10.9128 247.627 10.5784C247.047 10.2345 246.584 9.76909 246.237 9.182C245.899 8.58555 245.73 7.90932 245.728 7.15333C245.726 6.40666 245.892 5.73889 246.226 5.15001C246.561 4.56113 247.012 4.09795 247.581 3.76046C248.159 3.41361 248.811 3.23923 249.539 3.23732C250.267 3.23542 250.917 3.40172 251.487 3.73622C252.066 4.07071 252.52 4.53152 252.848 5.11866C253.186 5.70578 253.356 6.37734 253.358 7.13333C253.36 7.89866 253.189 8.58045 252.845 9.17868C252.501 9.76759 252.04 10.2308 251.463 10.5683C250.894 10.9058 250.26 11.0755 249.56 11.0773ZM249.557 10.0273C250.061 10.026 250.514 9.8988 250.914 9.64574C251.324 9.39267 251.645 9.04649 251.877 8.60722C252.119 8.16792 252.239 7.6776 252.238 7.13627C252.236 6.59494 252.114 6.10992 251.87 5.68123C251.635 5.25251 251.312 4.91269 250.901 4.66176C250.499 4.41081 250.046 4.286 249.542 4.28732C249.038 4.28864 248.581 4.41584 248.171 4.66892C247.77 4.92197 247.449 5.26347 247.208 5.69344C246.966 6.12341 246.846 6.60906 246.848 7.15039C246.849 7.69172 246.972 8.1814 247.215 8.61943C247.459 9.05746 247.782 9.40195 248.184 9.6529C248.596 9.90382 249.053 10.0286 249.557 10.0273ZM255.227 13.6945L255.2 3.3905L256.25 3.38774L256.254 5.06774L256.085 4.77418C256.383 4.2974 256.778 3.91836 257.272 3.63707C257.776 3.35575 258.349 3.21424 258.993 3.21255C259.703 3.2107 260.333 3.38171 260.885 3.7256C261.445 4.06013 261.885 4.52098 262.204 5.10815C262.532 5.69529 262.697 6.36686 262.699 7.12286C262.701 7.86952 262.54 8.54195 262.215 9.14013C261.899 9.72896 261.462 10.1968 260.902 10.5436C260.353 10.881 259.723 11.0507 259.014 11.0525C258.37 11.0542 257.786 10.9111 257.263 10.6231C256.748 10.3258 256.36 9.90681 256.097 9.36616L256.265 9.21172L256.277 13.6917L255.227 13.6945ZM258.955 10.0027C259.459 10.0014 259.907 9.87418 260.298 9.62116C260.699 9.36811 261.01 9.02662 261.233 8.5967C261.465 8.15743 261.581 7.66712 261.579 7.12579C261.578 6.57513 261.46 6.08543 261.226 5.65671C261 5.22797 260.687 4.88812 260.285 4.63718C259.892 4.3862 259.444 4.26138 258.94 4.2627C258.436 4.26402 257.979 4.39122 257.569 4.64429C257.168 4.89734 256.847 5.24352 256.606 5.68282C256.373 6.11276 256.258 6.5984 256.259 7.13973C256.261 7.68106 256.379 8.17076 256.613 8.60881C256.857 9.0375 257.18 9.37733 257.582 9.62827C257.993 9.8792 258.451 10.004 258.955 10.0027ZM264.557 10.87L264.538 3.36603L265.588 3.36328L265.607 10.8673L264.557 10.87ZM264.534 1.98003L264.53 0.440038L265.58 0.437287L265.584 1.97728L264.534 1.98003ZM267.756 10.8616L267.737 3.35765L268.787 3.35489L268.791 4.81089L268.552 4.75551C268.738 4.26969 269.04 3.88623 269.459 3.60513C269.888 3.32401 270.382 3.18271 270.942 3.18125C271.474 3.17985 271.951 3.29994 272.371 3.5415C272.801 3.78304 273.138 4.11816 273.382 4.54686C273.635 4.9662 273.762 5.44187 273.764 5.97386L273.776 10.8458L272.726 10.8486L272.715 6.38261C272.713 5.92528 272.628 5.53817 272.46 5.22128C272.3 4.90436 272.071 4.66229 271.772 4.49508C271.482 4.3185 271.146 4.23072 270.763 4.23172C270.38 4.23272 270.04 4.32228 269.742 4.5004C269.443 4.66918 269.211 4.91712 269.044 5.24423C268.876 5.562 268.794 5.94489 268.795 6.39288L268.806 10.8589L267.756 10.8616ZM279.346 13.9113C278.832 13.9126 278.356 13.8345 277.917 13.677C277.487 13.5195 277.114 13.3011 276.795 13.0219C276.487 12.7521 276.248 12.4354 276.079 12.0718L277.044 11.5513C277.194 11.9056 277.461 12.2129 277.844 12.4732C278.227 12.7335 278.718 12.8629 279.315 12.8613C279.772 12.8601 280.192 12.7704 280.574 12.592C280.957 12.4137 281.264 12.1516 281.496 11.8056C281.729 11.4597 281.844 11.0347 281.843 10.5307L281.839 8.86472L282.007 9.01828C281.747 9.56029 281.361 9.98131 280.848 10.2813C280.336 10.572 279.776 10.7181 279.169 10.7197C278.469 10.7216 277.839 10.5552 277.278 10.2207C276.717 9.88614 276.273 9.43463 275.945 8.86616C275.626 8.28833 275.465 7.64941 275.464 6.94941C275.462 6.24008 275.619 5.60034 275.935 5.03017C276.26 4.45999 276.697 4.00617 277.247 3.66873C277.806 3.33126 278.44 3.1616 279.15 3.15974C279.756 3.15815 280.307 3.29671 280.803 3.57541C281.307 3.85409 281.705 4.23105 281.996 4.70629L281.828 5.00073L281.824 3.32074L282.874 3.31798L282.893 10.528C282.895 11.172 282.742 11.7464 282.435 12.2512C282.138 12.7653 281.719 13.1677 281.179 13.4585C280.647 13.7585 280.036 13.9095 279.346 13.9113ZM279.223 9.66957C279.708 9.6683 280.146 9.54582 280.538 9.30213C280.929 9.0491 281.241 8.71695 281.473 8.30567C281.715 7.88504 281.835 7.42739 281.834 6.93272C281.832 6.43806 281.71 5.98571 281.466 5.57568C281.232 5.15629 280.918 4.82578 280.525 4.58414C280.133 4.33317 279.694 4.20832 279.208 4.20959C278.714 4.21089 278.266 4.33806 277.865 4.59111C277.465 4.83483 277.148 5.16233 276.916 5.5736C276.693 5.98485 276.582 6.44248 276.584 6.94648C276.585 7.44114 276.698 7.89818 276.923 8.31759C277.158 8.72765 277.471 9.05816 277.864 9.30913C278.266 9.55075 278.719 9.67089 279.223 9.66957ZM290.035 10.9712C289.316 10.9731 288.685 10.7928 288.143 10.4302C287.601 10.0676 287.208 9.57398 286.963 8.94929L287.844 8.52698C288.06 8.98375 288.36 9.34697 288.743 9.61663C289.136 9.88627 289.565 10.0205 290.032 10.0193C290.48 10.0181 290.858 9.90975 291.165 9.69428C291.473 9.46948 291.626 9.17974 291.625 8.82507C291.624 8.56374 291.549 8.3586 291.399 8.20966C291.25 8.05139 291.077 7.93051 290.88 7.84702C290.684 7.76354 290.511 7.70332 290.362 7.66638L289.283 7.36121C288.592 7.16702 288.092 6.89299 287.783 6.53913C287.474 6.18527 287.319 5.77501 287.318 5.30835C287.317 4.86968 287.428 4.48672 287.651 4.15947C287.874 3.83222 288.177 3.57942 288.559 3.40109C288.941 3.22275 289.365 3.13297 289.832 3.13175C290.467 3.13009 291.041 3.29658 291.555 3.63124C292.079 3.95653 292.449 4.4129 292.665 5.00034L291.77 5.42268C291.582 5.00317 291.311 4.67722 290.955 4.44481C290.61 4.20305 290.222 4.08273 289.793 4.08386C289.373 4.08496 289.037 4.19317 288.785 4.4085C288.534 4.62383 288.409 4.89482 288.41 5.22149C288.41 5.47349 288.476 5.67398 288.607 5.82297C288.738 5.97196 288.888 6.08357 289.056 6.1578C289.233 6.232 289.388 6.28759 289.518 6.32459L290.765 6.68532C291.372 6.86106 291.845 7.13516 292.182 7.50761C292.528 7.88004 292.702 8.31825 292.703 8.82225C292.704 9.23292 292.588 9.60189 292.356 9.92916C292.133 10.2564 291.821 10.5139 291.42 10.7016C291.019 10.88 290.557 10.9699 290.035 10.9712ZM294.553 10.7914L294.525 0.193445L295.575 0.190694L295.595 7.61067L295.147 7.54184L299.349 3.27482L300.707 3.27126L297.775 6.28895L300.993 10.7745L299.733 10.7778L296.712 6.62774L297.384 6.68198L295.248 8.89958L295.596 8.03067L295.603 10.7887L294.553 10.7914ZM302.223 10.7713L302.203 3.26734L303.253 3.26459L303.273 10.7686L302.223 10.7713ZM302.2 1.88134L302.196 0.341348L303.246 0.338597L303.25 1.87859L302.2 1.88134ZM305.422 10.7629L305.394 0.164966L306.444 0.162215L306.472 10.7602L305.422 10.7629ZM308.621 10.7545L308.594 0.156584L309.644 0.153833L309.671 10.7518L308.621 10.7545ZM315.237 10.9052C314.537 10.907 313.902 10.7407 313.332 10.4062C312.771 10.0623 312.326 9.59217 311.998 8.99569C311.67 8.39922 311.505 7.72298 311.503 6.96699C311.501 6.21099 311.658 5.54324 311.974 4.96374C312.289 4.37492 312.717 3.91179 313.258 3.57437C313.808 3.23693 314.423 3.06732 315.105 3.06553C315.646 3.06412 316.127 3.16552 316.547 3.36976C316.977 3.56463 317.342 3.83434 317.641 4.17889C317.941 4.51411 318.171 4.89617 318.33 5.32509C318.49 5.74467 318.571 6.17846 318.572 6.62646C318.572 6.71979 318.568 6.82714 318.559 6.9485C318.55 7.06052 318.536 7.17722 318.518 7.29861L312.176 7.31522L312.173 6.33523L317.913 6.32019L317.41 6.74151C317.493 6.22795 317.431 5.77078 317.225 5.36999C317.028 4.95984 316.742 4.63858 316.368 4.40623C315.994 4.16454 315.574 4.04431 315.107 4.04553C314.64 4.04675 314.207 4.16922 313.806 4.41294C313.415 4.65663 313.108 4.99811 312.885 5.43736C312.662 5.86728 312.575 6.38084 312.623 6.97805C312.578 7.5755 312.672 8.09792 312.907 8.54531C313.151 8.98334 313.478 9.32315 313.89 9.56474C314.31 9.80631 314.759 9.92646 315.235 9.92522C315.785 9.92377 316.247 9.7919 316.62 9.52959C316.992 9.26728 317.295 8.93982 317.527 8.54721L318.424 9.02086C318.276 9.35725 318.048 9.67051 317.741 9.96065C317.433 10.2415 317.065 10.4711 316.636 10.6495C316.217 10.8186 315.75 10.9039 315.237 10.9052ZM323.822 10.8827C323.122 10.8846 322.492 10.7182 321.931 10.3837C321.37 10.0398 320.926 9.57431 320.597 8.98716C320.278 8.39066 320.118 7.71908 320.116 6.97242C320.114 6.21642 320.271 5.54401 320.587 4.95518C320.912 4.36632 321.349 3.90318 321.899 3.56573C322.458 3.21893 323.092 3.0446 323.802 3.04275C324.446 3.04106 325.02 3.17955 325.525 3.45823C326.03 3.73691 326.427 4.11387 326.718 4.58911L326.551 4.88355L326.538 0.109567L327.588 0.106816L327.616 10.7048L326.566 10.7075L326.562 9.02754L326.73 9.1811C326.47 9.72311 326.079 10.1441 325.557 10.4442C325.045 10.7349 324.466 10.881 323.822 10.8827ZM323.876 9.83258C324.38 9.83126 324.832 9.70407 325.233 9.45102C325.643 9.19794 325.964 8.85644 326.196 8.42649C326.437 7.98719 326.557 7.49688 326.556 6.95554C326.555 6.41421 326.432 5.9292 326.188 5.5005C325.954 5.06245 325.631 4.71796 325.22 4.46704C324.818 4.21609 324.365 4.09128 323.861 4.0926C323.366 4.09389 322.918 4.22107 322.518 4.47412C322.117 4.72717 321.8 5.06866 321.568 5.49861C321.345 5.92853 321.235 6.41882 321.236 6.96948C321.238 7.51081 321.351 8.00052 321.576 8.4386C321.81 8.86732 322.124 9.20716 322.517 9.45814C322.919 9.70908 323.372 9.8339 323.876 9.83258ZM0.400409 36.3622L0.373411 26.0583L1.42341 26.0555L1.42781 27.7355L1.25904 27.4419C1.55646 26.9652 1.95213 26.5861 2.44606 26.3048C2.94933 26.0235 3.52296 25.882 4.16696 25.8803C4.87629 25.8785 5.50674 26.0495 6.05831 26.3934C6.61919 26.7279 7.05906 27.1887 7.37794 27.7759C7.70614 28.363 7.87124 29.0346 7.87322 29.7906C7.87517 30.5373 7.7136 31.2097 7.3885 31.8079C7.07271 32.3967 6.63527 32.8645 6.07617 33.2113C5.52639 33.5488 4.89683 33.7184 4.1875 33.7203C3.5435 33.722 2.95979 33.5788 2.43637 33.2909C1.92225 32.9936 1.53382 32.5746 1.27107 32.0339L1.43867 31.8795L1.45041 36.3595L0.400409 36.3622ZM4.12875 32.6704C4.63275 32.6691 5.08042 32.5419 5.47175 32.2889C5.87243 32.0359 6.1842 31.6944 6.40707 31.2645C6.63926 30.8252 6.75464 30.3349 6.75322 29.7935C6.75178 29.2429 6.63383 28.7532 6.39937 28.3245C6.17425 27.8957 5.86069 27.5559 5.45869 27.3049C5.06604 27.054 4.61771 26.9291 4.11371 26.9305C3.60971 26.9318 3.15271 27.059 2.7427 27.312C2.34203 27.5651 2.02094 27.9113 1.77942 28.3506C1.54721 28.7805 1.43182 29.2662 1.43324 29.8075C1.43466 30.3488 1.55261 30.8385 1.78709 31.2766C2.03088 31.7053 2.35377 32.0451 2.75576 32.296C3.16709 32.547 3.62475 32.6718 4.12875 32.6704ZM9.73093 33.5378L9.71127 26.0338L10.7613 26.031L10.7645 27.263L10.624 27.0814C10.8004 26.7263 11.0657 26.4456 11.4198 26.2393C11.7833 26.033 12.2217 25.9292 12.735 25.9279L13.211 25.9266L13.2138 26.9766L12.5558 26.9783C12.0144 26.9798 11.5809 27.1489 11.2551 27.4857C10.9293 27.8226 10.7672 28.299 10.7688 28.915L10.7809 33.535L9.73093 33.5378ZM17.9758 33.6842C17.2665 33.686 16.622 33.5197 16.0425 33.1852C15.4629 32.8414 14.9997 32.376 14.6528 31.7889C14.3153 31.1924 14.1455 30.5162 14.1435 29.7602C14.1416 29.0135 14.3078 28.3457 14.6423 27.7569C14.9767 27.168 15.4282 26.7048 15.9966 26.3673C16.5744 26.0205 17.2273 25.8461 17.9553 25.8442C18.6833 25.8423 19.3324 26.0086 19.9026 26.3431C20.4821 26.6776 20.936 27.1384 21.2642 27.7255C21.6017 28.3126 21.7715 28.9842 21.7735 29.7402C21.7755 30.5055 21.6046 31.1873 21.2608 31.7855C20.9171 32.3744 20.4563 32.8377 19.8785 33.1752C19.31 33.5127 18.6758 33.6823 17.9758 33.6842ZM17.9731 32.6342C18.4771 32.6328 18.9294 32.5057 19.3301 32.2526C19.7401 31.9995 20.0612 31.6534 20.2933 31.2141C20.5349 30.7748 20.6549 30.2845 20.6535 29.7431C20.6521 29.2018 20.5295 28.7168 20.2857 28.2881C20.0512 27.8594 19.7283 27.5195 19.317 27.2686C18.915 27.0177 18.462 26.8929 17.958 26.8942C17.454 26.8955 16.997 27.0227 16.587 27.2758C16.1863 27.5288 15.8652 27.8703 15.6237 28.3003C15.3822 28.7303 15.2621 29.2159 15.2635 29.7573C15.2649 30.2986 15.3875 30.7883 15.6314 31.2263C15.8752 31.6643 16.1981 32.0088 16.6001 32.2598C17.0114 32.5107 17.4691 32.6355 17.9731 32.6342ZM24.1317 33.5L24.1148 27.046L22.6168 27.05L22.6141 26L24.1121 25.9961L24.1103 25.3241C24.1089 24.8014 24.2245 24.3624 24.4569 24.0071C24.6892 23.6425 24.9965 23.3664 25.3787 23.1787C25.7609 22.9911 26.1713 22.8966 26.61 22.8955C26.7033 22.8953 26.8107 22.9043 26.932 22.9227C27.0534 22.9317 27.1514 22.9454 27.2261 22.9639L27.2286 23.9159C27.1633 23.8974 27.0746 23.8883 26.9626 23.8886C26.8505 23.8795 26.7712 23.8751 26.7245 23.8752C26.2765 23.8764 25.9035 23.9847 25.6054 24.2001C25.3073 24.4156 25.1589 24.7893 25.1603 25.3213L25.1621 25.9933L26.9961 25.9885L26.9988 27.0385L25.1648 27.0433L25.1817 33.4973L24.1317 33.5ZM31.8504 33.6478C31.1504 33.6496 30.5153 33.4833 29.9451 33.1488C29.3842 32.8049 28.9396 32.3348 28.6114 31.7383C28.2832 31.1418 28.1181 30.4656 28.1161 29.7096C28.1141 28.9536 28.271 28.2858 28.5868 27.7063C28.9026 27.1175 29.3308 26.6544 29.8712 26.317C30.421 25.9795 31.0365 25.8099 31.7179 25.8081C32.2592 25.8067 32.7401 25.9081 33.1607 26.1123C33.5905 26.3072 33.9552 26.5769 34.2548 26.9215C34.5543 27.2567 34.784 27.6388 34.9438 28.0677C35.1036 28.4873 35.184 28.9211 35.1852 29.3691C35.1855 29.4624 35.1811 29.5697 35.1721 29.6911C35.163 29.8031 35.1493 29.9198 35.131 30.0412L28.789 30.0578L28.7864 29.0778L34.5264 29.0628L34.0235 29.4841C34.1062 28.9705 34.0443 28.5134 33.8379 28.1126C33.6408 27.7024 33.3553 27.3812 32.9814 27.1488C32.6074 26.9071 32.1871 26.7869 31.7204 26.7881C31.2538 26.7893 30.8201 26.9118 30.4194 27.1555C30.028 27.3992 29.7209 27.7407 29.4981 28.1799C29.2752 28.6099 29.1879 29.1234 29.2361 29.7206C29.191 30.3181 29.2857 30.8405 29.5202 31.2879C29.764 31.7259 30.0916 32.0657 30.5029 32.3073C30.9235 32.5489 31.3719 32.6691 31.8479 32.6678C32.3985 32.6664 32.8602 32.5345 33.2328 32.2722C33.6055 32.0099 33.9079 31.6824 34.1402 31.2898L35.0375 31.7634C34.889 32.0998 34.6612 32.4131 34.354 32.7032C34.0467 32.984 33.6786 33.2137 33.2498 33.3921C32.8302 33.5612 32.3638 33.6465 31.8504 33.6478ZM39.6517 33.6274C38.933 33.6292 38.3025 33.4489 37.7602 33.0863C37.218 32.7237 36.8247 32.2301 36.5804 31.6054L37.4613 31.1831C37.6771 31.6399 37.9767 32.0031 38.3601 32.2727C38.7528 32.5424 39.1825 32.6766 39.6492 32.6754C40.0972 32.6742 40.4749 32.5659 40.7823 32.3504C41.0897 32.1256 41.243 31.8359 41.2421 31.4812C41.2414 31.2199 41.1662 31.0147 41.0164 30.8658C40.8667 30.7075 40.6937 30.5866 40.4975 30.5031C40.3013 30.4197 40.1284 30.3594 39.979 30.3225L38.9002 30.0173C38.209 29.8231 37.709 29.5491 37.4001 29.1952C37.0911 28.8414 36.936 28.4311 36.9348 27.9645C36.9337 27.5258 37.0447 27.1428 37.2678 26.8156C37.491 26.4883 37.7936 26.2355 38.1758 26.0572C38.558 25.8789 38.9825 25.7891 39.4491 25.7879C40.0838 25.7862 40.6582 25.9527 41.1724 26.2874C41.696 26.6126 42.0658 27.069 42.282 27.6565L41.3871 28.0788C41.1994 27.6593 40.9279 27.3333 40.5726 27.1009C40.2266 26.8592 39.839 26.7388 39.4096 26.74C38.9896 26.7411 38.6539 26.8493 38.4025 27.0646C38.151 27.2799 38.0257 27.5509 38.0266 27.8776C38.0273 28.1296 38.0931 28.3301 38.2242 28.4791C38.3552 28.6281 38.5049 28.7397 38.6731 28.8139C38.8506 28.8881 39.0047 28.9437 39.1355 28.9807L40.3824 29.3414C40.9896 29.5172 41.4616 29.7913 41.7986 30.1637C42.1449 30.5362 42.3187 30.9744 42.3201 31.4784C42.3211 31.889 42.2054 32.258 41.973 32.5853C41.7498 32.9125 41.4378 33.17 41.037 33.3577C40.6361 33.5361 40.1743 33.626 39.6517 33.6274ZM46.7747 33.6087C46.056 33.6106 45.4256 33.4302 44.8833 33.0677C44.341 32.7051 43.9477 32.2114 43.7034 31.5867L44.5843 31.1644C44.8001 31.6212 45.0998 31.9844 45.4831 32.2541C45.8759 32.5237 46.3055 32.6579 46.7722 32.6567C47.2202 32.6555 47.5979 32.5472 47.9054 32.3317C48.2128 32.1069 48.366 31.8172 48.3651 31.4625C48.3644 31.2012 48.2892 30.9961 48.1395 30.8471C47.9897 30.6888 47.8167 30.568 47.6205 30.4845C47.4243 30.401 47.2515 30.3408 47.102 30.3038L46.0232 29.9987C45.3321 29.8045 44.832 29.5304 44.5231 29.1766C44.2141 28.8227 44.0591 28.4125 44.0578 27.9458C44.0567 27.5071 44.1677 27.1242 44.3908 26.7969C44.614 26.4697 44.9167 26.2169 45.2989 26.0385C45.6811 25.8602 46.1055 25.7704 46.5722 25.7692C47.2068 25.7675 47.7813 25.934 48.2955 26.2687C48.819 26.594 49.1889 27.0504 49.4051 27.6378L48.5102 28.0601C48.3224 27.6406 48.0509 27.3147 47.6956 27.0823C47.3496 26.8405 46.962 26.7202 46.5326 26.7213C46.1127 26.7224 45.7769 26.8306 45.5255 27.046C45.2741 27.2613 45.1488 27.5323 45.1496 27.8589C45.1503 28.1109 45.2161 28.3114 45.3472 28.4604C45.4783 28.6094 45.6279 28.721 45.7961 28.7952C45.9736 28.8694 46.1278 28.925 46.2585 28.962L47.5055 29.3228C48.1126 29.4985 48.5847 29.7726 48.9216 30.1451C49.2679 30.5175 49.4418 30.9557 49.4431 31.4597C49.4442 31.8704 49.3285 32.2393 49.096 32.5666C48.8728 32.8939 48.5608 33.1514 48.16 33.3391C47.7591 33.5175 47.2974 33.6073 46.7747 33.6087ZM51.2933 33.4289L51.2736 25.9249L52.3236 25.9221L52.3433 33.4261L51.2933 33.4289ZM51.27 24.5389L51.266 22.9989L52.316 22.9961L52.32 24.5361L51.27 24.5389ZM58.0069 33.5793C57.2976 33.5811 56.6532 33.4148 56.0736 33.0803C55.494 32.7365 55.0308 32.2711 54.6839 31.684C54.3464 31.0875 54.1766 30.4113 54.1746 29.6553C54.1727 28.9086 54.3389 28.2409 54.6734 27.652C55.0078 27.0631 55.4593 26.5999 56.0277 26.2624C56.6055 25.9156 57.2584 25.7412 57.9864 25.7393C58.7144 25.7374 59.3635 25.9037 59.9337 26.2382C60.5132 26.5727 60.9671 27.0335 61.2953 27.6206C61.6329 28.2078 61.8026 28.8793 61.8046 29.6353C61.8066 30.4006 61.6357 31.0824 61.292 31.6807C60.9482 32.2696 60.4874 32.7328 59.9096 33.0703C59.3411 33.4078 58.7069 33.5774 58.0069 33.5793ZM58.0042 32.5293C58.5082 32.528 58.9605 32.4008 59.3612 32.1477C59.7712 31.8946 60.0923 31.5485 60.3245 31.1092C60.566 30.6699 60.686 30.1796 60.6846 29.6382C60.6832 29.0969 60.5606 28.6119 60.3168 28.1832C60.0823 27.7545 59.7594 27.4147 59.3481 27.1637C58.9461 26.9128 58.4931 26.788 57.9891 26.7893C57.4851 26.7906 57.0281 26.9178 56.6181 27.1709C56.2175 27.4239 55.8963 27.7654 55.6548 28.1954C55.4133 28.6254 55.2932 29.111 55.2946 29.6524C55.296 30.1937 55.4187 30.6834 55.6625 31.1214C55.9063 31.5594 56.2292 31.9039 56.6312 32.1549C57.0425 32.4058 57.5002 32.5306 58.0042 32.5293ZM63.6663 33.3964L63.6466 25.8925L64.6966 25.8897L64.7004 27.3457L64.4623 27.2903C64.6477 26.8045 64.95 26.4211 65.3693 26.14C65.7979 25.8588 66.2922 25.7175 66.8522 25.7161C67.3842 25.7147 67.8605 25.8348 68.2811 26.0763C68.7111 26.3179 69.048 26.653 69.2918 27.0817C69.5449 27.501 69.6721 27.9767 69.6735 28.5087L69.6863 33.3807L68.6363 33.3834L68.6246 28.9174C68.6234 28.4601 68.5384 28.073 68.3695 27.7561C68.21 27.4392 67.9807 27.1971 67.6816 27.0299C67.3918 26.8533 67.0556 26.7655 66.6729 26.7665C66.2903 26.7675 65.9498 26.8571 65.6516 27.0352C65.3534 27.204 65.1207 27.4519 64.9536 27.779C64.7864 28.0968 64.7034 28.4797 64.7046 28.9277L64.7163 33.3937L63.6663 33.3964ZM73.8621 33.5377C73.3861 33.539 72.9612 33.4514 72.5874 33.2751C72.2136 33.0894 71.9189 32.8381 71.7034 32.5214C71.4879 32.2046 71.3796 31.8409 71.3786 31.4302C71.3775 31.0382 71.4606 30.6833 71.6278 30.3656C71.7949 30.0385 72.0555 29.7624 72.4096 29.5375C72.7637 29.3126 73.2159 29.1527 73.7663 29.058L76.7051 28.5603L76.7075 29.5123L74.0207 29.9673C73.4796 30.0621 73.0881 30.2357 72.8461 30.4884C72.6134 30.741 72.4975 31.04 72.4984 31.3853C72.4993 31.7213 72.6307 32.0056 72.8927 32.2383C73.164 32.4709 73.5096 32.5866 73.9296 32.5855C74.4429 32.5842 74.8906 32.4757 75.2727 32.26C75.6548 32.035 75.9527 31.7356 76.1664 31.3617C76.3801 30.9878 76.4863 30.5722 76.4851 30.1148L76.4801 28.2108C76.479 27.7629 76.3147 27.3993 75.9873 27.1201C75.6599 26.841 75.2348 26.7021 74.7122 26.7035C74.2549 26.7047 73.8538 26.8224 73.5091 27.0566C73.1644 27.2815 72.9085 27.5762 72.7414 27.9406L71.7881 27.4251C71.9272 27.1074 72.1458 26.8175 72.4438 26.5554C72.7511 26.2933 73.1006 26.087 73.4922 25.9367C73.8838 25.777 74.2895 25.6966 74.7095 25.6955C75.2602 25.694 75.7458 25.8001 76.1664 26.0137C76.5963 26.2272 76.9284 26.525 77.1627 26.9071C77.4064 27.2798 77.5288 27.7134 77.5301 28.2081L77.5436 33.3601L76.4936 33.3628L76.4897 31.8648L76.6441 32.0184C76.5142 32.2988 76.3095 32.556 76.0301 32.79C75.7601 33.0148 75.4385 33.1976 75.0656 33.3386C74.7019 33.4702 74.3008 33.5366 73.8621 33.5377ZM79.7033 33.3544L79.6756 22.7565L80.7256 22.7537L80.7533 33.3517L79.7033 33.3544ZM85.507 33.5072C84.7883 33.5091 84.1578 33.3288 83.6156 32.9662C83.0733 32.6036 82.68 32.11 82.4357 31.4853L83.3166 31.0629C83.5324 31.5197 83.8321 31.8829 84.2154 32.1526C84.6081 32.4222 85.0378 32.5564 85.5045 32.5552C85.9525 32.554 86.3302 32.4457 86.6376 32.2302C86.9451 32.0054 87.0983 31.7157 87.0974 31.361C87.0967 31.0997 87.0215 30.8946 86.8718 30.7456C86.722 30.5874 86.549 30.4665 86.3528 30.383C86.1566 30.2995 85.9838 30.2393 85.8343 30.2023L84.7555 29.8972C84.0643 29.703 83.5643 29.429 83.2554 29.0751C82.9464 28.7212 82.7914 28.311 82.7901 27.8443C82.789 27.4056 82.9 27.0227 83.1231 26.6954C83.3463 26.3682 83.6489 26.1154 84.0311 25.9371C84.4133 25.7587 84.8378 25.6689 85.3044 25.6677C85.9391 25.6661 86.5135 25.8326 87.0278 26.1672C87.5513 26.4925 87.9211 26.9489 88.1373 27.5363L87.2425 27.9586C87.0547 27.5391 86.7832 27.2132 86.4279 26.9808C86.0819 26.739 85.6943 26.6187 85.2649 26.6198C84.8449 26.6209 84.5092 26.7291 84.2578 26.9445C84.0063 27.1598 83.8811 27.4308 83.8819 27.7575C83.8826 28.0095 83.9484 28.2099 84.0795 28.3589C84.2105 28.5079 84.3602 28.6195 84.5284 28.6938C84.7059 28.768 84.86 28.8236 84.9908 28.8606L86.2378 29.2213C86.8449 29.397 87.3169 29.6711 87.6539 30.0436C88.0002 30.416 88.174 30.8542 88.1754 31.3582C88.1764 31.7689 88.0607 32.1379 87.8283 32.4651C87.6051 32.7924 87.2931 33.0499 86.8923 33.2376C86.4914 33.416 86.0296 33.5058 85.507 33.5072ZM95.2747 33.3976C94.6027 33.3994 94.0842 33.2047 93.7191 32.8137C93.3541 32.4227 93.1707 31.8631 93.1687 31.1351L93.1576 26.8651L91.7716 26.8688L91.7688 25.8188L92.1188 25.8179C92.4361 25.817 92.6879 25.7137 92.874 25.5079C93.0601 25.2927 93.1527 25.0265 93.1519 24.7092L93.1503 24.0792L94.2003 24.0764L94.2048 25.8124L95.8568 25.8081L95.8596 26.8581L94.2076 26.8624L94.2187 31.1324C94.2194 31.3844 94.2573 31.6083 94.3325 31.8041C94.4077 31.9906 94.5341 32.1396 94.7117 32.2511C94.8986 32.3626 95.1461 32.418 95.4541 32.4171C95.5288 32.417 95.6174 32.4121 95.7201 32.4025C95.8227 32.3929 95.9114 32.3833 95.986 32.3738L95.9885 33.3118C95.8765 33.34 95.7506 33.359 95.6106 33.3687C95.4707 33.3878 95.3587 33.3974 95.2747 33.3976ZM97.8322 33.3069L97.8044 22.709L98.8544 22.7062L98.8663 27.2562L98.6282 27.2008C98.8136 26.715 99.1159 26.3315 99.5352 26.0504C99.9638 25.7693 100.458 25.628 101.018 25.6265C101.55 25.6252 102.026 25.7452 102.447 25.9868C102.877 26.2283 103.214 26.5635 103.458 26.9922C103.711 27.4115 103.838 27.8872 103.839 28.4192L103.852 33.2911L102.802 33.2939L102.79 28.8279C102.789 28.3706 102.704 27.9835 102.535 27.6666C102.367 27.3497 102.133 27.1076 101.834 26.9404C101.544 26.7638 101.212 26.676 100.839 26.677C100.465 26.678 100.13 26.7675 99.8315 26.9457C99.5333 27.1144 99.296 27.3624 99.1195 27.6895C98.9523 28.0073 98.8693 28.3902 98.8705 28.8382L98.8822 33.3042L97.8322 33.3069ZM105.858 33.2859L105.838 25.7819L106.888 25.7792L106.891 27.0112L106.751 26.8295C106.927 26.4744 107.192 26.1937 107.546 25.9874C107.91 25.7812 108.348 25.6773 108.862 25.676L109.338 25.6747L109.34 26.7247L108.682 26.7265C108.141 26.7279 107.707 26.897 107.382 27.2339C107.056 27.5707 106.894 28.0472 106.895 28.6632L106.908 33.2831L105.858 33.2859ZM114.102 33.4323C113.393 33.4342 112.749 33.2678 112.169 32.9334C111.59 32.5895 111.126 32.1241 110.779 31.537C110.442 30.9405 110.272 30.2643 110.27 29.5083C110.268 28.7617 110.434 28.0939 110.769 27.505C111.103 26.9161 111.555 26.4529 112.123 26.1155C112.701 25.7686 113.354 25.5942 114.082 25.5923C114.81 25.5904 115.459 25.7567 116.029 26.0912C116.609 26.4257 117.063 26.8865 117.391 27.4737C117.728 28.0608 117.898 28.7323 117.9 29.4883C117.902 30.2537 117.731 30.9354 117.387 31.5337C117.044 32.1226 116.583 32.5858 116.005 32.9233C115.437 33.2608 114.802 33.4305 114.102 33.4323ZM114.1 32.3823C114.604 32.381 115.056 32.2538 115.457 32.0007C115.867 31.7477 116.188 31.4015 116.42 30.9622C116.661 30.5229 116.782 30.0326 116.78 29.4913C116.779 28.9499 116.656 28.4649 116.412 28.0362C116.178 27.6075 115.855 27.2677 115.444 27.0168C115.042 26.7658 114.589 26.641 114.085 26.6423C113.581 26.6436 113.124 26.7708 112.714 27.0239C112.313 27.277 111.992 27.6185 111.75 28.0484C111.509 28.4784 111.389 28.9641 111.39 29.5054C111.392 30.0467 111.514 30.5364 111.758 30.9744C112.002 31.4125 112.325 31.7569 112.727 32.0079C113.138 32.2588 113.596 32.3836 114.1 32.3823ZM122.422 33.4105C121.9 33.4119 121.423 33.2918 120.993 33.0502C120.563 32.7994 120.222 32.4549 119.969 32.0169C119.725 31.5696 119.602 31.0565 119.601 30.4779L119.588 25.7459L120.638 25.7431L120.65 30.3491C120.651 30.7505 120.732 31.1049 120.891 31.4125C121.06 31.7107 121.289 31.9435 121.579 32.1107C121.878 32.2779 122.219 32.361 122.601 32.36C122.984 32.359 123.325 32.2741 123.623 32.1053C123.921 31.9272 124.154 31.6793 124.321 31.3615C124.488 31.0344 124.571 30.6469 124.57 30.1989L124.558 25.7329L125.608 25.7301L125.628 33.2341L124.578 33.2368L124.574 31.7808L124.812 31.8362C124.636 32.322 124.334 32.7055 123.905 32.9866C123.477 33.2677 122.982 33.409 122.422 33.4105ZM131.351 36.2991C130.838 36.3005 130.362 36.2224 129.923 36.0648C129.493 35.9073 129.119 35.689 128.801 35.4098C128.492 35.1399 128.253 34.8232 128.084 34.4597L129.049 33.9391C129.199 34.2934 129.466 34.6007 129.849 34.861C130.233 35.1214 130.723 35.2507 131.32 35.2492C131.778 35.248 132.198 35.1582 132.58 34.9799C132.962 34.8015 133.269 34.5394 133.502 34.1935C133.734 33.8475 133.85 33.4226 133.848 32.9186L133.844 31.2526L134.012 31.4061C133.752 31.9481 133.366 32.3691 132.854 32.6692C132.341 32.9598 131.782 33.106 131.175 33.1076C130.475 33.1094 129.844 32.943 129.284 32.6085C128.723 32.274 128.278 31.8225 127.95 31.254C127.631 30.6762 127.471 30.0373 127.469 29.3373C127.467 28.6279 127.624 27.9882 127.94 27.418C128.265 26.8478 128.703 26.394 129.252 26.0566C129.811 25.7191 130.446 25.5494 131.155 25.5476C131.762 25.546 132.313 25.6846 132.808 25.9633C133.313 26.2419 133.711 26.6189 134.001 27.0941L133.834 27.3886L133.829 25.7086L134.879 25.7058L134.898 32.9158C134.9 33.5598 134.748 34.1342 134.441 34.639C134.144 35.1531 133.725 35.5556 133.184 35.8463C132.653 36.1464 132.042 36.2973 131.351 36.2991ZM131.228 32.0574C131.713 32.0561 132.152 31.9337 132.543 31.69C132.934 31.4369 133.246 31.1048 133.479 30.6935C133.72 30.2729 133.84 29.8152 133.839 29.3206C133.838 28.8259 133.715 28.3736 133.471 27.9635C133.237 27.5441 132.923 27.2136 132.531 26.972C132.138 26.721 131.699 26.5962 131.214 26.5974C130.719 26.5987 130.271 26.7259 129.871 26.979C129.47 27.2227 129.154 27.5502 128.921 27.9614C128.698 28.3727 128.588 28.8303 128.589 29.3343C128.59 29.829 128.703 30.286 128.929 30.7054C129.163 31.1155 129.476 31.446 129.869 31.697C130.271 31.9386 130.724 32.0587 131.228 32.0574ZM137.057 33.2041L137.029 22.6062L138.079 22.6034L138.091 27.1534L137.853 27.098C138.038 26.6122 138.34 26.2288 138.76 25.9477C139.188 25.6665 139.683 25.5252 140.243 25.5238C140.775 25.5224 141.251 25.6425 141.671 25.884C142.101 26.1256 142.438 26.4607 142.682 26.8894C142.935 27.3087 143.062 27.7844 143.064 28.3164L143.077 33.1884L142.027 33.1911L142.015 28.7251C142.014 28.2678 141.929 27.8807 141.76 27.5638C141.591 27.2469 141.357 27.0049 141.058 26.8376C140.768 26.6611 140.437 26.5733 140.063 26.5742C139.69 26.5752 139.354 26.6648 139.056 26.8429C138.758 27.0117 138.52 27.2596 138.344 27.5868C138.177 27.9045 138.094 28.2874 138.095 28.7354L138.107 33.2014L137.057 33.2041ZM150.891 33.3359C150.154 33.3378 149.505 33.1669 148.944 32.823C148.383 32.4791 147.943 32.0136 147.624 31.4265C147.305 30.83 147.145 30.1584 147.143 29.4117C147.141 28.665 147.298 27.9973 147.614 27.4085C147.93 26.8196 148.367 26.3565 148.926 26.019C149.485 25.6722 150.133 25.4979 150.871 25.4959C151.337 25.4947 151.776 25.5776 152.187 25.7445C152.599 25.9114 152.963 26.1391 153.281 26.4276C153.599 26.7068 153.838 27.0328 153.998 27.4057L153.047 27.8982C152.859 27.4974 152.574 27.1715 152.191 26.9205C151.807 26.6695 151.368 26.5446 150.874 26.5459C150.379 26.5472 149.931 26.6744 149.531 26.9274C149.139 27.1711 148.827 27.5126 148.595 27.9519C148.372 28.3818 148.262 28.8721 148.263 29.4228C148.265 29.9641 148.378 30.4538 148.603 30.8919C148.837 31.3206 149.151 31.6605 149.544 31.9114C149.946 32.1624 150.394 32.2872 150.889 32.2859C151.383 32.2846 151.817 32.1575 152.19 31.9045C152.572 31.6515 152.86 31.3147 153.055 30.8942L154.008 31.4097C153.851 31.7741 153.613 32.1014 153.297 32.3916C152.98 32.6818 152.617 32.9114 152.207 33.0805C151.796 33.2495 151.358 33.3347 150.891 33.3359ZM159.37 33.3137C158.661 33.3155 158.016 33.1492 157.437 32.8147C156.857 32.4709 156.394 32.0055 156.047 31.4184C155.709 30.8219 155.54 30.1457 155.538 29.3897C155.536 28.643 155.702 27.9753 156.036 27.3864C156.371 26.7975 156.822 26.3343 157.391 25.9968C157.968 25.65 158.621 25.4756 159.349 25.4737C160.077 25.4718 160.726 25.6381 161.297 25.9726C161.876 26.3071 162.33 26.7679 162.658 27.355C162.996 27.9422 163.166 28.6137 163.168 29.3697C163.17 30.1351 162.999 30.8168 162.655 31.4151C162.311 32.004 161.85 32.4672 161.273 32.8047C160.704 33.1422 160.07 33.3119 159.37 33.3137ZM159.367 32.2637C159.871 32.2624 160.323 32.1352 160.724 31.8821C161.134 31.6291 161.455 31.2829 161.687 30.8436C161.929 30.4043 162.049 29.914 162.048 29.3727C162.046 28.8313 161.924 28.3463 161.68 27.9176C161.445 27.4889 161.122 27.1491 160.711 26.8981C160.309 26.6472 159.856 26.5224 159.352 26.5237C158.848 26.525 158.391 26.6522 157.981 26.9053C157.58 27.1584 157.259 27.4999 157.018 27.9298C156.776 28.3598 156.656 28.8454 156.658 29.3868C156.659 29.9281 156.782 30.4178 157.025 30.8558C157.269 31.2938 157.592 31.6383 157.994 31.8893C158.405 32.1402 158.863 32.265 159.367 32.2637ZM165.029 33.1309L165.01 25.6269L166.06 25.6241L166.063 27.0801L165.825 27.0247C166.011 26.5389 166.313 26.1555 166.732 25.8744C167.161 25.5932 167.655 25.4519 168.215 25.4505C168.747 25.4491 169.223 25.5692 169.644 25.8107C170.074 26.0523 170.411 26.3874 170.655 26.8161C170.908 27.2354 171.035 27.7111 171.036 28.2431L171.049 33.1151L169.999 33.1178L169.988 28.6518C169.986 28.1945 169.901 27.8074 169.732 27.4905C169.573 27.1736 169.344 26.9315 169.045 26.7643C168.755 26.5877 168.419 26.5 168.036 26.501C167.653 26.502 167.313 26.5915 167.015 26.7696C166.716 26.9384 166.484 27.1864 166.317 27.5135C166.149 27.8312 166.066 28.2141 166.068 28.6621L166.079 33.1281L165.029 33.1309ZM175.659 33.271C174.94 33.2729 174.31 33.0925 173.768 32.73C173.225 32.3674 172.832 31.8737 172.588 31.249L173.469 30.8267C173.684 31.2835 173.984 31.6467 174.367 31.9164C174.76 32.186 175.19 32.3202 175.657 32.319C176.105 32.3178 176.482 32.2095 176.79 31.994C177.097 31.7692 177.25 31.4795 177.249 31.1248C177.249 30.8635 177.174 30.6584 177.024 30.5094C176.874 30.3511 176.701 30.2303 176.505 30.1468C176.309 30.0633 176.136 30.0031 175.986 29.9661L174.908 29.661C174.216 29.4668 173.716 29.1927 173.407 28.8389C173.098 28.485 172.943 28.0748 172.942 27.6081C172.941 27.1694 173.052 26.7865 173.275 26.4592C173.498 26.132 173.801 25.8792 174.183 25.7008C174.565 25.5225 174.99 25.4327 175.456 25.4315C176.091 25.4298 176.666 25.5963 177.18 25.931C177.703 26.2563 178.073 26.7127 178.289 27.3001L177.394 27.7224C177.207 27.3029 176.935 26.977 176.58 26.7446C176.234 26.5028 175.846 26.3825 175.417 26.3836C174.997 26.3847 174.661 26.4929 174.41 26.7083C174.158 26.9236 174.033 27.1946 174.034 27.5212C174.035 27.7732 174.1 27.9737 174.232 28.1227C174.363 28.2717 174.512 28.3833 174.68 28.4576C174.858 28.5318 175.012 28.5874 175.143 28.6243L176.39 28.9851C176.997 29.1608 177.469 29.4349 177.806 29.8074C178.152 30.1798 178.326 30.618 178.327 31.122C178.328 31.5327 178.213 31.9016 177.98 32.2289C177.757 32.5562 177.445 32.8137 177.044 33.0014C176.643 33.1798 176.182 33.2696 175.659 33.271ZM182.838 33.2522C182.315 33.2536 181.839 33.1335 181.409 32.8919C180.979 32.6411 180.638 32.2966 180.384 31.8586C180.141 31.4113 180.018 30.8982 180.016 30.3196L180.004 25.5876L181.054 25.5848L181.066 30.1908C181.067 30.5922 181.147 30.9466 181.307 31.2542C181.476 31.5524 181.705 31.7852 181.995 31.9524C182.294 32.1196 182.635 32.2027 183.017 32.2017C183.4 32.2007 183.74 32.1158 184.039 31.947C184.337 31.7689 184.57 31.521 184.737 31.2032C184.904 30.8761 184.987 30.4886 184.986 30.0406L184.974 25.5746L186.024 25.5718L186.044 33.0758L184.994 33.0785L184.99 31.6226L185.228 31.6779C185.052 32.1637 184.75 32.5472 184.321 32.8283C183.892 33.1094 183.398 33.2507 182.838 33.2522ZM188.203 33.0701L188.175 22.4722L189.225 22.4694L189.253 33.0674L188.203 33.0701ZM194.272 33.1382C193.6 33.14 193.082 32.9454 192.717 32.5543C192.352 32.1633 192.168 31.6037 192.166 30.8757L192.155 26.6058L190.769 26.6094L190.767 25.5594L191.117 25.5585C191.434 25.5576 191.686 25.4543 191.872 25.2485C192.058 25.0333 192.15 24.7671 192.15 24.4498L192.148 23.8198L193.198 23.817L193.203 25.553L194.855 25.5487L194.857 26.5987L193.205 26.603L193.216 30.873C193.217 31.125 193.255 31.3489 193.33 31.5447C193.405 31.7312 193.532 31.8802 193.709 31.9917C193.896 32.1032 194.144 32.1586 194.452 32.1578C194.526 32.1576 194.615 32.1527 194.718 32.1431C194.82 32.1335 194.909 32.1239 194.984 32.1144L194.986 33.0524C194.874 33.0807 194.748 33.0997 194.608 33.1094C194.468 33.1284 194.356 33.138 194.272 33.1382ZM196.83 33.0475L196.81 25.5436L197.86 25.5408L197.88 33.0448L196.83 33.0475ZM196.807 24.1576L196.803 22.6176L197.853 22.6148L197.857 24.1548L196.807 24.1576ZM200.029 33.0392L200.009 25.5352L201.059 25.5324L201.063 26.9884L200.825 26.933C201.01 26.4472 201.313 26.0638 201.732 25.7827C202.161 25.5015 202.655 25.3602 203.215 25.3588C203.747 25.3574 204.223 25.4775 204.644 25.719C205.074 25.9606 205.411 26.2957 205.655 26.7244C205.908 27.1437 206.035 27.6194 206.036 28.1514L206.049 33.0234L204.999 33.0261L204.987 28.5601C204.986 28.1028 204.901 27.7157 204.732 27.3988C204.573 27.0819 204.344 26.8398 204.044 26.6726C203.755 26.496 203.418 26.4082 203.036 26.4092C202.653 26.4103 202.313 26.4998 202.014 26.6779C201.716 26.8467 201.484 27.0947 201.316 27.4218C201.149 27.7395 201.066 28.1224 201.067 28.5704L201.079 33.0364L200.029 33.0392ZM211.619 36.0888C211.105 36.0901 210.629 36.0121 210.19 35.8545C209.76 35.697 209.386 35.4786 209.068 35.1995C208.759 34.9296 208.521 34.6129 208.352 34.2493L209.316 33.7288C209.467 34.0831 209.733 34.3904 210.117 34.6507C210.5 34.9111 210.99 35.0404 211.588 35.0389C212.045 35.0377 212.465 34.9479 212.847 34.7696C213.229 34.5912 213.537 34.3291 213.769 33.9832C214.001 33.6372 214.117 33.2122 214.116 32.7082L214.111 31.0422L214.28 31.1958C214.02 31.7378 213.634 32.1588 213.121 32.4588C212.608 32.7495 212.049 32.8957 211.442 32.8972C210.742 32.8991 210.112 32.7327 209.551 32.3982C208.99 32.0637 208.545 31.6122 208.217 31.0437C207.898 30.4659 207.738 29.8269 207.736 29.1269C207.734 28.4176 207.891 27.7779 208.207 27.2077C208.532 26.6375 208.97 26.1837 209.52 25.8463C210.079 25.5088 210.713 25.3391 211.422 25.3373C212.029 25.3357 212.58 25.4742 213.075 25.7529C213.58 26.0316 213.978 26.4086 214.268 26.8838L214.101 27.1783L214.097 25.4983L215.147 25.4955L215.166 32.7055C215.167 33.3495 215.015 33.9239 214.708 34.4287C214.411 34.9428 213.992 35.3452 213.451 35.636C212.92 35.9361 212.309 36.087 211.619 36.0888ZM211.495 31.8471C211.981 31.8458 212.419 31.7233 212.81 31.4797C213.202 31.2266 213.514 30.8945 213.746 30.4832C213.987 30.0626 214.108 29.6049 214.106 29.1103C214.105 28.6156 213.982 28.1632 213.739 27.7532C213.504 27.3338 213.191 27.0033 212.798 26.7617C212.405 26.5107 211.966 26.3859 211.481 26.3871C210.986 26.3884 210.539 26.5156 210.138 26.7686C209.737 27.0124 209.421 27.3399 209.189 27.7511C208.966 28.1624 208.855 28.62 208.856 29.124C208.858 29.6187 208.971 30.0757 209.196 30.4951C209.43 30.9052 209.744 31.2357 210.136 31.4867C210.538 31.7283 210.991 31.8484 211.495 31.8471ZM217.371 34.8137L217.369 34.3237C217.649 34.2483 217.854 34.1031 217.984 33.8881C218.114 33.6731 218.179 33.3743 218.178 32.9916L217.646 32.993L217.642 31.453L218.762 31.4501L218.765 32.6261C218.767 33.2327 218.651 33.7184 218.419 34.083C218.186 34.4569 217.837 34.7005 217.371 34.8137ZM225.647 33.14C225.171 33.1413 224.746 33.0537 224.372 32.8774C223.998 32.6917 223.704 32.4405 223.488 32.1237C223.273 31.8069 223.164 31.4432 223.163 31.0325C223.162 30.6405 223.245 30.2856 223.412 29.9679C223.58 29.6408 223.84 29.3647 224.194 29.1398C224.548 28.9149 225.001 28.755 225.551 28.6603L228.49 28.1626L228.492 29.1146L225.805 29.5696C225.264 29.6644 224.873 29.838 224.631 30.0907C224.398 30.3433 224.282 30.6423 224.283 30.9876C224.284 31.3236 224.415 31.6079 224.677 31.8406C224.949 32.0732 225.294 32.1889 225.714 32.1878C226.228 32.1865 226.675 32.078 227.057 31.8623C227.439 31.6373 227.737 31.3379 227.951 30.964C228.165 30.5901 228.271 30.1745 228.27 29.7171L228.265 27.8132C228.264 27.3652 228.099 27.0016 227.772 26.7224C227.445 26.4433 227.019 26.3044 226.497 26.3058C226.039 26.307 225.638 26.4247 225.294 26.6589C224.949 26.8838 224.693 27.1785 224.526 27.5429L223.573 27.0274C223.712 26.7097 223.93 26.4198 224.228 26.1577C224.536 25.8956 224.885 25.6893 225.277 25.539C225.668 25.3793 226.074 25.2989 226.494 25.2978C227.045 25.2963 227.53 25.4024 227.951 25.616C228.381 25.8295 228.713 26.1273 228.947 26.5094C229.191 26.8821 229.313 27.3157 229.315 27.8104L229.328 32.9624L228.278 32.9651L228.274 31.4671L228.429 31.6207C228.299 31.9011 228.094 32.1583 227.815 32.3923C227.545 32.6171 227.223 32.7999 226.85 32.9409C226.487 33.0725 226.085 33.1389 225.647 33.14ZM231.488 32.9567L231.468 25.4527L232.518 25.45L232.522 26.906L232.284 26.8506C232.469 26.3648 232.772 25.9813 233.191 25.7002C233.62 25.4191 234.114 25.2778 234.674 25.2763C235.206 25.275 235.682 25.395 236.103 25.6366C236.533 25.8781 236.87 26.2133 237.113 26.642C237.367 27.0613 237.494 27.537 237.495 28.069L237.508 32.941L236.458 32.9437L236.446 28.4777C236.445 28.0204 236.36 27.6333 236.191 27.3164C236.032 26.9995 235.802 26.7574 235.503 26.5902C235.214 26.4136 234.877 26.3258 234.495 26.3268C234.112 26.3278 233.772 26.4174 233.473 26.5955C233.175 26.7643 232.942 27.0122 232.775 27.3393C232.608 27.6571 232.525 28.04 232.526 28.488L232.538 32.954L231.488 32.9567ZM241.684 33.098C241.208 33.0993 240.783 33.0117 240.409 32.8353C240.035 32.6497 239.741 32.3984 239.525 32.0817C239.31 31.7649 239.201 31.4012 239.2 30.9905C239.199 30.5985 239.282 30.2436 239.449 29.9259C239.617 29.5987 239.877 29.3227 240.231 29.0978C240.585 28.8729 241.038 28.713 241.588 28.6182L244.527 28.1205L244.529 29.0725L241.842 29.5276C241.301 29.6223 240.91 29.796 240.668 30.0487C240.435 30.3013 240.319 30.6002 240.32 30.9456C240.321 31.2816 240.452 31.5659 240.714 31.7985C240.986 32.0312 241.331 32.1469 241.751 32.1458C242.265 32.1445 242.712 32.036 243.094 31.8203C243.477 31.5953 243.774 31.2959 243.988 30.922C244.202 30.5481 244.308 30.1325 244.307 29.6751L244.302 27.7711C244.301 27.3231 244.136 26.9596 243.809 26.6804C243.482 26.4013 243.057 26.2624 242.534 26.2638C242.077 26.265 241.676 26.3827 241.331 26.6169C240.986 26.8418 240.73 27.1365 240.563 27.5009L239.61 26.9854C239.749 26.6677 239.967 26.3778 240.265 26.1157C240.573 25.8536 240.922 25.6473 241.314 25.497C241.705 25.3373 242.111 25.2569 242.531 25.2558C243.082 25.2543 243.568 25.3604 243.988 25.5739C244.418 25.7875 244.75 26.0853 244.984 26.4673C245.228 26.84 245.351 27.2737 245.352 27.7684L245.365 32.9204L244.315 32.9231L244.311 31.4251L244.466 31.5787C244.336 31.8591 244.131 32.1163 243.852 32.3503C243.582 32.575 243.26 32.7579 242.887 32.8989C242.524 33.0305 242.122 33.0969 241.684 33.098ZM247.525 32.9147L247.497 22.3167L248.547 22.314L248.575 32.912L247.525 32.9147ZM250.886 35.9859C250.737 35.9863 250.583 35.9727 250.424 35.9451C250.275 35.9268 250.125 35.8899 249.976 35.8343L249.973 34.8543C250.067 34.8634 250.183 34.8771 250.323 34.8954C250.473 34.923 250.622 34.9366 250.772 34.9362C251.229 34.935 251.579 34.8361 251.821 34.6395C252.063 34.4522 252.3 34.0875 252.532 33.5456L253.005 32.4243L252.979 33.3484L249.781 25.4048L250.915 25.4018L253.536 31.961L253.242 31.9617L255.815 25.389L256.977 25.3859L253.569 33.8509C253.42 34.2153 253.23 34.5611 252.997 34.8884C252.774 35.2156 252.49 35.4777 252.145 35.6746C251.801 35.8808 251.381 35.9846 250.886 35.9859ZM261.1 32.9631C260.428 32.9649 259.91 32.7703 259.545 32.3792C259.18 31.9882 258.996 31.4286 258.994 30.7006L258.983 26.4307L257.597 26.4343L257.594 25.3843L257.944 25.3834C258.262 25.3825 258.513 25.2792 258.7 25.0734C258.886 24.8582 258.978 24.592 258.978 24.2747L258.976 23.6447L260.026 23.6419L260.03 25.3779L261.682 25.3736L261.685 26.4236L260.033 26.4279L260.044 30.6979C260.045 30.9499 260.083 31.1738 260.158 31.3696C260.233 31.5561 260.36 31.7051 260.537 31.8166C260.724 31.9281 260.972 31.9835 261.28 31.9827C261.354 31.9825 261.443 31.9776 261.546 31.968C261.648 31.9584 261.737 31.9488 261.812 31.9393L261.814 32.8773C261.702 32.9056 261.576 32.9246 261.436 32.9343C261.296 32.9533 261.184 32.9629 261.1 32.9631ZM263.658 32.8724L263.638 25.3685L264.688 25.3657L264.708 32.8697L263.658 32.8724ZM263.634 23.9825L263.63 22.4425L264.68 22.4397L264.684 23.9797L263.634 23.9825ZM270.287 33.0231C269.55 33.025 268.901 32.854 268.34 32.5102C267.779 32.1663 267.339 31.7008 267.02 31.1136C266.702 30.5171 266.541 29.8455 266.539 29.0989C266.537 28.3522 266.694 27.6845 267.01 27.0956C267.326 26.5068 267.763 26.0437 268.322 25.7062C268.881 25.3594 269.53 25.185 270.267 25.1831C270.734 25.1819 271.172 25.2647 271.584 25.4316C271.995 25.5986 272.359 25.8263 272.677 26.1148C272.995 26.3939 273.234 26.72 273.394 27.0929L272.443 27.5854C272.255 27.1846 271.97 26.8586 271.587 26.6076C271.203 26.3566 270.764 26.2318 270.27 26.2331C269.775 26.2344 269.327 26.3616 268.927 26.6146C268.535 26.8583 268.223 27.1998 267.991 27.6391C267.768 28.069 267.658 28.5593 267.659 29.1099C267.661 29.6513 267.774 30.141 267.999 30.5791C268.233 31.0078 268.547 31.3476 268.94 31.5986C269.342 31.8495 269.79 31.9744 270.285 31.9731C270.779 31.9718 271.213 31.8446 271.586 31.5917C271.968 31.3387 272.256 31.0019 272.451 30.5814L273.404 31.0969C273.247 31.4613 273.01 31.7886 272.693 32.0788C272.376 32.3689 272.013 32.5985 271.603 32.7676C271.193 32.9367 270.754 33.0218 270.287 33.0231ZM277.856 33.0032C277.137 33.0051 276.507 32.8248 275.965 32.4622C275.422 32.0996 275.029 31.606 274.785 30.9813L275.666 30.559C275.881 31.0157 276.181 31.3789 276.564 31.6486C276.957 31.9183 277.387 32.0525 277.853 32.0512C278.301 32.0501 278.679 31.9417 278.987 31.7263C279.294 31.5015 279.447 31.2117 279.446 30.8571C279.446 30.5957 279.37 30.3906 279.221 30.2416C279.071 30.0834 278.898 29.9625 278.702 29.879C278.506 29.7955 278.333 29.7353 278.183 29.6984L277.104 29.3932C276.413 29.199 275.913 28.925 275.604 28.5711C275.295 28.2173 275.14 27.807 275.139 27.3403C275.138 26.9017 275.249 26.5187 275.472 26.1915C275.695 25.8642 275.998 25.6114 276.38 25.4331C276.762 25.2547 277.187 25.165 277.653 25.1637C278.288 25.1621 278.862 25.3286 279.377 25.6632C279.9 25.9885 280.27 26.4449 280.486 27.0323L279.591 27.4547C279.404 27.0352 279.132 26.7092 278.777 26.4768C278.431 26.235 278.043 26.1147 277.614 26.1158C277.194 26.1169 276.858 26.2252 276.607 26.4405C276.355 26.6558 276.23 26.9268 276.231 27.2535C276.232 27.5055 276.297 27.706 276.428 27.855C276.559 28.0039 276.709 28.1156 276.877 28.1898C277.055 28.264 277.209 28.3196 277.34 28.3566L278.587 28.7173C279.194 28.893 279.666 29.1671 280.003 29.5396C280.349 29.912 280.523 30.3502 280.524 30.8542C280.525 31.2649 280.41 31.6339 280.177 31.9611C279.954 32.2884 279.642 32.5459 279.241 32.7336C278.84 32.912 278.379 33.0019 277.856 33.0032ZM282.421 34.6433L282.42 34.1533C282.7 34.0779 282.905 33.9327 283.035 33.7177C283.165 33.5027 283.23 33.2038 283.229 32.8212L282.697 32.8225L282.692 31.2826L283.812 31.2796L283.816 32.4556C283.817 33.0623 283.702 33.5479 283.469 33.9125C283.237 34.2865 282.888 34.5301 282.421 34.6433ZM290.697 32.9696C290.221 32.9708 289.796 32.8833 289.423 32.7069C289.049 32.5212 288.754 32.27 288.539 31.9532C288.323 31.6365 288.215 31.2728 288.214 30.8621C288.213 30.4701 288.296 30.1152 288.463 29.7974C288.63 29.4703 288.891 29.1943 289.245 28.9694C289.599 28.7445 290.051 28.5846 290.602 28.4898L293.54 27.9921L293.543 28.9441L290.856 29.3992C290.315 29.4939 289.923 29.6676 289.681 29.9202C289.449 30.1728 289.333 30.4718 289.334 30.8172C289.335 31.1532 289.466 31.4375 289.728 31.6701C289.999 31.9027 290.345 32.0185 290.765 32.0174C291.278 32.0161 291.726 31.9076 292.108 31.6919C292.49 31.4669 292.788 31.1674 293.002 30.7935C293.215 30.4196 293.322 30.004 293.32 29.5467L293.315 27.6427C293.314 27.1947 293.15 26.8311 292.822 26.552C292.495 26.2729 292.07 26.134 291.547 26.1353C291.09 26.1365 290.689 26.2543 290.344 26.4885C290 26.7134 289.744 27.0081 289.577 27.3725L288.623 26.857C288.762 26.5393 288.981 26.2494 289.279 25.9873C289.586 25.7251 289.936 25.5189 290.327 25.3685C290.719 25.2088 291.125 25.1284 291.545 25.1273C292.095 25.1259 292.581 25.232 293.002 25.4455C293.431 25.6591 293.764 25.9569 293.998 26.3389C294.242 26.7116 294.364 27.1453 294.365 27.64L294.379 32.7919L293.329 32.7947L293.325 31.2967L293.479 31.4503C293.349 31.7306 293.145 31.9878 292.865 32.2219C292.595 32.4466 292.274 32.6295 291.901 32.7704C291.537 32.9021 291.136 32.9684 290.697 32.9696ZM296.539 32.7863L296.519 25.2823L297.569 25.2796L297.573 26.7356L297.335 26.6802C297.52 26.1944 297.822 25.8109 298.242 25.5298C298.67 25.2487 299.164 25.1074 299.724 25.1059C300.256 25.1045 300.733 25.2246 301.153 25.4662C301.583 25.7077 301.92 26.0428 302.164 26.4715C302.417 26.8909 302.544 27.3665 302.546 27.8985L302.559 32.7705L301.509 32.7733L301.497 28.3073C301.496 27.8499 301.411 27.4628 301.242 27.1459C301.082 26.829 300.853 26.587 300.554 26.4197C300.264 26.2432 299.928 26.1554 299.545 26.1564C299.163 26.1574 298.822 26.2469 298.524 26.4251C298.226 26.5938 297.993 26.8418 297.826 27.1689C297.659 27.4867 297.576 27.8695 297.577 28.3175L297.589 32.7835L296.539 32.7863ZM307.952 32.9244C307.252 32.9262 306.622 32.7599 306.061 32.4253C305.5 32.0815 305.056 31.616 304.727 31.0288C304.408 30.4323 304.248 29.7607 304.246 29.0141C304.244 28.2581 304.401 27.5857 304.717 26.9968C305.042 26.408 305.479 25.9448 306.029 25.6074C306.588 25.2606 307.222 25.0863 307.932 25.0844C308.576 25.0827 309.15 25.2212 309.655 25.4999C310.16 25.7786 310.557 26.1555 310.848 26.6308L310.681 26.9252L310.668 22.1512L311.718 22.1485L311.746 32.7464L310.696 32.7492L310.691 31.0692L310.86 31.2228C310.6 31.7648 310.209 32.1858 309.687 32.4858C309.175 32.7765 308.596 32.9227 307.952 32.9244ZM308.006 31.8742C308.51 31.8729 308.962 31.7457 309.363 31.4927C309.773 31.2396 310.094 30.8981 310.326 30.4681C310.567 30.0288 310.687 29.5385 310.686 28.9972C310.685 28.4559 310.562 27.9709 310.318 27.5422C310.084 27.1041 309.761 26.7596 309.35 26.5087C308.948 26.2577 308.495 26.1329 307.991 26.1343C307.496 26.1355 307.048 26.2627 306.648 26.5158C306.247 26.7688 305.93 27.1103 305.698 27.5403C305.475 27.9702 305.365 28.4605 305.366 29.0111C305.367 29.5525 305.481 30.0422 305.706 30.4803C305.94 30.909 306.254 31.2488 306.647 31.4998C307.049 31.7507 307.502 31.8756 308.006 31.8742ZM316.281 32.7346L316.261 25.2306L317.311 25.2278L317.331 32.7318L316.281 32.7346ZM316.257 23.8446L316.253 22.3046L317.303 22.3018L317.307 23.8418L316.257 23.8446ZM319.48 32.7262L319.46 25.2222L320.51 25.2194L320.514 26.6754L320.276 26.6201C320.461 26.1342 320.764 25.7508 321.183 25.4697C321.611 25.1886 322.106 25.0473 322.666 25.0458C323.198 25.0444 323.674 25.1645 324.095 25.4061C324.525 25.6476 324.862 25.9827 325.105 26.4114C325.358 26.8307 325.486 27.3064 325.487 27.8384L325.5 32.7104L324.45 32.7132L324.438 28.2472C324.437 27.7898 324.352 27.4027 324.183 27.0858C324.024 26.7689 323.794 26.5268 323.495 26.3596C323.205 26.1831 322.869 26.0953 322.486 26.0963C322.104 26.0973 321.763 26.1868 321.465 26.3649C321.167 26.5337 320.934 26.7817 320.767 27.1088C320.6 27.4266 320.517 27.8094 320.518 28.2574L320.53 32.7234L319.48 32.7262ZM330.894 32.8643C330.194 32.8661 329.563 32.6998 329.002 32.3652C328.441 32.0214 327.997 31.5559 327.669 30.9687C327.35 30.3722 327.189 29.7006 327.187 28.954C327.185 28.198 327.342 27.5256 327.658 26.9367C327.983 26.3479 328.421 25.8847 328.97 25.5473C329.53 25.2005 330.164 25.0262 330.873 25.0243C331.517 25.0226 332.091 25.1611 332.596 25.4398C333.101 25.7185 333.499 26.0954 333.789 26.5707L333.622 26.8651L333.609 22.0911L334.659 22.0884L334.687 32.6863L333.637 32.6891L333.633 31.0091L333.801 31.1626C333.541 31.7047 333.15 32.1257 332.629 32.4257C332.116 32.7164 331.538 32.8626 330.894 32.8643ZM330.947 31.8141C331.451 31.8128 331.903 31.6856 332.304 31.4326C332.714 31.1795 333.035 30.838 333.267 30.408C333.509 29.9687 333.629 29.4784 333.627 28.9371C333.626 28.3958 333.503 27.9107 333.26 27.482C333.025 27.044 332.702 26.6995 332.291 26.4486C331.889 26.1976 331.436 26.0728 330.932 26.0741C330.437 26.0754 329.99 26.2026 329.589 26.4557C329.188 26.7087 328.872 27.0502 328.64 27.4802C328.417 27.9101 328.306 28.4004 328.307 28.951C328.309 29.4924 328.422 29.9821 328.647 30.4201C328.882 30.8489 329.195 31.1887 329.588 31.4397C329.99 31.6906 330.443 31.8154 330.947 31.8141ZM339.504 32.8417C338.981 32.8431 338.505 32.723 338.075 32.4815C337.645 32.2306 337.303 31.8861 337.05 31.4481C336.806 31.0008 336.683 30.4878 336.682 29.9091L336.669 25.1771L337.719 25.1744L337.731 29.7803C337.733 30.1817 337.813 30.5361 337.972 30.8437C338.141 31.1419 338.37 31.3747 338.66 31.5419C338.959 31.7091 339.3 31.7922 339.683 31.7912C340.065 31.7902 340.406 31.7053 340.704 31.5366C341.002 31.3584 341.235 31.1105 341.402 30.7927C341.569 30.4656 341.652 30.0781 341.651 29.6301L341.639 25.1641L342.689 25.1613L342.709 32.6653L341.659 32.6681L341.655 31.2121L341.893 31.2674C341.717 31.7532 341.415 32.1367 340.986 32.4178C340.558 32.6989 340.064 32.8402 339.504 32.8417ZM347.473 32.8208C346.754 32.8227 346.124 32.6424 345.581 32.2798C345.039 31.9172 344.646 31.4236 344.402 30.7989L345.282 30.3766C345.498 30.8333 345.798 31.1965 346.181 31.4662C346.574 31.7358 347.004 31.8701 347.47 31.8688C347.918 31.8677 348.296 31.7593 348.604 31.5439C348.911 31.3191 349.064 31.0293 349.063 30.6747C349.063 30.4133 348.987 30.2082 348.838 30.0592C348.688 29.901 348.515 29.7801 348.319 29.6966C348.122 29.6131 347.95 29.5529 347.8 29.516L346.721 29.2108C346.03 29.0166 345.53 28.7426 345.221 28.3887C344.912 28.0349 344.757 27.6246 344.756 27.1579C344.755 26.7193 344.866 26.3363 345.089 26.009C345.312 25.6818 345.615 25.429 345.997 25.2507C346.379 25.0723 346.804 24.9826 347.27 24.9813C347.905 24.9797 348.479 25.1462 348.994 25.4808C349.517 25.8061 349.887 26.2625 350.103 26.8499L349.208 27.2723C349.021 26.8528 348.749 26.5268 348.394 26.2944C348.048 26.0526 347.66 25.9323 347.231 25.9334C346.811 25.9345 346.475 26.0428 346.224 26.2581C345.972 26.4734 345.847 26.7444 345.848 27.0711C345.848 27.3231 345.914 27.5236 346.045 27.6725C346.176 27.8215 346.326 27.9331 346.494 28.0074C346.672 28.0816 346.826 28.1372 346.957 28.1742L348.204 28.5349C348.811 28.7106 349.283 28.9847 349.62 29.3572C349.966 29.7296 350.14 30.1678 350.141 30.6718C350.142 31.0825 350.027 31.4515 349.794 31.7787C349.571 32.106 349.259 32.3635 348.858 32.5512C348.457 32.7296 347.996 32.8195 347.473 32.8208ZM354.862 32.7175C354.19 32.7192 353.671 32.5246 353.306 32.1335C352.941 31.7425 352.758 31.183 352.756 30.455L352.745 26.185L351.359 26.1886L351.356 25.1386L351.706 25.1377C352.023 25.1369 352.275 25.0336 352.461 24.8277C352.647 24.6126 352.74 24.3463 352.739 24.029L352.737 23.399L353.787 23.3962L353.792 25.1322L355.444 25.1279L355.447 26.1779L353.795 26.1822L353.806 30.4522C353.806 30.7042 353.844 30.9281 353.919 31.1239C353.995 31.3104 354.121 31.4594 354.299 31.5709C354.486 31.6824 354.733 31.7378 355.041 31.737C355.116 31.7368 355.204 31.7319 355.307 31.7223C355.41 31.7127 355.498 31.7031 355.573 31.6936L355.575 32.6316C355.464 32.6599 355.338 32.6789 355.198 32.6886C355.058 32.7076 354.946 32.7172 354.862 32.7175ZM357.419 32.6268L357.4 25.1228L358.45 25.12L358.453 26.352L358.312 26.1704C358.489 25.8153 358.754 25.5346 359.108 25.3283C359.472 25.122 359.91 25.0182 360.423 25.0169L360.899 25.0156L360.902 26.0656L360.244 26.0673C359.703 26.0688 359.269 26.2379 358.943 26.5748C358.618 26.9116 358.455 27.388 358.457 28.004L358.469 32.624L357.419 32.6268ZM362.312 35.694C362.162 35.6943 362.008 35.6808 361.85 35.6532C361.7 35.6349 361.551 35.598 361.401 35.5423L361.399 34.5623C361.492 34.5714 361.609 34.5851 361.749 34.6034C361.898 34.631 362.048 34.6446 362.197 34.6443C362.654 34.6431 363.004 34.5441 363.246 34.3475C363.488 34.1602 363.725 33.7956 363.957 33.2536L364.43 32.1324L364.405 33.0565L361.206 25.1128L362.34 25.1098L364.961 31.669L364.667 31.6698L367.24 25.097L368.402 25.094L364.994 33.5589C364.846 33.9233 364.655 34.2691 364.423 34.5964C364.2 34.9237 363.916 35.1858 363.571 35.3827C363.226 35.5889 362.806 35.6927 362.312 35.694ZM3.86714 55.7212C3.16715 55.723 2.53204 55.5567 1.96183 55.2222C1.40093 54.8783 0.95636 54.4082 0.628129 53.8117C0.299899 53.2152 0.134793 52.539 0.132812 51.783C0.130831 51.027 0.287749 50.3592 0.603565 49.7797C0.919357 49.1909 1.34748 48.7278 1.88793 48.3904C2.43771 48.0529 3.05327 47.8833 3.7346 47.8815C4.27593 47.8801 4.75687 47.9815 5.1774 48.1857C5.60725 48.3806 5.97196 48.6503 6.27153 48.9949C6.57107 49.3301 6.80074 49.7122 6.96053 50.1411C7.1203 50.5607 7.20077 50.9944 7.20194 51.4424C7.20219 51.5358 7.1978 51.6431 7.18879 51.7645C7.17975 51.8765 7.16605 51.9932 7.14771 52.1146L0.805727 52.1312L0.803159 51.1512L6.54314 51.1362L6.04024 51.5575C6.1229 51.0439 6.06103 50.5868 5.85465 50.186C5.65757 49.7758 5.37206 49.4546 4.99812 49.2222C4.62415 48.9805 4.20384 48.8603 3.73717 48.8615C3.27051 48.8627 2.83682 48.9852 2.43613 49.2289C2.04477 49.4726 1.73766 49.8141 1.51481 50.2533C1.29193 50.6833 1.20461 51.1968 1.25285 51.794C1.20774 52.3915 1.30245 52.9139 1.53695 53.3613C1.78077 53.7993 2.10833 54.1391 2.51963 54.3807C2.94026 54.6223 3.38858 54.7424 3.86458 54.7412C4.41524 54.7398 4.8769 54.6079 5.24954 54.3456C5.62219 54.0833 5.92467 53.7558 6.15697 53.3632L7.05422 53.8368C6.90577 54.1732 6.67792 54.4865 6.37068 54.7766C6.06341 55.0574 5.69535 55.2871 5.26648 55.4655C4.84692 55.6346 4.38048 55.7199 3.86714 55.7212ZM9.06397 55.5396L9.04431 48.0356L10.0943 48.0329L10.0981 49.4889L9.85997 49.4335C10.0454 48.9477 10.3477 48.5642 10.767 48.2831C11.1956 48.002 11.6899 47.8607 12.2499 47.8592C12.7819 47.8578 13.2582 47.9779 13.6788 48.2195C14.1088 48.461 14.4456 48.7961 14.6894 49.2248C14.9425 49.6442 15.0698 50.1198 15.0712 50.6518L15.0839 55.5238L14.0339 55.5266L14.0222 51.0606C14.021 50.6032 13.936 50.2161 13.7672 49.8992C13.6077 49.5823 13.3784 49.3403 13.0793 49.173C12.7895 48.9965 12.4533 48.9087 12.0706 48.9097C11.6879 48.9107 11.3475 49.0002 11.0493 49.1784C10.7511 49.3471 10.5184 49.5951 10.3513 49.9222C10.1841 50.24 10.1011 50.6228 10.1023 51.0708L10.114 55.5368L9.06397 55.5396ZM20.6534 58.5892C20.1401 58.5906 19.6638 58.5125 19.2248 58.355C18.795 58.1974 18.4211 57.9791 18.103 57.6999C17.7943 57.43 17.5555 57.1133 17.3866 56.7498L18.3512 56.2293C18.5015 56.5835 18.7683 56.8908 19.1516 57.1512C19.535 57.4115 20.0253 57.5409 20.6226 57.5393C21.08 57.5381 21.4997 57.4483 21.8819 57.27C22.2641 57.0917 22.5715 56.8295 22.8039 56.4836C23.0363 56.1376 23.1519 55.7127 23.1505 55.2087L23.1462 53.5427L23.3146 53.6962C23.0547 54.2383 22.6684 54.6593 22.1559 54.9593C21.6433 55.25 21.0837 55.3961 20.477 55.3977C19.777 55.3995 19.1466 55.2332 18.5857 54.8986C18.0248 54.5641 17.5803 54.1126 17.2522 53.5441C16.9333 52.9663 16.773 52.3274 16.7711 51.6274C16.7693 50.918 16.9263 50.2783 17.2421 49.7081C17.5673 49.1379 18.0048 48.6841 18.5545 48.3467C19.1137 48.0092 19.7479 47.8396 20.4572 47.8377C21.0639 47.8361 21.6149 47.9747 22.1103 48.2534C22.615 48.5321 23.0127 48.909 23.3033 49.3843L23.136 49.6787L23.1316 47.9987L24.1816 47.9959L24.2005 55.2059C24.2022 55.8499 24.0497 56.4243 23.743 56.9291C23.4457 57.4432 23.0268 57.8457 22.4862 58.1364C21.955 58.4365 21.3441 58.5874 20.6534 58.5892ZM20.5303 54.3475C21.0156 54.3463 21.454 54.2238 21.8453 53.9801C22.2367 53.7271 22.5485 53.3949 22.7807 52.9836C23.0223 52.563 23.1424 52.1053 23.1411 51.6107C23.1398 51.116 23.0173 50.6637 22.7736 50.2536C22.5391 49.8343 22.2256 49.5037 21.833 49.2621C21.4403 49.0111 21.0013 48.8863 20.516 48.8876C20.0213 48.8888 19.5736 49.016 19.173 49.2691C18.7723 49.5128 18.4558 49.8403 18.2235 50.2516C18.0006 50.6628 17.8898 51.1204 17.8911 51.6244C17.8924 52.1191 18.0056 52.5761 18.2307 52.9956C18.4651 53.4056 18.7787 53.7361 19.1713 53.9871C19.5733 54.2287 20.0263 54.3489 20.5303 54.3475ZM28.5293 55.6566C28.0533 55.6578 27.6284 55.5703 27.2546 55.3939C26.8807 55.2082 26.5861 54.957 26.3706 54.6402C26.1551 54.3235 26.0468 53.9597 26.0457 53.5491C26.0447 53.1571 26.1278 52.8022 26.2949 52.4844C26.4621 52.1573 26.7227 51.8813 27.0768 51.6564C27.4309 51.4314 27.8831 51.2716 28.4335 51.1768L31.3722 50.6791L31.3747 51.6311L28.6879 52.0862C28.1468 52.1809 27.7553 52.3546 27.5133 52.6072C27.2806 52.8598 27.1647 53.1588 27.1656 53.5041C27.1665 53.8401 27.2979 54.1245 27.5599 54.3571C27.8311 54.5897 28.1768 54.7055 28.5968 54.7044C29.1101 54.7031 29.5578 54.5945 29.9399 54.3789C30.322 54.1539 30.6199 53.8544 30.8336 53.4805C31.0473 53.1066 31.1535 52.691 31.1523 52.2337L31.1473 50.3297C31.1461 49.8817 30.9819 49.5181 30.6545 49.239C30.3271 48.9598 29.902 48.821 29.3794 48.8223C28.922 48.8235 28.521 48.9412 28.1763 49.1755C27.8315 49.4004 27.5756 49.6951 27.4086 50.0595L26.4552 49.544C26.5944 49.2263 26.813 48.9364 27.111 48.6743C27.4183 48.4121 27.7677 48.2059 28.1593 48.0555C28.5509 47.8958 28.9567 47.8154 29.3767 47.8143C29.9274 47.8129 30.413 47.919 30.8336 48.1325C31.2635 48.3461 31.5956 48.6439 31.8299 49.0259C32.0735 49.3986 32.196 49.8323 32.1973 50.327L32.2108 55.4789L31.1608 55.4817L31.1569 53.9837L31.3113 54.1373C31.1814 54.4176 30.9767 54.6748 30.6973 54.9089C30.4272 55.1336 30.1057 55.3164 29.7327 55.4574C29.3691 55.589 28.9679 55.6554 28.5293 55.6566ZM37.9346 58.5439C37.4212 58.5453 36.945 58.4672 36.506 58.3097C36.0762 58.1521 35.7023 57.9338 35.3842 57.6546C35.0755 57.3848 34.8367 57.0681 34.6677 56.7045L35.6324 56.184C35.7826 56.5382 36.0495 56.8455 36.4328 57.1059C36.8162 57.3662 37.3065 57.4956 37.9038 57.494C38.3612 57.4928 38.7809 57.4031 39.1631 57.2247C39.5453 57.0464 39.8526 56.7842 40.0851 56.4383C40.3175 56.0924 40.433 55.6674 40.4317 55.1634L40.4274 53.4974L40.5958 53.651C40.3359 54.193 39.9496 54.614 39.4371 54.914C38.9245 55.2047 38.3649 55.3508 37.7582 55.3524C37.0582 55.3542 36.4278 55.1879 35.8669 54.8534C35.306 54.5188 34.8615 54.0673 34.5333 53.4988C34.2145 52.921 34.0542 52.2821 34.0523 51.5821C34.0505 50.8728 34.2075 50.233 34.5233 49.6629C34.8485 49.0927 35.2859 48.6389 35.8357 48.3014C36.3949 47.9639 37.0291 47.7943 37.7384 47.7924C38.3451 47.7908 38.8961 47.9294 39.3915 48.2081C39.8962 48.4868 40.2939 48.8637 40.5845 49.339L40.4172 49.6334L40.4128 47.9534L41.4628 47.9507L41.4817 55.1606C41.4834 55.8046 41.3309 56.379 41.0242 56.8838C40.7269 57.398 40.308 57.8004 39.7674 58.0911C39.2362 58.3912 38.6252 58.5421 37.9346 58.5439ZM37.8115 54.3023C38.2968 54.301 38.7351 54.1785 39.1265 53.9348C39.5178 53.6818 39.8296 53.3496 40.0619 52.9384C40.3035 52.5177 40.4236 52.0601 40.4223 51.5654C40.421 51.0707 40.2985 50.6184 40.0547 50.2084C39.8203 49.789 39.5068 49.4585 39.1141 49.2168C38.7215 48.9659 38.2825 48.841 37.7972 48.8423C37.3025 48.8436 36.8548 48.9707 36.4542 49.2238C36.0535 49.4675 35.737 49.795 35.5047 50.2063C35.2818 50.6175 35.171 51.0752 35.1723 51.5792C35.1736 52.0738 35.2868 52.5309 35.5119 52.9503C35.7463 53.3603 36.0599 53.6908 36.4525 53.9418C36.8545 54.1834 37.3075 54.3036 37.8115 54.3023ZM47.0564 55.608C46.3564 55.6099 45.7213 55.4435 45.1511 55.109C44.5902 54.7652 44.1457 54.295 43.8174 53.6985C43.4892 53.102 43.3241 52.4258 43.3221 51.6698C43.3201 50.9138 43.4771 50.2461 43.7929 49.6666C44.1087 49.0777 44.5368 48.6146 45.0772 48.2772C45.627 47.9398 46.2426 47.7701 46.9239 47.7684C47.4652 47.7669 47.9462 47.8683 48.3667 48.0726C48.7966 48.2675 49.1613 48.5372 49.4608 48.8817C49.7604 49.2169 49.99 49.599 50.1498 50.0279C50.3096 50.4475 50.3901 50.8813 50.3912 51.3293C50.3915 51.4226 50.3871 51.53 50.3781 51.6513C50.3691 51.7633 50.3554 51.88 50.337 52.0014L43.995 52.018L43.9925 51.038L49.7324 51.023L49.2295 51.4443C49.3122 50.9308 49.2503 50.4736 49.044 50.0728C48.8469 49.6627 48.5614 49.3414 48.1874 49.1091C47.8135 48.8674 47.3931 48.7471 46.9265 48.7484C46.4598 48.7496 46.0261 48.872 45.6254 49.1158C45.2341 49.3595 44.927 49.7009 44.7041 50.1402C44.4812 50.5701 44.3939 51.0837 44.4421 51.6809C44.397 52.2783 44.4917 52.8007 44.7263 53.2481C44.9701 53.6862 45.2976 54.026 45.7089 54.2676C46.1296 54.5091 46.5779 54.6293 47.0539 54.628C47.6045 54.6266 48.0662 54.4947 48.4388 54.2324C48.8115 53.9701 49.114 53.6426 49.3463 53.25L50.2435 53.7237C50.0951 54.0601 49.8672 54.3733 49.56 54.6635C49.2527 54.9443 48.8846 55.1739 48.4558 55.3524C48.0362 55.5215 47.5698 55.6067 47.0564 55.608ZM52.2533 55.4264L52.2336 47.9224L53.2836 47.9197L53.2873 49.3477L53.1188 49.1381C53.323 48.6989 53.6254 48.3575 54.0261 48.1137C54.4361 47.87 54.8838 47.7475 55.3692 47.7462C55.9478 47.7447 56.4709 47.9067 56.9384 48.2321C57.406 48.5576 57.7384 48.9814 57.9358 49.5035L57.6418 49.5183C57.827 48.9391 58.1478 48.4996 58.6044 48.1998C59.0702 47.8905 59.5831 47.7352 60.1431 47.7337C60.6471 47.7324 61.1095 47.8525 61.5301 48.0941C61.9601 48.3356 62.3016 48.6707 62.5547 49.0994C62.8172 49.5187 62.9491 49.9944 62.9505 50.5264L62.9632 55.3984L61.9132 55.4011L61.9015 50.9351C61.9003 50.4778 61.8153 50.0907 61.6465 49.7738C61.487 49.4569 61.267 49.2148 60.9866 49.0475C60.7061 48.8709 60.3839 48.7831 60.0199 48.784C59.6652 48.785 59.3435 48.8745 59.0546 49.0526C58.7657 49.2213 58.5377 49.4693 58.3705 49.7964C58.2034 50.1141 58.1204 50.497 58.1215 50.945L58.1333 55.411L57.0833 55.4138L57.0716 50.9478C57.0704 50.4904 56.9853 50.1033 56.8165 49.7864C56.657 49.4695 56.437 49.2274 56.1566 49.0602C55.8761 48.8836 55.5539 48.7957 55.1899 48.7967C54.8259 48.7977 54.4995 48.8872 54.2106 49.0653C53.9311 49.234 53.7077 49.4819 53.5406 49.809C53.3734 50.1268 53.2904 50.5097 53.2916 50.9577L53.3033 55.4237L52.2533 55.4264ZM68.3845 55.5522C67.6845 55.554 67.0494 55.3877 66.4792 55.0531C65.9183 54.7093 65.4737 54.2391 65.1455 53.6426C64.8173 53.0462 64.6521 52.3699 64.6502 51.6139C64.6482 50.8579 64.8051 50.1902 65.1209 49.6107C65.4367 49.0219 65.8648 48.5587 66.4053 48.2213C66.9551 47.8839 67.5706 47.7143 68.252 47.7125C68.7933 47.7111 69.2742 47.8125 69.6948 48.0167C70.1246 48.2116 70.4893 48.4813 70.7889 48.8258C71.0884 49.161 71.3181 49.5431 71.4779 49.972C71.6377 50.3916 71.7181 50.8254 71.7193 51.2734C71.7195 51.3667 71.7152 51.4741 71.7061 51.5954C71.6971 51.7075 71.6834 51.8242 71.6651 51.9455L65.3231 51.9622L65.3205 50.9822L71.0605 50.9671L70.5576 51.3884C70.6403 50.8749 70.5784 50.4177 70.372 50.0169C70.1749 49.6068 69.8894 49.2855 69.5155 49.0532C69.1415 48.8115 68.7212 48.6912 68.2545 48.6925C67.7879 48.6937 67.3542 48.8162 66.9535 49.0599C66.5621 49.3036 66.255 49.645 66.0322 50.0843C65.8093 50.5142 65.722 51.0278 65.7702 51.625C65.7251 52.2224 65.8198 52.7449 66.0543 53.1923C66.2981 53.6303 66.6257 53.9701 67.037 54.2117C67.4576 54.4532 67.9059 54.5734 68.3819 54.5722C68.9326 54.5707 69.3943 54.4388 69.7669 54.1765C70.1395 53.9142 70.442 53.5868 70.6743 53.1941L71.5716 53.6678C71.4231 54.0042 71.1953 54.3175 70.888 54.6076C70.5808 54.8884 70.2127 55.118 69.7838 55.2965C69.3643 55.4656 68.8978 55.5508 68.3845 55.5522ZM73.5813 55.3705L73.5617 47.8666L74.6117 47.8638L74.6155 49.3198L74.3773 49.2644C74.5627 48.7786 74.865 48.3951 75.2843 48.1141C75.7129 47.8329 76.2072 47.6916 76.7672 47.6902C77.2992 47.6888 77.7755 47.8089 78.1962 48.0504C78.6261 48.292 78.963 48.6271 79.2068 49.0558C79.4599 49.4751 79.5871 49.9508 79.5885 50.4828L79.6013 55.3548L78.5513 55.3575L78.5396 50.8915C78.5384 50.4342 78.4534 50.0471 78.2846 49.7302C78.1251 49.4133 77.8958 49.1712 77.5967 49.004C77.3069 48.8274 76.9706 48.7396 76.588 48.7406C76.2053 48.7416 75.8649 48.8312 75.5667 49.0093C75.2684 49.1781 75.0358 49.426 74.8686 49.7531C74.7014 50.0709 74.6184 50.4538 74.6196 50.9018L74.6313 55.3678L73.5813 55.3705ZM84.4769 55.426C83.8049 55.4278 83.2864 55.2331 82.9214 54.8421C82.5563 54.451 82.3729 53.8915 82.371 53.1635L82.3598 48.8935L80.9738 48.8971L80.971 47.8471L81.321 47.8462C81.6384 47.8454 81.8901 47.7421 82.0762 47.5363C82.2623 47.3211 82.355 47.0549 82.3541 46.7375L82.3525 46.1075L83.4025 46.1048L83.407 47.8408L85.059 47.8364L85.0618 48.8864L83.4098 48.8908L83.421 53.1607C83.4216 53.4127 83.4595 53.6366 83.5347 53.8325C83.6099 54.0189 83.7363 54.1679 83.9139 54.2795C84.1008 54.391 84.3483 54.4463 84.6563 54.4455C84.731 54.4453 84.8196 54.4404 84.9223 54.4308C85.0249 54.4212 85.1136 54.4117 85.1882 54.4021L85.1907 55.3401C85.0787 55.3684 84.9528 55.3874 84.8128 55.3971C84.6729 55.4161 84.5609 55.4258 84.4769 55.426ZM87.3984 55.3343L87.3944 53.7943L88.5144 53.7914L88.5184 55.3314L87.3984 55.3343Z" fill="white" fill-opacity="0.8"/>
</svg>
