<svg width="286" height="32" viewBox="0 0 286 32" fill="none" xmlns="http://www.w3.org/2000/svg">
<path d="M0.0797232 31.0276L0.00164312 1.2277L5.20163 1.21407L16.4013 16.3448L13.9213 16.3513L24.8016 1.16272L30.0015 1.14909L30.0796 30.949L24.5996 30.9634L24.5378 7.36343L26.6592 7.87787L15.3787 22.9875L14.7387 22.9892L3.65924 7.93814L5.45787 7.41342L5.5197 31.0133L0.0797232 31.0276ZM45.4639 31.3887C43.2239 31.3946 41.2626 30.893 39.58 29.8841C37.8973 28.8752 36.5871 27.5053 35.6492 25.7744C34.7113 24.0435 34.2396 22.1247 34.2341 20.0181C34.2284 17.8314 34.69 15.8969 35.6189 14.2144C36.5744 12.5052 37.8642 11.1552 39.4883 10.1643C41.139 9.17327 42.9777 8.67512 45.0044 8.66981C46.7111 8.66534 48.2051 8.94142 49.4866 9.49807C50.7947 10.0546 51.9034 10.8251 52.8127 11.8094C53.7219 12.7937 54.4182 13.9252 54.9016 15.2039C55.3848 16.456 55.6284 17.8153 55.6323 19.282C55.6332 19.6553 55.6076 20.0421 55.5553 20.4422C55.5297 20.8423 55.4639 21.1891 55.358 21.4827L38.5581 21.5267L38.5476 17.5268L52.3875 17.4905L49.9125 19.377C50.1493 18.1497 50.0797 17.0565 49.7039 16.0975C49.3547 15.1384 48.7661 14.38 47.9379 13.8221C47.1365 13.2642 46.1624 12.9868 45.0157 12.9898C43.9224 12.9927 42.9498 13.2752 42.0979 13.8374C41.246 14.373 40.5948 15.1747 40.1442 16.2426C39.7203 17.2837 39.5636 18.5508 39.6742 20.0438C39.571 21.3774 39.7475 22.5636 40.2035 23.6024C40.6862 24.6145 41.3816 25.3994 42.2897 25.957C43.2245 26.5145 44.2919 26.7917 45.4919 26.7886C46.6919 26.7855 47.7045 26.5295 48.5299 26.0206C49.3819 25.5117 50.0468 24.83 50.5245 23.9754L54.77 26.0443C54.346 27.0854 53.6818 28.0071 52.7772 28.8095C51.8726 29.6119 50.7943 30.2414 49.5421 30.698C48.3167 31.1545 46.9573 31.3848 45.4639 31.3887ZM69.756 31.325C67.516 31.3309 65.5547 30.8294 63.8721 29.8204C62.1894 28.8115 60.8792 27.4416 59.9413 25.7107C59.0034 23.9799 58.5317 22.0611 58.5262 19.9544C58.5205 17.7678 58.9821 15.8332 59.911 14.1508C60.8665 12.4416 62.1563 11.0915 63.7804 10.1006C65.4311 9.10962 67.2698 8.61147 69.2965 8.60616C71.0032 8.60169 72.4972 8.87778 73.7787 9.43442C75.0868 9.991 76.1955 10.7614 77.1048 11.7457C78.014 12.73 78.7103 13.8615 79.1937 15.1403C79.6769 16.3923 79.9205 17.7517 79.9243 19.2184C79.9253 19.5917 79.8997 19.9784 79.8474 20.3786C79.8218 20.7786 79.756 21.1255 79.6501 21.4191L62.8502 21.4631L62.8397 17.4631L76.6796 17.4268L74.2046 19.3133C74.4414 18.086 74.3718 16.9929 73.996 16.0339C73.6468 15.0748 73.0581 14.3163 72.23 13.7585C71.4285 13.2006 70.4545 12.9231 69.3078 12.9261C68.2145 12.929 67.2419 13.2116 66.39 13.7738C65.5381 14.3094 64.8869 15.1111 64.4363 16.1789C64.0124 17.22 63.8557 18.4871 63.9663 19.9802C63.8631 21.3138 64.0396 22.5 64.4956 23.5388C64.9783 24.5509 65.6737 25.3357 66.5818 25.8933C67.5166 26.4509 68.584 26.7281 69.784 26.7249C70.984 26.7218 71.9966 26.4658 72.822 25.957C73.674 25.4481 74.3389 24.7663 74.8166 23.9118L79.0621 25.9806C78.6381 27.0217 77.9739 27.9435 77.0693 28.7459C76.1647 29.5482 75.0864 30.1777 73.8342 30.6343C72.6088 31.0909 71.2494 31.3211 69.756 31.325ZM93.6476 31.0224C91.1942 31.0289 89.2858 30.3672 87.9223 29.0374C86.5854 27.6809 85.9138 25.776 85.9074 23.3227L85.8822 13.7227L82.1222 13.7326L82.1099 9.05259L82.5099 9.05154C83.5766 9.04875 84.4025 8.76658 84.9877 8.20505C85.5729 7.64351 85.8641 6.82941 85.8613 5.76275L85.8569 4.08275L91.0969 4.06903L91.1099 9.02901L96.1099 9.01591L96.1222 13.6959L91.1222 13.709L91.1466 23.029C91.1485 23.749 91.2701 24.362 91.5114 24.868C91.7794 25.374 92.1804 25.7596 92.7145 26.0249C93.2752 26.2901 93.9822 26.4215 94.8355 26.4193C95.0222 26.4188 95.2355 26.4049 95.4754 26.3776C95.742 26.3503 95.9952 26.3229 96.2352 26.2956L96.2469 30.7756C95.8737 30.8299 95.4472 30.8844 94.9673 30.939C94.4875 30.9936 94.0476 31.0214 93.6476 31.0224ZM122.081 31.1879C119.894 31.1937 117.853 30.8123 115.958 30.044C114.063 29.2756 112.406 28.1999 110.989 26.817C109.572 25.434 108.461 23.8103 107.657 21.9457C106.878 20.0544 106.486 18.0154 106.481 15.8288C106.475 13.6154 106.856 11.5744 107.625 9.70574C108.393 7.83705 109.482 6.20753 110.892 4.81716C112.301 3.4268 113.952 2.3558 115.843 1.60418C117.735 0.825887 119.787 0.433842 122 0.428042C124.214 0.422243 126.268 0.803528 128.163 1.5719C130.059 2.34027 131.715 3.41593 133.132 4.79889C134.549 6.15518 135.646 7.76565 136.424 9.63028C137.229 11.4948 137.635 13.5338 137.64 15.7471C137.646 17.9338 137.252 19.9748 136.457 21.8702C135.661 23.739 134.559 25.3686 133.149 26.7589C131.74 28.1493 130.089 29.2336 128.198 30.0119C126.333 30.7901 124.294 31.1821 122.081 31.1879ZM122.068 26.228C123.535 26.2241 124.881 25.9673 126.106 25.4574C127.331 24.9208 128.396 24.1847 129.3 23.249C130.231 22.3132 130.935 21.2047 131.411 19.9235C131.915 18.6421 132.164 17.2548 132.16 15.7615C132.157 14.2681 131.9 12.8955 131.39 11.6435C130.906 10.3647 130.197 9.25993 129.261 8.32905C128.352 7.37142 127.283 6.64089 126.055 6.13744C124.827 5.63399 123.48 5.38418 122.013 5.38803C120.573 5.3918 119.241 5.64862 118.015 6.1585C116.79 6.66838 115.712 7.40454 114.781 8.36699C113.877 9.30269 113.173 10.4112 112.67 11.6925C112.166 12.9472 111.917 14.3212 111.921 15.8145C111.924 17.3078 112.181 18.6938 112.691 19.9725C113.201 21.2512 113.911 22.356 114.82 23.2869C115.756 24.2178 116.838 24.9483 118.066 25.4784C119.294 25.9819 120.628 26.2317 122.068 26.228ZM149.638 31.1157C147.958 31.1201 146.49 30.7506 145.235 30.0073C144.006 29.2638 143.057 28.2263 142.387 26.8947C141.743 25.5631 141.419 24.0039 141.415 22.2172L141.38 8.89729L146.62 8.88357L146.653 21.7635C146.656 22.6702 146.831 23.4697 147.18 24.1622C147.555 24.8278 148.076 25.3598 148.744 25.7581C149.438 26.1296 150.212 26.3142 151.065 26.312C151.919 26.3097 152.678 26.1211 153.344 25.746C154.01 25.3443 154.528 24.7962 154.9 24.1019C155.271 23.4076 155.456 22.5805 155.453 21.6205L155.42 8.86051L160.66 8.84678L160.717 30.6067L155.757 30.6197L155.745 26.3397L156.187 27.0986C155.684 28.4332 154.847 29.4354 153.675 30.1052C152.53 30.7748 151.185 31.1117 149.638 31.1157ZM165.388 30.5945L165.331 8.83454L170.251 8.82165L170.263 13.6616L169.861 12.9427C170.364 11.3147 171.147 10.1793 172.212 9.53651C173.304 8.89365 174.61 8.57023 176.13 8.56624L177.41 8.56289L177.422 13.2029L175.542 13.2078C174.049 13.2117 172.85 13.6815 171.946 14.6172C171.041 15.5263 170.592 16.8075 170.596 18.4608L170.628 30.5807L165.388 30.5945ZM192.778 30.5227L192.712 5.52279L184.992 5.54301L184.98 0.743027L205.78 0.688528L205.792 5.48851L198.192 5.50843L198.258 30.5083L192.778 30.5227ZM216.046 30.9417C213.806 30.9476 211.845 30.4461 210.162 29.4371C208.48 28.4282 207.169 27.0583 206.231 25.3274C205.294 23.5965 204.822 21.6778 204.816 19.5711C204.811 17.3845 205.272 15.4499 206.201 13.7675C207.157 12.0583 208.446 10.7082 210.071 9.71732C211.721 8.72632 213.56 8.22817 215.587 8.22286C217.293 8.21839 218.787 8.49447 220.069 9.05112C221.377 9.60769 222.486 10.3781 223.395 11.3624C224.304 12.3467 225 13.4782 225.484 14.757C225.967 16.009 226.211 17.3684 226.214 18.835C226.215 19.2084 226.19 19.5951 226.138 19.9953C226.112 20.3953 226.046 20.7422 225.94 21.0358L209.14 21.0798L209.13 17.0798L222.97 17.0435L220.495 18.93C220.732 17.7027 220.662 16.6096 220.286 15.6506C219.937 14.6915 219.348 13.933 218.52 13.3752C217.719 12.8173 216.745 12.5398 215.598 12.5428C214.505 12.5457 213.532 12.8283 212.68 13.3905C211.828 13.9261 211.177 14.7278 210.726 15.7956C210.303 16.8367 210.146 18.1038 210.256 19.5969C210.153 20.9305 210.33 22.1167 210.786 23.1555C211.268 24.1676 211.964 24.9524 212.872 25.51C213.807 26.0676 214.874 26.3448 216.074 26.3416C217.274 26.3385 218.287 26.0825 219.112 25.5737C219.964 25.0648 220.629 24.383 221.107 23.5284L225.352 25.5973C224.928 26.6384 224.264 27.5602 223.359 28.3626C222.455 29.1649 221.377 29.7944 220.124 30.251C218.899 30.7076 217.54 30.9378 216.046 30.9417ZM236.54 30.888C235.02 30.892 233.699 30.6421 232.578 30.1384C231.457 29.6347 230.588 28.917 229.973 27.9852C229.357 27.0268 229.047 25.921 229.044 24.6677C229.041 23.4677 229.305 22.4003 229.835 21.4656C230.366 20.5042 231.191 19.702 232.309 19.0591C233.427 18.4161 234.84 17.9591 236.546 17.688L243.663 16.5093L243.673 20.5093L237.556 21.5653C236.516 21.7547 235.744 22.0901 235.238 22.5714C234.733 23.0527 234.481 23.6801 234.483 24.4534C234.485 25.2001 234.767 25.7993 235.328 26.2512C235.916 26.6763 236.636 26.8878 237.49 26.8855C238.583 26.8827 239.542 26.6535 240.368 26.198C241.22 25.7158 241.872 25.0607 242.323 24.2329C242.801 23.4049 243.038 22.4976 243.036 21.511L243.021 15.911C243.018 14.9777 242.643 14.2053 241.895 13.5939C241.173 12.9558 240.212 12.6384 239.012 12.6415C237.892 12.6444 236.893 12.9537 236.015 13.5694C235.163 14.1583 234.538 14.9466 234.141 15.9343L229.856 13.8655C230.279 12.7177 230.943 11.7293 231.848 10.9003C232.779 10.0445 233.87 9.37496 235.123 8.89167C236.375 8.40839 237.734 8.16483 239.201 8.16099C240.987 8.15631 242.561 8.48552 243.923 9.14862C245.285 9.78505 246.341 10.689 247.09 11.8603C247.867 13.005 248.257 14.3506 248.261 15.8973L248.299 30.3772L243.339 30.3902L243.329 26.6702L244.449 26.5873C243.891 27.5221 243.227 28.3105 242.455 28.9525C241.683 29.5679 240.805 30.0502 239.819 30.3994C238.833 30.722 237.74 30.8849 236.54 30.888ZM252.942 30.3651L252.885 8.60513L257.805 8.59224L257.818 13.6322L257.256 12.7937C257.652 11.2193 258.449 10.0439 259.647 9.26742C260.845 8.49094 262.257 8.10058 263.884 8.09631C265.67 8.09163 267.245 8.55418 268.607 9.48394C269.97 10.4137 270.853 11.6381 271.257 13.157L269.777 13.2809C270.439 11.5458 271.436 10.2499 272.767 9.39304C274.098 8.50955 275.63 8.06554 277.364 8.06099C278.91 8.05694 280.285 8.40001 281.486 9.0902C282.715 9.78031 283.677 10.7511 284.374 12.0026C285.071 13.2275 285.421 14.6532 285.425 16.2799L285.462 30.2799L280.222 30.2936L280.188 17.5336C280.186 16.5736 280.01 15.7474 279.662 15.055C279.314 14.3626 278.832 13.8305 278.218 13.4588C277.603 13.0604 276.856 12.8623 275.976 12.8646C275.15 12.8668 274.417 13.0687 273.778 13.4704C273.139 13.8454 272.647 14.38 272.302 15.0743C271.957 15.7685 271.786 16.5956 271.789 17.5556L271.822 30.3156L266.582 30.3293L266.549 17.5694C266.546 16.6094 266.371 15.7832 266.022 15.0907C265.674 14.3983 265.179 13.8663 264.538 13.4946C263.923 13.0962 263.19 12.8981 262.336 12.9004C261.51 12.9026 260.777 13.1045 260.138 13.5061C259.499 13.8812 259.007 14.4158 258.662 15.11C258.317 15.8043 258.146 16.6314 258.149 17.5914L258.182 30.3513L252.942 30.3651Z" fill="white"/>
</svg>
