<svg width="520" height="460" viewBox="0 0 520 460" xmlns="http://www.w3.org/2000/svg">
  <defs>
    <linearGradient id="tileGradient" x1="15%" y1="10%" x2="85%" y2="90%">
      <stop offset="0%" stop-color="#D2CCFF" />
      <stop offset="45%" stop-color="#7E5BFF" />
      <stop offset="100%" stop-color="#4827A1" />
    </linearGradient>
    <filter id="softShadow" x="-40%" y="-30%" width="180%" height="180%">
      <feDropShadow dx="-26" dy="34" stdDeviation="26" flood-color="#0B031C" flood-opacity="0.65" />
    </filter>
  </defs>
  <g transform="rotate(-8 260 230) translate(30 40)" filter="url(#softShadow)" fill="url(#tileGradient)">
    <path d="M70 40h110c8.84 0 16-7.16 16-16V0h60v24c0 8.84 7.16 16 16 16h22c13.25 0 24 10.75 24 24s-10.75 24-24 24h-22c-8.84 0-16 7.16-16 16v18H70z"/>
    <path d="M220 98h116c8.84 0 16-7.16 16-16V60h62v22c0 8.84 7.16 16 16 16h24c13.25 0 24 10.75 24 24s-10.75 24-24 24h-24c-8.84 0-16 7.16-16 16v18H220z"/>
    <path d="M70 196h112c8.84 0 16-7.16 16-16v-22h60v22c0 8.84 7.16 16 16 16h20c13.25 0 24 10.75 24 24s-10.75 24-24 24h-20c-8.84 0-16 7.16-16 16v20H70z"/>
    <path d="M220 254h114c8.84 0 16-7.16 16-16v-20h62v20c0 8.84 7.16 16 16 16h22c13.25 0 24 10.75 24 24s-10.75 24-24 24h-22c-8.84 0-16 7.16-16 16v42H220z"/>
  </g>
</svg>

